<svg width="34" height="25" viewBox="0 0 34 25" fill="none" xmlns="http://www.w3.org/2000/svg">
<g clip-path="url(#clip0_6_514)">
<path d="M0.268423 6.0653C0.319003 6.41777 0.504578 6.7368 0.785965 6.95502C1.06735 7.17324 1.42253 7.27357 1.7765 7.23483C2.57671 7.17327 3.46924 7.69648 4.39256 8.86601C4.2347 8.80902 4.06384 8.79834 3.90012 8.83524H3.83857C3.6579 8.85966 3.48392 8.91991 3.32684 9.01246C3.16976 9.105 3.03274 9.22798 2.92381 9.37417C2.81488 9.52037 2.73623 9.68684 2.69248 9.86383C2.64874 10.0408 2.64076 10.2248 2.66904 10.4049C2.72289 10.7199 2.87349 11.0103 3.09992 11.2359C4.30023 12.3746 5.06965 13.9135 5.90064 15.5447C6.94706 17.5759 7.99348 19.6688 10.0248 21.2692C11.6918 22.5124 13.6762 23.2593 15.7493 23.4236H16.0571C16.2876 23.3975 16.5068 23.3093 16.6911 23.1684C16.8754 23.0274 17.018 22.8391 17.1035 22.6234C17.2459 22.2925 17.2676 21.9222 17.1651 21.577C17.3554 21.2812 17.636 21.0545 17.9653 20.9306C17.996 21.023 17.996 21.1461 18.0268 21.2692C18.0876 21.5887 18.2606 21.876 18.5145 22.0792C18.7685 22.2823 19.0867 22.388 19.4118 22.3772C19.6888 22.3772 20.3043 22.7773 20.7044 23.0543C20.9814 23.2389 21.2892 23.4236 21.597 23.6083C21.6277 23.639 21.6893 23.6698 21.7509 23.7314C21.9908 23.92 22.2485 24.0849 22.5203 24.2238C22.7794 24.3784 23.0823 24.4433 23.382 24.4085C23.6027 24.3721 23.8127 24.2881 23.9976 24.1622C24.2217 24.2531 24.4655 24.2849 24.7055 24.2546C24.9968 24.2154 25.2678 24.0835 25.4784 23.8785C25.689 23.6734 25.8281 23.406 25.875 23.1158C25.9103 23.0062 25.931 22.8923 25.9365 22.7773C26.0764 22.2246 26.118 21.6516 26.0596 21.0845L26.1212 21.023C26.8906 20.2535 28.0602 19.1148 27.7832 17.2682C27.8139 17.2682 27.8447 17.2374 27.8755 17.2374C28.572 17.0517 29.2436 16.7831 29.876 16.4372C30.5129 16.1142 31.0303 15.5968 31.3533 14.9599C32.9229 14.1597 34.2156 12.3746 33.9694 10.6203C33.7539 9.14301 32.4305 8.74291 31.815 8.58902C31.6889 8.55739 31.5655 8.51624 31.4456 8.46591C30.984 8.28125 30.5531 8.06581 30.0299 7.85037C29.599 7.63493 29.1374 7.45027 28.7065 7.23483C28.4922 7.13937 28.2863 7.02613 28.0909 6.89628C27.9678 6.83472 27.8447 6.74239 27.7216 6.68084L27.0137 5.29587C26.9198 5.12426 26.7924 4.9732 26.6391 4.85162C26.4858 4.73005 26.3097 4.64041 26.1212 4.58799L21.7816 3.60313C20.5093 2.99321 19.1486 2.58811 17.7498 2.40282C16.765 2.18738 15.0414 1.78728 13.9027 1.54106C13.7836 1.49589 13.6597 1.4649 13.5334 1.44873C12.4208 1.03147 11.2643 0.742356 10.0863 0.586969C8.47286 0.376367 6.83954 0.36603 5.22354 0.556192C4.91577 0.617746 4.63877 0.648523 4.36178 0.710078L4.08479 0.802409C3.46511 0.960221 2.92049 1.33056 2.54593 1.84883C2.4404 2.00496 2.36935 2.18179 2.3375 2.36753C2.30566 2.55327 2.31376 2.74366 2.36127 2.92603C2.45112 3.29688 2.68328 3.61749 3.00759 3.81857C3.43697 4.03907 3.87886 4.23433 4.331 4.40333C4.48489 4.46489 4.608 4.49566 4.76188 4.55722L4.85421 4.61877C5.03888 4.74188 5.16198 4.83421 5.31587 4.95732C4.15657 4.44539 2.8811 4.25407 1.62262 4.40333C1.53028 4.43411 1.40718 4.43411 1.31484 4.46489C0.970819 4.55065 0.671874 4.76317 0.477844 5.05992C0.283815 5.35667 0.209017 5.71575 0.268423 6.0653Z" fill="white"/>
<path d="M3.74609 2.61835C4.45397 3.01845 5.37728 3.23389 6.14671 3.66477C7.71634 4.5573 8.36266 6.65015 8.8551 8.25056C9.83996 11.2359 10.5171 14.3444 11.8405 17.2375C12.3329 18.3147 12.8869 19.515 13.841 20.3152C14.395 20.8076 15.0413 21.3924 15.8107 21.5155C15.7416 21.4343 15.6893 21.3401 15.6568 21.2385C15.7083 21.2925 15.7499 21.3549 15.7799 21.4232C16.1185 20.0382 17.6266 19.2072 19.0115 19.2995C19.3501 19.792 19.3501 20.346 19.4424 20.9C20.4581 20.8692 21.4737 21.8233 22.3047 22.2849C22.5201 22.3773 22.8895 22.7774 23.0741 22.8081C23.3511 22.8697 23.1049 22.9312 23.3819 22.7466C23.7353 22.4377 23.9649 22.0113 24.0282 21.5463C24.336 21.8848 24.3668 22.3773 24.5207 22.7466C24.613 22.131 24.7669 21.7002 24.7053 21.0231C24.6745 20.8692 24.6745 20.6537 24.6438 20.4075C25.4747 19.515 26.6443 18.7148 26.3981 17.3298C26.3365 16.9605 26.4288 16.745 26.2134 16.2526C25.3209 16.9913 22.4586 18.407 22.2431 16.3449C22.12 15.2677 23.6589 14.0982 24.5207 13.5134C25.2285 13.298 26.3365 13.0518 26.7982 13.298C27.4445 13.6366 27.3829 15.3293 27.0136 15.8833C27.1426 15.8342 27.2663 15.7723 27.3829 15.6986L27.2598 15.8217C28.1524 15.5447 30.2144 14.9907 30.1836 13.7904C31.3839 13.4519 32.7997 12.0054 32.615 10.682C32.4919 9.91252 31.5686 9.85097 30.9223 9.60475C29.999 9.23543 29.0757 8.74299 28.1831 8.37367C27.6907 8.15823 27.1983 7.81968 26.7058 7.60424L25.7825 5.84994L21.3814 4.89585C20.1815 4.34679 18.905 3.98356 17.5958 3.81865C16.7033 3.60321 14.7951 3.20311 13.6255 2.92612C13.5201 2.8761 13.4033 2.85487 13.287 2.86456C12.2365 2.46486 11.1408 2.1961 10.0246 2.06436C8.30111 1.8797 6.4237 1.72581 4.73096 2.12591C4.79252 2.12591 4.85407 2.15669 4.9464 2.15669C4.72313 2.11071 4.49135 2.12977 4.27859 2.2116C4.06582 2.29343 3.88101 2.4346 3.74609 2.61835Z" stroke="black" stroke-width="1.78815" stroke-linecap="round" stroke-linejoin="round"/>
<path d="M24.6746 20.4382C25.5056 19.5456 26.6751 18.7454 26.4289 17.3604C26.3674 16.9911 26.4597 16.7757 26.2442 16.2832C25.3517 17.0219 22.4894 18.4376 22.274 16.3756C22.1509 15.2368 23.8129 14.0365 24.6438 13.4825C25.1409 13.1955 25.6548 12.9386 26.1827 12.7131C26.1519 12.2822 25.7826 12.1283 25.4133 12.036C24.5515 11.7898 23.8129 12.0668 23.0434 12.4053C21.1968 13.2363 19.9349 15.2368 19.8118 17.2066C19.7195 19.0224 20.4581 20.5613 22.4279 20.7152C23.3204 20.7767 24.3668 20.7767 24.6746 20.4382Z" fill="black"/>
<path d="M4.60791 2.21834C5.22619 2.57566 5.80405 2.99873 6.33143 3.4802C6.95508 4.0685 7.54101 4.69555 8.08573 5.35761C8.61017 6.00064 9.07382 6.69096 9.4707 7.41967C10.4863 9.20475 11.0096 11.236 11.6251 13.2058C11.9141 14.2007 12.2636 15.1772 12.6715 16.1296C13.0965 17.1071 13.5902 18.0533 14.1488 18.9611C14.1796 19.0226 14.2104 19.0534 14.2411 19.115C14.2719 19.1765 14.3027 19.2073 14.3335 19.2689C14.6413 18.7149 15.2876 18.4994 15.8723 18.2532C16.611 18.007 17.5959 17.5761 18.3345 17.9147C18.9193 18.1609 19.1963 18.838 19.4425 19.392C19.7195 20.0075 19.9349 20.4384 20.612 20.6231C21.0609 20.7032 21.5032 20.8163 21.9354 20.9616C22.274 21.1155 22.5818 21.454 22.9819 21.5464C23.1435 21.303 23.3406 21.0851 23.5666 20.9001C23.6282 20.9924 23.7821 21.1155 23.8744 21.2386C24.1514 20.7154 23.6897 20.0383 23.9052 19.5766C23.9975 19.3304 24.5823 19.2381 24.8593 19.0842C25.4748 18.7457 26.275 18.0378 26.0596 17.2068C25.2594 18.0993 24.1206 18.5302 22.9203 18.0993C20.4889 17.2376 23.0434 14.4676 24.1822 13.6059C25.0131 12.9903 25.9365 12.344 27.0137 12.8364C28.1524 13.3289 28.214 14.3137 27.7215 15.2986C28.2755 14.7754 29.1065 14.6831 29.5682 14.0983C29.8759 13.6674 29.8759 13.0827 30.276 12.8364C30.9531 12.3748 31.8457 11.4515 30.9223 10.8052C30.9058 10.7884 30.8841 10.7776 30.8608 10.7744C29.7528 10.0357 28.3679 9.69718 27.2907 8.83542C27.0921 8.66034 26.9254 8.45205 26.7982 8.21988C26.6317 7.91147 26.4467 7.61341 26.2442 7.32734C25.7814 6.8441 25.2124 6.47529 24.5823 6.25014C22.9409 5.51026 21.2552 4.87298 19.5348 4.34196C19.0732 4.21885 18.6115 4.09574 18.1191 3.97264C17.0726 3.72642 16.057 3.54176 15.0106 3.35709L14.949 3.32632C12.5783 2.75099 10.1547 2.42097 7.7164 2.34145C7.37785 2.31067 7.07008 2.31067 6.73153 2.27989C6.0328 2.13455 5.31389 2.11371 4.60791 2.21834Z" fill="white"/>
<path d="M8.05486 5.3267C8.9757 5.79981 9.85136 6.35612 10.6709 6.98867C11.4537 7.48927 12.1765 8.07787 12.8253 8.74297C12.0559 9.2354 11.7481 10.5896 12.1482 11.3898C12.2427 10.9756 12.4444 10.5936 12.733 10.2818C13.2254 9.60472 13.9333 9.35851 14.4565 8.77374C14.8432 8.923 15.246 9.02629 15.6568 9.08151C16.7032 9.2354 17.7189 9.66628 18.7961 9.57395C18.5191 9.26618 18.3652 8.89685 18.0574 8.58908C17.7497 8.28131 17.4111 7.94276 17.011 7.60421C16.0877 6.83478 15.1644 5.63448 13.9333 5.29593C13.5024 5.17282 12.3944 5.3267 12.5483 5.97302C11.8924 4.90643 10.9832 4.01837 9.90148 3.38775C9.22158 2.93771 8.48733 2.57575 7.71631 2.31055C10.1477 2.43366 12.6099 2.6491 14.9489 3.29541L15.0105 3.32619C16.0569 3.51085 17.0726 3.66474 18.119 3.94173C18.7644 4.33304 19.3545 4.80921 19.8733 5.35748C20.5467 5.98272 21.2558 6.56847 21.9969 7.11178C22.9818 7.88121 23.9974 8.61986 25.29 8.65063C25.5978 8.65063 26.4904 8.65063 26.7673 8.40442C26.7931 8.37542 26.812 8.34101 26.8227 8.30371C26.8333 8.26642 26.8355 8.22721 26.8289 8.18898C26.952 8.40442 27.0443 8.77374 27.3213 8.80452C29.7527 9.14307 31.1685 10.1587 32.2765 10.8974C32.3072 10.8974 31.2916 11.5129 31.3224 11.5129C31.0454 11.7283 30.3067 11.0205 29.9374 11.0512C28.7371 11.1128 27.3829 11.2051 26.2441 10.8358C25.7091 11.6977 24.8942 12.3496 23.9359 12.6824C23.3819 12.8363 22.8894 12.5901 22.3354 12.744C22.951 12.4978 23.9051 11.8515 24.0897 11.1436C23.5357 10.9897 23.0125 10.9281 22.4893 10.5588C21.4429 9.85094 21.289 8.49675 20.3965 7.63499C20.3349 7.94276 20.5811 8.31209 20.6119 8.61986C20.6787 8.95637 20.6682 9.30365 20.5811 9.6355C20.4273 10.2203 20.181 10.7743 19.9656 11.359C19.8744 11.2507 19.7582 11.1662 19.6271 11.1128C19.6886 10.4973 19.1346 9.78939 18.4267 10.1587C17.3519 10.7251 16.4111 11.5155 15.6678 12.4765C14.9245 13.4375 14.396 14.5467 14.1179 15.7294C13.9086 16.7202 13.8361 17.735 13.9025 18.7455C13.5896 18.2411 13.3317 17.7045 13.1331 17.1451C12.7638 16.3141 12.456 15.4524 12.0867 14.5906C11.5838 13.5181 11.2019 12.3929 10.9479 11.2359C10.7583 10.3842 10.4691 9.55779 10.0861 8.77374C9.4706 7.54266 8.48574 6.52701 8.05486 5.3267Z" fill="#F4CC49"/>
<path d="M6.02344 2.064C6.11577 2.03322 6.23888 2.03322 6.36199 2.00244C6.25577 2.05001 6.1396 2.07113 6.02344 2.064Z" fill="#F06837"/>
<path d="M26.9212 9.60482C26.5126 9.47138 26.0739 9.46068 25.6593 9.57405C25.2285 9.66638 24.6129 10.0973 24.2128 10.128C23.7204 10.1588 23.2279 9.11239 22.9202 8.77384C22.4277 8.1583 21.9045 7.57353 21.4429 6.98877C21.8455 7.24867 22.28 7.45555 22.7355 7.60431C23.3818 7.91208 23.9974 8.03519 24.5821 8.49685C24.3416 8.19203 24.1352 7.86177 23.9666 7.51198C24.736 8.09675 25.7824 8.92773 26.7981 8.80462C26.8596 9.14317 26.4903 9.14317 26.2133 9.14317C26.4923 9.218 26.7402 9.37969 26.9212 9.60482Z" fill="black"/>
<path d="M20.4581 9.05038C20.2043 8.41291 19.778 7.85873 19.227 7.44997C18.9766 7.23646 18.6967 7.06023 18.396 6.92676L20.1811 7.35764C20.9197 7.41919 21.9354 8.2194 22.3047 8.92727C22.7048 9.6967 22.4894 11.3587 21.8738 12.005C21.9661 11.2356 21.9046 10.6816 21.3506 10.0352C21.0428 9.63514 20.6735 9.45048 20.4581 9.05038Z" fill="black"/>
<path d="M19.3193 11.9438C18.8268 11.4514 18.4267 11.1128 18.1805 10.4665C17.7189 9.23544 17.3187 7.91202 17.3803 7.11182C17.939 8.13071 18.6676 9.04668 19.5347 9.8202C19.8732 10.128 20.2426 10.4357 20.6119 10.7127C20.7114 11.1997 20.7732 11.6936 20.7966 12.19C20.8581 13.2672 20.5196 14.2213 20.3041 15.2985C20.5503 13.9136 20.2734 12.9595 19.3193 11.9438Z" fill="black"/>
<path d="M1.62256 5.81914C2.82287 5.57293 4.36172 5.94225 5.40814 6.58857C6.17757 7.05023 7.87031 8.31209 8.63974 9.45084C7.99342 7.17334 7.83954 5.01894 5.65436 3.51086C6.17757 3.84941 6.70078 4.21873 7.22399 4.58806C6.9367 4.21689 6.58162 3.90359 6.17757 3.66475C5.89923 3.51298 5.61137 3.37933 5.31581 3.26464C5.433 3.3294 5.54607 3.40135 5.65436 3.48008C5.53717 3.41532 5.42411 3.34337 5.31581 3.26464C4.7926 3.0492 4.26939 2.89532 3.77696 2.6491C3.91092 2.47699 4.08431 2.33961 4.2825 2.24855C4.48068 2.1575 4.69786 2.11542 4.91571 2.12589C4.85416 2.12589 4.7926 2.09511 4.70027 2.09511C6.39301 1.72579 8.27042 1.84889 9.99394 2.03356C11.1095 2.16896 12.2047 2.43761 13.2563 2.83376C13.3666 2.86648 13.4801 2.88712 13.5949 2.89532C14.7952 3.14153 16.7033 3.57241 17.5651 3.78785C18.8751 3.94898 20.1521 4.31237 21.3507 4.86505L25.721 5.84992L26.6444 7.60422C27.1368 7.81966 27.66 8.18898 28.1217 8.37364C29.045 8.74297 29.9375 9.2354 30.8608 9.60473C31.5379 9.88172 32.4305 9.9125 32.5536 10.6819C32.769 12.0053 31.3533 13.4519 30.1222 13.7904C30.1529 14.9907 28.0909 15.5447 27.1983 15.8217L27.3215 15.6986C27.2049 15.7724 27.0811 15.8343 26.9521 15.8833C27.2907 15.3908 27.383 13.6673 26.7367 13.298C26.1519 12.9902 24.5823 13.3903 24.0283 13.6673V13.6365C23.4047 14.0839 22.8633 14.6357 22.4279 15.2677C22.0893 15.8525 20.889 17.8838 21.5969 18.3454C20.4889 18.1608 20.9198 16.468 21.2584 15.7602C21.8228 14.4683 22.8411 13.4282 24.1206 12.8363C23.5169 12.8703 22.9141 12.754 22.3663 12.4978C22.9511 12.7132 23.7513 12.2823 24.2745 12.0361C24.6977 11.8343 25.0912 11.5754 25.444 11.2667C25.7518 10.9897 26.0904 10.4665 26.4289 10.2818C26.8598 10.7127 27.5677 10.4973 28.0909 10.4665C28.1217 10.805 27.8754 11.082 27.2599 10.8358C27.8203 11.166 28.4563 11.3462 29.1065 11.359C28.6141 12.19 27.5677 11.6052 26.9214 11.5745C27.3599 11.9846 27.8336 12.3553 28.3371 12.6824C27.9443 12.5679 27.5429 12.4856 27.1368 12.4362H26.829C27.249 12.7447 27.7328 12.955 28.2448 13.0518C28.3471 13.6196 28.2939 14.2045 28.0909 14.7445C28.7064 14.4675 29.3835 13.6981 29.2296 13.0518C29.6877 12.9154 30.1018 12.6606 30.4299 12.3131C29.4759 12.2516 29.2912 10.9897 29.2912 10.9897C29.876 10.8666 30.9224 10.7743 31.4764 10.5896C31.4764 10.5896 30.3992 10.0664 29.876 9.82017C29.5066 9.63551 28.8295 9.38929 28.491 9.20463C27.9986 8.95841 27.3522 8.98919 26.7982 8.86608C26.745 8.63489 26.6729 8.40844 26.5828 8.18898C26.532 8.10861 26.4698 8.03604 26.3981 7.97354C26.3674 7.97354 26.3674 7.94277 26.3366 7.91199C25.8442 7.29645 24.5515 6.09614 21.9662 5.69604L22.7664 7.17334C21.6339 5.97488 20.2145 5.08508 18.6423 4.58806C19.2578 5.35749 20.1196 6.34236 19.8426 6.31158C18.0802 4.86055 16.067 3.74443 13.9026 3.01843C14.7952 3.54164 15.5954 4.61884 15.9955 5.35749C15.503 4.74194 14.6413 4.43417 13.8411 4.18796C14.7336 4.61884 15.5954 5.72681 16.0263 6.43469C15.5338 5.78837 13.4718 4.68039 12.61 5.32671C11.9944 5.81914 12.9485 7.05023 13.441 7.29645C12.5177 6.83479 11.6559 6.21925 10.7018 5.75759C11.0404 5.91148 10.3325 4.31106 10.1786 4.15718C9.13218 2.98765 7.53177 2.52599 5.99291 2.21822C6.57345 2.51445 7.1117 2.88709 7.59332 3.3262C9.28606 4.83428 9.68616 7.14256 10.5171 9.17385C11.502 11.636 12.3022 14.96 13.1948 17.2067C13.4448 16.2751 14.0105 15.4593 14.7952 14.8984C15.4723 14.406 17.5036 14.5906 18.6731 14.96C18.6115 15.0215 18.4576 15.0831 18.3345 15.1754C17.719 15.6678 16.5802 16.2218 16.4264 16.6527C17.165 16.5911 19.4425 17.3298 19.8426 17.853C20.4889 18.7455 20.4582 18.7455 20.6736 19.8227C21.166 19.7304 22.2432 20.1305 22.6126 20.4383C22.7408 20.1544 22.9299 19.9022 23.1665 19.6996C22.9039 19.2636 22.5031 18.9278 22.0278 18.7455C22.3971 18.6224 24.1822 19.1456 24.4284 19.515C24.6746 19.8843 24.5823 20.5922 24.6438 20.9923C24.6756 21.573 24.6132 22.155 24.4592 22.7158C24.2745 22.3772 24.2437 21.8848 23.9667 21.5155C23.8774 21.9717 23.6521 22.3901 23.3204 22.7158C23.0434 22.9312 23.2897 22.8697 23.0127 22.7773C22.7445 22.6208 22.4874 22.446 22.2432 22.2541C21.3815 21.7925 20.3966 20.8384 19.381 20.8692C19.2886 20.3152 19.3194 19.7304 18.9501 19.2687C17.5651 19.1764 16.0878 20.0074 15.7185 21.3924C15.6885 21.3241 15.6468 21.2617 15.5954 21.2077C15.64 21.3036 15.6915 21.3961 15.7493 21.4847C15.6261 21.4539 15.503 21.4231 15.4107 21.3924L15.8108 21.7925C13.985 21.6789 12.2314 21.0373 10.7634 19.9458C7.43943 17.3606 6.91622 12.8056 3.96162 9.97406C5.4697 10.8974 6.42379 12.0361 7.53177 13.4519C7.99342 14.0366 8.8244 15.3293 9.71694 16.1603C9.48726 15.7732 9.28169 15.3723 9.1014 14.96C7.96265 12.3131 5.40814 5.41904 1.62256 5.81914Z" fill="black"/>
</g>
<defs>
<clipPath id="clip0_6_514">
<rect width="33.7502" height="24" fill="white" transform="translate(0.249756 0.417969)"/>
</clipPath>
</defs>
</svg>
