<svg width="231" height="119" viewBox="0 0 231 119" fill="none" xmlns="http://www.w3.org/2000/svg">
<g clip-path="url(#clip0_6_499)">
<path d="M81.4462 50.1214H97.414L98.1952 53.8712H97.9452C97.3203 52.8088 96.5182 51.9963 95.5391 51.4338C94.5809 50.8714 93.6434 50.5901 92.7268 50.5901H90.9769V68.9328C90.9769 69.287 90.9977 69.5994 91.0394 69.8703C91.0811 70.1411 91.154 70.3911 91.2581 70.6202C91.3623 70.8285 91.4873 71.0368 91.6331 71.2452C91.7998 71.4535 91.9873 71.6722 92.1956 71.9014V72.1514H86.6959V71.9014C86.9251 71.6722 87.1125 71.4535 87.2584 71.2452C87.425 71.0368 87.55 70.8285 87.6333 70.6202C87.7167 70.3911 87.7688 70.1411 87.7896 69.8703C87.8313 69.5994 87.8521 69.287 87.8521 68.9328L87.8833 50.5901H86.1334C85.2168 50.5901 84.269 50.8714 83.2899 51.4338C82.3316 51.9963 81.54 52.8088 80.915 53.8712H80.665L81.4462 50.1214ZM106.06 72.1514C106.06 72.1097 106.029 72.0055 105.966 71.8389C105.925 71.6514 105.873 71.4535 105.81 71.2452C105.748 71.0368 105.696 70.8494 105.654 70.6827C105.612 70.516 105.592 70.4327 105.592 70.4327C104.967 70.9952 104.258 71.4222 103.467 71.7139C102.675 72.0055 101.852 72.1514 100.998 72.1514C99.7689 72.1514 98.769 71.8701 97.9982 71.3077C97.2274 70.7244 96.842 69.7661 96.842 68.4328C96.842 67.3079 97.1337 66.4017 97.717 65.7142C98.3003 65.0268 99.019 64.4956 99.8731 64.1206C100.748 63.7248 101.696 63.4644 102.717 63.3394C103.737 63.2144 104.685 63.1519 105.56 63.1519C105.56 62.6728 105.55 62.1311 105.529 61.527C105.508 60.9229 105.414 60.3604 105.248 59.8396C105.102 59.298 104.842 58.8501 104.467 58.4959C104.112 58.1209 103.592 57.9335 102.904 57.9335C102.342 57.9335 101.883 58.0272 101.529 58.2147C101.175 58.4022 100.894 58.6626 100.686 58.9959C100.498 59.3084 100.363 59.6834 100.279 60.1208C100.217 60.5375 100.186 60.9958 100.186 61.4957C100.186 61.8082 100.019 62.0478 99.6856 62.2145C99.3523 62.3811 99.0607 62.4644 98.8107 62.4644C98.4565 62.4644 98.1232 62.3499 97.8107 62.1207C97.4982 61.8707 97.342 61.5582 97.342 61.1833C97.342 60.4541 97.5503 59.85 97.967 59.3709C98.3836 58.8917 98.894 58.5168 99.4981 58.2459C100.102 57.9543 100.758 57.7564 101.467 57.6522C102.175 57.5272 102.81 57.4647 103.373 57.4647C104.019 57.4647 104.654 57.5376 105.279 57.6835C105.904 57.8293 106.466 58.0689 106.966 58.4022C107.466 58.7147 107.873 59.1313 108.185 59.6521C108.518 60.1521 108.685 60.777 108.685 61.527L108.748 69.089C108.748 69.5057 108.904 69.9119 109.216 70.3077C109.529 70.7035 109.904 70.9327 110.341 70.9952V71.2452L106.06 72.1514ZM105.56 63.6831C105.414 63.6623 105.279 63.6519 105.154 63.6519C105.029 63.631 104.894 63.6206 104.748 63.6206C104.144 63.6206 103.56 63.7248 102.998 63.9331C102.435 64.1206 101.935 64.4018 101.498 64.7768C101.061 65.1309 100.706 65.5684 100.436 66.0892C100.186 66.5892 100.061 67.1517 100.061 67.7766C100.061 68.7349 100.269 69.5265 100.686 70.1515C101.102 70.7556 101.831 71.0577 102.873 71.0577C103.373 71.0577 103.842 70.9327 104.279 70.6827C104.737 70.4327 105.164 70.1515 105.56 69.839V63.6831ZM112.071 53.4337C112.071 52.8296 112.248 52.3505 112.602 51.9963C112.977 51.6213 113.467 51.4338 114.071 51.4338C114.675 51.4338 115.154 51.6213 115.508 51.9963C115.883 52.3505 116.071 52.8296 116.071 53.4337C116.071 54.0379 115.883 54.5274 115.508 54.9024C115.154 55.2774 114.675 55.4649 114.071 55.4649C113.467 55.4649 112.977 55.2774 112.602 54.9024C112.248 54.5274 112.071 54.0379 112.071 53.4337ZM115.852 57.4647V68.9328C115.852 69.287 115.873 69.5994 115.915 69.8703C115.956 70.1411 116.029 70.3911 116.133 70.6202C116.238 70.8285 116.363 71.0368 116.508 71.2452C116.675 71.4535 116.862 71.6722 117.071 71.9014V72.1514H111.571V71.9014C111.8 71.6722 111.988 71.4535 112.134 71.2452C112.3 71.0368 112.425 70.8285 112.509 70.6202C112.592 70.3911 112.644 70.1411 112.665 69.8703C112.706 69.5994 112.727 69.287 112.727 68.9328V61.3083C112.727 60.5791 112.623 60.0063 112.415 59.5896C112.207 59.173 111.832 58.7563 111.29 58.3397V58.0897L115.852 57.4647ZM120.387 72.1514V53.34C120.387 52.6109 120.283 52.038 120.074 51.6213C119.866 51.2047 119.491 50.788 118.949 50.3714V50.1214L123.512 49.4965V58.1834C123.991 57.9543 124.501 57.7772 125.043 57.6522C125.584 57.5272 126.157 57.4647 126.761 57.4647C127.866 57.4647 128.865 57.6418 129.761 57.996C130.678 58.3501 131.449 58.8501 132.074 59.4959C132.719 60.1208 133.219 60.8916 133.574 61.8082C133.928 62.704 134.105 63.7039 134.105 64.8081C134.105 65.9122 133.928 66.9225 133.574 67.8391C133.219 68.7349 132.719 69.5057 132.074 70.1515C131.449 70.7764 130.678 71.266 129.761 71.6201C128.865 71.9743 127.866 72.1514 126.761 72.1514C124.991 72.1514 123.491 71.7139 122.262 70.8389L120.387 72.1514ZM126.761 57.9335C126.095 57.9335 125.48 58.1105 124.918 58.4647C124.376 58.798 123.907 59.2667 123.512 59.8708V69.6515C123.907 70.2765 124.366 70.7764 124.887 71.1514C125.428 71.5056 126.053 71.6826 126.761 71.6826C127.366 71.6826 127.918 71.516 128.418 71.1827C128.918 70.8494 129.345 70.3911 129.699 69.8078C130.053 69.2036 130.324 68.4745 130.511 67.6204C130.72 66.7663 130.824 65.8288 130.824 64.8081C130.824 63.7664 130.72 62.829 130.511 61.9957C130.324 61.1416 130.053 60.4229 129.699 59.8396C129.345 59.2355 128.918 58.7667 128.418 58.4334C127.918 58.1001 127.366 57.9335 126.761 57.9335ZM144.602 72.1514C144.602 72.1097 144.57 72.0055 144.508 71.8389C144.466 71.6514 144.414 71.4535 144.352 71.2452C144.289 71.0368 144.237 70.8494 144.195 70.6827C144.154 70.516 144.133 70.4327 144.133 70.4327C143.508 70.9952 142.8 71.4222 142.008 71.7139C141.216 72.0055 140.394 72.1514 139.539 72.1514C138.31 72.1514 137.31 71.8701 136.54 71.3077C135.769 70.7244 135.383 69.7661 135.383 68.4328C135.383 67.3079 135.675 66.4017 136.258 65.7142C136.842 65.0268 137.56 64.4956 138.415 64.1206C139.289 63.7248 140.237 63.4644 141.258 63.3394C142.279 63.2144 143.227 63.1519 144.102 63.1519C144.102 62.6728 144.091 62.1311 144.07 61.527C144.05 60.9229 143.956 60.3604 143.789 59.8396C143.643 59.298 143.383 58.8501 143.008 58.4959C142.654 58.1209 142.133 57.9335 141.446 57.9335C140.883 57.9335 140.425 58.0272 140.071 58.2147C139.717 58.4022 139.435 58.6626 139.227 58.9959C139.039 59.3084 138.904 59.6834 138.821 60.1208C138.758 60.5375 138.727 60.9958 138.727 61.4957C138.727 61.8082 138.56 62.0478 138.227 62.2145C137.894 62.3811 137.602 62.4644 137.352 62.4644C136.998 62.4644 136.665 62.3499 136.352 62.1207C136.04 61.8707 135.883 61.5582 135.883 61.1833C135.883 60.4541 136.092 59.85 136.508 59.3709C136.925 58.8917 137.435 58.5168 138.04 58.2459C138.644 57.9543 139.3 57.7564 140.008 57.6522C140.716 57.5272 141.352 57.4647 141.914 57.4647C142.56 57.4647 143.195 57.5376 143.82 57.6835C144.445 57.8293 145.008 58.0689 145.508 58.4022C146.008 58.7147 146.414 59.1313 146.727 59.6521C147.06 60.1521 147.227 60.777 147.227 61.527L147.289 69.089C147.289 69.5057 147.445 69.9119 147.758 70.3077C148.07 70.7035 148.445 70.9327 148.883 70.9952V71.2452L144.602 72.1514ZM144.102 63.6831C143.956 63.6623 143.82 63.6519 143.695 63.6519C143.57 63.631 143.435 63.6206 143.289 63.6206C142.685 63.6206 142.102 63.7248 141.539 63.9331C140.977 64.1206 140.477 64.4018 140.039 64.7768C139.602 65.1309 139.248 65.5684 138.977 66.0892C138.727 66.5892 138.602 67.1517 138.602 67.7766C138.602 68.7349 138.81 69.5265 139.227 70.1515C139.644 70.7556 140.373 71.0577 141.414 71.0577C141.914 71.0577 142.383 70.9327 142.821 70.6827C143.279 70.4327 143.706 70.1515 144.102 69.839V63.6831ZM154.928 50.1214H170.896L171.677 53.8712H171.427C170.802 52.8088 170 51.9963 169.021 51.4338C168.063 50.8714 167.125 50.5901 166.209 50.5901H164.459V68.9328C164.459 69.287 164.48 69.5994 164.521 69.8703C164.563 70.1411 164.636 70.3911 164.74 70.6202C164.844 70.8285 164.969 71.0368 165.115 71.2452C165.282 71.4535 165.469 71.6722 165.678 71.9014V72.1514H160.178V71.9014C160.407 71.6722 160.595 71.4535 160.74 71.2452C160.907 71.0368 161.032 70.8285 161.115 70.6202C161.199 70.3911 161.251 70.1411 161.272 69.8703C161.313 69.5994 161.334 69.287 161.334 68.9328L161.365 50.5901H159.615C158.699 50.5901 157.751 50.8714 156.772 51.4338C155.814 51.9963 155.022 52.8088 154.397 53.8712H154.147L154.928 50.1214ZM170.029 64.8081C170.029 63.7039 170.206 62.704 170.56 61.8082C170.914 60.8916 171.404 60.1208 172.029 59.4959C172.675 58.8501 173.446 58.3501 174.341 57.996C175.258 57.6418 176.268 57.4647 177.372 57.4647C178.477 57.4647 179.476 57.6418 180.372 57.996C181.289 58.3501 182.06 58.8501 182.685 59.4959C183.33 60.1208 183.83 60.8916 184.185 61.8082C184.539 62.704 184.716 63.7039 184.716 64.8081C184.716 65.9122 184.539 66.9225 184.185 67.8391C183.83 68.7349 183.33 69.5057 182.685 70.1515C182.06 70.7764 181.289 71.266 180.372 71.6201C179.476 71.9743 178.477 72.1514 177.372 72.1514C176.268 72.1514 175.258 71.9743 174.341 71.6201C173.446 71.266 172.675 70.7764 172.029 70.1515C171.404 69.5057 170.914 68.7349 170.56 67.8391C170.206 66.9225 170.029 65.9122 170.029 64.8081ZM173.279 64.8081C173.279 65.8288 173.373 66.7663 173.56 67.6204C173.768 68.4745 174.05 69.2036 174.404 69.8078C174.758 70.3911 175.185 70.8494 175.685 71.1827C176.185 71.516 176.747 71.6826 177.372 71.6826C177.977 71.6826 178.529 71.516 179.029 71.1827C179.529 70.8494 179.956 70.3911 180.31 69.8078C180.664 69.2036 180.935 68.4745 181.122 67.6204C181.331 66.7663 181.435 65.8288 181.435 64.8081C181.435 63.7664 181.331 62.829 181.122 61.9957C180.935 61.1416 180.664 60.4229 180.31 59.8396C179.956 59.2355 179.529 58.7667 179.029 58.4334C178.529 58.1001 177.977 57.9335 177.372 57.9335C176.747 57.9335 176.185 58.1001 175.685 58.4334C175.185 58.7667 174.758 59.2355 174.404 59.8396C174.05 60.4229 173.768 61.1416 173.56 61.9957C173.373 62.829 173.279 63.7664 173.279 64.8081ZM197.263 61.3083C197.263 60.5791 197.159 60.0063 196.95 59.5896C196.742 59.173 196.367 58.7563 195.825 58.3397V58.0897L200.388 57.4647L200.419 68.3078C200.419 69.037 200.523 69.6099 200.731 70.0265C200.94 70.4431 201.315 70.8598 201.856 71.2764V71.5264L197.294 72.1514V68.6828C196.961 69.1828 196.565 69.6828 196.107 70.1827C195.648 70.6827 195.148 71.1098 194.607 71.4639C194.253 71.6931 193.846 71.8701 193.388 71.9951C192.951 72.0993 192.492 72.1514 192.013 72.1514C191.534 72.1514 191.065 72.0993 190.607 71.9951C190.17 71.8701 189.763 71.6931 189.388 71.4639C188.972 71.2139 188.618 70.8598 188.326 70.4015C188.055 69.9223 187.92 69.287 187.92 68.4953L187.857 61.3083C187.857 60.5791 187.753 60.0063 187.545 59.5896C187.336 59.173 186.961 58.7563 186.42 58.3397V58.0897L190.982 57.4647L191.044 67.8704C191.044 68.5995 191.253 69.2245 191.669 69.7453C192.107 70.2452 192.659 70.4952 193.326 70.4952C194.284 70.4952 195.075 70.2348 195.7 69.714C196.325 69.1724 196.857 68.537 197.294 67.8079L197.263 61.3083ZM203.722 58.0897L208.284 57.4647V61.277C208.639 60.6937 209.055 60.1 209.534 59.4959C210.034 58.8917 210.628 58.4126 211.315 58.0584C212.065 57.6626 212.878 57.4647 213.753 57.4647C214.294 57.4647 214.784 57.5272 215.222 57.6522C215.68 57.7564 216.086 58.0168 216.44 58.4334C216.815 58.8709 216.961 59.3084 216.878 59.7458C216.794 60.1833 216.586 60.5271 216.253 60.777C215.919 61.027 215.524 61.1416 215.065 61.1208C214.607 61.0791 214.19 60.8083 213.815 60.3083C213.732 60.2042 213.628 60.0792 213.503 59.9333C213.399 59.7875 213.263 59.6625 213.097 59.5584C212.93 59.4334 212.722 59.3292 212.472 59.2459C212.243 59.1626 211.972 59.1313 211.659 59.1521C211.326 59.173 210.993 59.2771 210.659 59.4646C210.347 59.6521 210.045 59.9021 209.753 60.2146C209.482 60.5271 209.222 60.8916 208.972 61.3083C208.722 61.7041 208.493 62.1207 208.284 62.5582V68.9328C208.284 69.287 208.305 69.5994 208.347 69.8703C208.389 70.1411 208.461 70.3911 208.566 70.6202C208.67 70.8285 208.795 71.0368 208.941 71.2452C209.107 71.4535 209.295 71.6722 209.503 71.9014V72.1514H204.003V71.9014C204.233 71.6722 204.42 71.4535 204.566 71.2452C204.733 71.0368 204.858 70.8285 204.941 70.6202C205.024 70.3911 205.076 70.1411 205.097 69.8703C205.139 69.5994 205.16 69.287 205.16 68.9328V61.3083C205.16 60.5791 205.055 60.0063 204.847 59.5896C204.639 59.173 204.264 58.7563 203.722 58.3397V58.0897ZM223.511 57.4647C224.302 57.4647 225.104 57.5272 225.917 57.6522C226.729 57.7772 227.49 57.8605 228.198 57.9022L228.667 61.402H228.448C227.844 60.2771 227.156 59.423 226.385 58.8397C225.615 58.2355 224.656 57.9335 223.511 57.9335C222.761 57.9335 222.104 58.1314 221.542 58.5272C221 58.9021 220.709 59.4959 220.667 60.3083C220.646 60.7458 220.709 61.0999 220.854 61.3708C221 61.6416 221.188 61.8603 221.417 62.027C221.646 62.1728 221.886 62.2874 222.136 62.3707C222.386 62.454 222.615 62.5165 222.823 62.5582C223.573 62.7457 224.333 62.9436 225.104 63.1519C225.875 63.3602 226.583 63.6519 227.229 64.0268C227.875 64.381 228.396 64.8601 228.792 65.4643C229.208 66.0476 229.416 66.8079 229.416 67.7454C229.416 68.5995 229.219 69.3078 228.823 69.8703C228.427 70.4327 227.917 70.891 227.292 71.2452C226.667 71.5785 225.969 71.8181 225.198 71.9639C224.427 72.0889 223.677 72.1514 222.948 72.1514C222.573 72.1514 222.146 72.0993 221.667 71.9951C221.188 71.891 220.729 71.7764 220.292 71.6514C219.855 71.5264 219.459 71.4014 219.105 71.2764C218.771 71.1514 218.553 71.0785 218.448 71.0577H218.136L217.698 67.1517H217.948C218.511 68.5474 219.177 69.6515 219.948 70.464C220.719 71.2764 221.729 71.6826 222.979 71.6826C223.417 71.6826 223.854 71.641 224.292 71.5577C224.729 71.4535 225.115 71.2973 225.448 71.0889C225.802 70.8598 226.083 70.5785 226.292 70.2452C226.521 69.8911 226.635 69.4744 226.635 68.9953C226.635 68.3912 226.5 67.9016 226.229 67.5266C225.979 67.1517 225.635 66.8496 225.198 66.6204C224.781 66.3913 224.292 66.2038 223.729 66.058C223.188 65.8913 222.625 65.7247 222.042 65.558C220.396 65.0997 219.261 64.5685 218.636 63.9644C218.011 63.3394 217.698 62.5686 217.698 61.652C217.698 60.8604 217.875 60.2042 218.23 59.6834C218.584 59.1417 219.042 58.7042 219.605 58.3709C220.167 58.0376 220.792 57.8085 221.479 57.6835C222.167 57.5376 222.844 57.4647 223.511 57.4647Z" fill="white"/>
<path d="M65.9888 75.3008L66.1207 75.037V74.1579C65.5932 73.8942 65.0657 73.6744 64.5382 73.4546V42.5095L66.2086 39.2568L67.5712 38.6414V38.026C67.3075 37.9821 67.1756 37.9381 67.1756 37.9381C67.1756 36.3997 67.1756 35.6085 67.1756 35.6085C65.0657 35.037 64.0108 34.7293 64.0108 34.7293V29.6304C64.3624 29.5865 64.7141 29.3227 64.8459 28.9711C64.8459 28.4876 64.8459 28.2238 64.8459 28.2238C63.791 27.3887 62.4283 26.8172 61.0657 26.6854V25.8942C62.78 22.026 59.7031 20.9711 59.2635 19.5645C59.2196 18.9052 58.9119 18.7293 58.9558 18.1139C59.1756 18.07 59.1756 17.7183 58.9558 17.7183V17.5425C59.2635 17.4106 59.4393 17.103 59.3954 16.7953C59.3514 16.4876 59.1316 16.2238 58.8679 16.1359C58.8679 15.8722 58.8679 15.7403 58.8679 15.7403C59.747 15.1249 58.824 14.2898 58.824 14.026C58.824 13.7183 58.824 13.5865 58.824 13.5865C58.9558 13.4546 59.0877 13.2788 59.0877 13.103C59.0877 12.9271 58.9998 12.7073 58.824 12.6194C58.9558 12.5755 59.0877 12.5315 59.1756 12.4436C59.4833 12.1799 59.5272 11.7403 59.2635 11.3887C59.3514 11.6524 59.2635 11.9601 59.0437 12.092C58.824 12.2678 58.5163 12.2678 58.2965 12.092C58.4283 12.1799 58.5602 12.2238 58.6921 12.2238C58.736 12.2238 58.736 12.2238 58.78 12.2238C58.9998 12.2238 59.1756 12.092 59.3075 11.8722C59.1756 12.1799 58.78 12.3557 58.4723 12.2238C58.1207 12.092 57.9448 11.7403 58.0327 11.4326C57.9009 11.6524 57.9009 11.9161 58.0327 12.1799C58.1646 12.4436 58.4284 12.6194 58.6921 12.6194C58.6481 12.6194 58.5602 12.6194 58.5163 12.6194C58.3844 12.7513 58.2965 12.9271 58.2965 13.103C58.2965 13.2788 58.3844 13.4986 58.5602 13.5865C58.5602 13.5865 58.5602 13.7183 58.5602 14.026C58.5602 14.2898 57.6371 15.1249 58.5163 15.7403V16.092H58.5602C58.6042 16.092 58.6921 16.092 58.736 16.092C58.3844 16.1359 58.1207 16.3557 58.0327 16.7074C57.9448 17.059 58.1207 17.3667 58.4283 17.5425L58.4723 17.4106C58.4723 17.4106 58.4723 17.4986 58.4723 17.7183C58.5163 17.7183 58.6042 17.7183 58.6481 17.7623C58.1207 17.7183 58.2525 18.1579 58.4283 18.1579L58.4723 18.026C58.5602 18.8172 58.2086 18.9491 58.2525 19.5205C58.3404 19.5205 58.3844 19.5205 58.5602 19.5205C58.2965 19.5645 58.1646 19.6084 58.1207 19.6964C57.9009 20.2678 57.2415 20.8392 56.8459 21.3227C56.2745 22.026 55.9228 22.9051 55.8789 23.7843C55.9228 23.2128 56.1426 22.6414 56.4943 22.1579C55.791 23.3447 55.791 24.7953 56.4943 25.9821V26.5095C57.1976 26.4656 57.9009 26.5095 58.6042 26.6854C57.813 26.5975 57.0657 26.5975 56.3185 26.7293C56.2305 26.7293 56.0987 26.7733 56.0108 26.7733C54.8679 26.9931 53.769 27.4326 52.802 28.092C52.802 28.092 52.5382 29.059 53.4174 29.4986C53.4174 29.4986 53.4613 29.3227 53.5932 29.059C53.5932 29.059 53.5932 30.8612 53.6371 34.4216C53.6371 34.4216 54.5602 34.2019 56.4503 33.9381L50.4283 35.5645V37.6744C50.4283 37.6744 51.3954 37.5865 53.2855 37.3667C53.2855 37.3667 52.1426 37.5865 49.9009 37.9821V38.5975L50.1207 39.2128L52.4503 42.026L52.8899 40.3997V57.9821C53.9009 59.1249 54.78 60.4436 55.3075 61.8502C56.2745 64.4436 56.0987 67.037 55.0437 69.4986V70.9931C55.0437 71.037 55.9668 71.4766 56.0547 71.5205C57.0657 72.1359 58.0327 72.9271 58.3844 74.1579C58.5602 74.8172 58.4283 75.4326 58.4283 76.048C58.4283 76.8392 58.6042 77.4546 58.824 78.2018C59.5272 78.2898 60.1426 78.4656 60.6262 78.9931C61.0657 79.4326 61.2855 80.048 61.2855 80.7073V97.9821C61.2855 98.1139 61.2855 98.2458 61.2415 98.3777C61.5053 98.3777 61.769 98.3337 62.0327 98.3337C62.1206 98.3337 62.2086 98.3337 62.2965 98.2898V79.6524C62.2965 78.8612 62.9558 78.2458 63.7031 78.2458C64.4943 78.2458 65.1097 78.8612 65.1097 79.6524V97.9381C65.6371 97.8502 66.2086 97.7623 66.736 97.6304V78.1579C67.3075 78.07 67.747 77.7183 67.9668 77.1909C67.9668 76.4436 67.9668 76.092 67.9668 76.092L65.9888 75.3008ZM56.3624 32.7953C56.3624 33.2788 55.9668 33.6744 55.4833 33.6744C54.9998 33.6744 54.6042 33.2788 54.6042 32.7953V29.8502C54.6042 29.3667 54.9998 28.9711 55.4833 28.9711C55.9668 28.9711 56.3624 29.3667 56.3624 29.8502V32.7953ZM60.1426 32.092C60.1426 32.9711 59.4393 33.6744 58.5602 33.6744C57.6811 33.6744 56.9778 32.9711 56.9778 32.092V30.5096C56.9778 29.6304 57.6811 28.9271 58.5602 28.9271C59.4393 28.9271 60.1426 29.6304 60.1426 30.5096V32.092ZM62.6042 32.7953C62.6042 33.2788 62.2086 33.6744 61.7251 33.6744C61.2415 33.6744 60.8459 33.2788 60.8459 32.7953V29.8502C60.8459 29.3667 61.2415 28.9711 61.7251 28.9711C62.2086 28.9711 62.6042 29.3667 62.6042 29.8502V32.7953Z" fill="white"/>
<path d="M35.0877 39.301C35.7031 39.9164 36.4943 40.3559 37.3294 40.5757C37.2415 40.6636 37.1536 40.7516 37.0657 40.8834C36.9338 41.0592 36.8459 41.279 36.802 41.4988C36.758 41.6746 36.758 41.8944 36.802 42.0702C36.8899 42.6417 37.2855 43.1691 37.8129 43.3889C37.8129 43.3889 37.8129 43.301 37.8569 43.1691V43.8285C37.8569 43.8285 37.9888 43.8285 38.2965 43.8285C37.725 43.8724 37.4613 44.0043 37.4173 44.268C37.3734 44.4878 37.5053 44.7515 37.725 44.7955C37.769 44.7076 37.769 44.5318 37.8569 44.3559C37.8569 44.7076 37.8569 45.0153 37.8129 45.3669C37.8129 45.4548 37.8129 45.5428 37.769 45.6307C37.5492 46.8614 36.6261 46.8614 36.802 48.4439C37.0657 48.2241 37.2855 47.9603 37.5053 47.6966C37.1536 48.2241 36.802 48.7515 36.4064 49.279C36.2305 49.4988 36.0547 49.7186 35.8349 49.9384C34.0767 51.7845 30.6481 53.7625 27.747 56.2241C24.0547 59.5208 22.5602 64.7076 24.0547 69.4988V71.257C26.6042 70.8175 29.1976 70.6856 31.791 70.8614C25.3734 71.1252 21.4173 72.268 19.9668 74.2021C19.9668 74.2021 19.9668 74.9493 19.9668 76.4438C20.3184 77.323 21.0217 77.9823 21.9009 78.2461L22.4723 76.312V78.3779V81.6746C23.4833 82.9493 24.5822 84.1362 25.725 85.279C25.9009 85.4548 26.1206 85.6746 26.3404 85.8504V79.301C26.3404 77.6746 27.5712 76.3999 29.0657 76.3999C30.5602 76.3999 31.791 77.7186 31.791 79.301V90.334C32.4503 90.7735 33.1096 91.2131 33.769 91.6527V84.1362V81.5867C33.769 78.7735 35.9228 76.4438 38.5602 76.4438C41.1976 76.4438 43.3514 78.7735 43.3514 81.5867V84.1362V95.1252C43.3514 95.4768 43.3075 95.8285 43.2635 96.1362C43.8349 96.312 44.3624 96.4878 44.9338 96.6636C45.0657 96.7076 45.1976 96.7516 45.3294 96.7955V79.345C45.3294 77.7186 46.5602 76.4438 48.0547 76.4438C49.5492 76.4438 50.78 77.7625 50.78 79.345V97.323C50.78 97.5427 50.736 97.7625 50.736 97.9384C51.3075 98.0263 51.9228 98.1142 52.4943 98.1581C53.1976 98.2461 53.9009 98.29 54.6041 98.334C54.6041 98.334 54.6042 98.334 54.6481 98.334V78.3779C54.6481 78.4219 55.6591 78.0702 55.747 78.0263C56.0987 77.8505 56.4064 77.5867 56.6701 77.279C57.0217 76.8834 57.1536 76.3999 57.1976 75.8724C57.2415 75.3889 57.2855 74.7296 57.1976 74.246C57.0657 73.6307 56.2305 73.0153 55.791 72.6636C55.4833 72.4439 55.1756 72.2241 54.8679 72.0922C54.78 72.0483 53.8569 71.6966 53.8569 71.6526V69.279C58.78 58.0702 42.5162 53.1472 40.3624 48.5318C40.6261 46.5098 39.1756 46.9054 39.3514 44.7515C39.8789 44.6636 39.8789 43.8724 39.3514 43.7845V43.3449C39.3514 43.3449 39.3514 43.3449 39.3954 43.3449C40.0547 43.0373 40.4943 42.334 40.4064 41.5867C40.3624 41.323 40.2745 41.0592 40.1426 40.7955C40.0987 40.7076 40.0107 40.6197 39.9228 40.5318C40.2305 40.4439 40.5382 40.3559 40.8459 40.1801C42.6481 39.301 43.791 37.4548 43.747 35.4768C43.3075 37.6746 41.1976 39.1691 38.9558 38.8175C36.714 38.4658 35.1756 36.3999 35.4393 34.1581C35.3514 36.0043 36.4503 37.6746 38.2086 38.29C39.5712 38.7735 41.0217 38.5098 42.1206 37.6746C41.4613 38.1581 40.6701 38.4219 39.791 38.4219C37.5932 38.4219 35.8349 36.6636 35.8349 34.4658C35.8349 32.4878 37.2855 30.8175 39.2195 30.5537C37.1096 30.334 35.0437 31.4768 34.1206 33.4109C33.1976 35.4768 33.5932 37.8065 35.0877 39.301Z" fill="#C99565"/>
<path d="M79.1313 95.6086C77.9445 96.2239 76.7137 96.7514 75.483 97.2349C75.1313 97.3668 74.8236 97.4986 74.472 97.6305C72.3181 98.4657 70.1203 99.0811 67.8346 99.6085C67.3951 99.6964 66.9555 99.7844 66.5159 99.8723C65.7687 100.004 65.0214 100.136 64.2742 100.268C63.8346 100.312 63.439 100.4 62.9995 100.444C62.6478 100.488 62.3401 100.532 61.9885 100.532C61.3731 100.576 60.7577 100.62 60.0984 100.663C59.5709 100.707 58.9995 100.707 58.472 100.707C56.4061 100.751 54.3401 100.663 52.2742 100.4C51.2632 100.268 50.2962 100.136 49.2852 99.9602C49.0654 99.9162 48.8017 99.8723 48.5819 99.8283C48.494 99.8283 48.4061 99.7844 48.3181 99.7844C47.7907 99.6965 47.3072 99.5646 46.7797 99.4327C46.5159 99.3888 46.2522 99.3008 46.0324 99.2569C45.461 99.125 44.8896 98.9492 44.3181 98.7734C43.7028 98.5976 43.0434 98.3778 42.428 98.158C42.2083 98.0701 41.9885 98.0261 41.8126 97.9382C41.6368 97.8943 41.505 97.8063 41.3291 97.7624C40.1423 97.3228 38.9555 96.8393 37.7687 96.3118C37.7687 96.3118 37.7247 96.3118 37.7247 96.2679C37.2412 96.0481 36.7577 95.7844 36.2742 95.5646C35.439 95.125 34.6039 94.6855 33.8126 94.2459C33.1533 93.8503 32.494 93.4547 31.8346 93.0151C31.3511 92.7074 30.8676 92.3558 30.3841 92.0481C29.5929 91.4767 28.8017 90.9052 28.0104 90.2898C27.7028 90.0701 27.439 89.8063 27.1753 89.5866C27.0434 89.4547 26.8676 89.3228 26.7357 89.2349C26.6039 89.147 26.5159 89.0151 26.3841 88.9272C25.6368 88.2679 24.9335 87.6086 24.2302 86.9053C23.6588 86.3338 23.0874 85.7624 22.5599 85.147C21.461 83.9162 20.406 82.6415 19.439 81.3668C19.3511 81.2349 19.2632 81.1031 19.1313 80.9712C19.0434 80.8393 18.9115 80.7075 18.8236 80.5316C17.417 78.5536 16.1863 76.4437 15.0874 74.2459C14.6478 73.3668 14.2522 72.4877 13.9006 71.6085V71.6525L13.8126 71.3888C13.505 70.6415 13.2412 69.8943 12.9775 69.147C12.7137 68.3558 12.45 67.5646 12.1863 66.7734C11.483 64.3558 10.9555 61.8943 10.6039 59.3888C10.5599 59.0811 10.5159 58.7294 10.472 58.4217C10.1643 55.8283 10.1203 53.191 10.2522 50.5975C10.2962 50.0261 10.3401 49.4987 10.3841 48.9272C10.5599 46.7734 10.9115 44.6195 11.439 42.4657C11.8346 40.8393 12.2742 39.2129 12.8456 37.6305C13.1533 36.7074 13.505 35.8283 13.9006 34.9492C14.1203 34.3778 14.3841 33.8063 14.6478 33.2789C14.8676 32.8393 15.0434 32.4437 15.2632 32.0041C15.9665 30.5976 16.7137 29.2789 17.505 27.9602C18.9115 25.7184 20.494 23.6085 22.2082 21.6745C22.2522 21.6305 22.2962 21.5866 22.3401 21.4987C22.5159 21.3228 22.6478 21.147 22.8236 20.9712C23.3072 20.4437 23.8346 19.9162 24.3621 19.3888C24.45 19.8283 24.5379 20.2679 24.6258 20.7074C24.6698 20.6635 24.8017 20.6195 24.8896 20.5316C24.9775 20.0481 25.1973 19.3009 25.2852 18.8173C25.3731 18.7734 25.5049 18.6855 25.5929 18.6855C26.0764 18.4657 26.5599 18.2459 27.0434 17.9822C27.483 17.7184 27.9225 17.4987 28.4061 17.2349C28.7577 17.0151 29.1094 16.8393 29.505 16.6195C29.5929 16.5756 29.7247 16.4877 29.8566 16.4437C30.1643 18.4217 30.472 20.3558 30.7797 22.3338C30.8236 22.2899 30.9115 22.2459 30.9555 22.2459C30.9995 22.2019 31.1313 22.158 31.2632 22.0701C31.2632 21.9382 31.3071 21.6745 31.3071 21.6745C31.3511 21.103 31.439 20.5756 31.483 20.0042C31.483 19.9602 31.5269 19.9162 31.5709 19.8723C31.7028 19.7844 31.8346 19.6965 31.9665 19.6085C32.0544 19.5646 32.0984 19.4767 32.0544 19.3888C32.0105 19.3008 31.9665 19.2129 31.9225 19.125C31.8786 19.0371 31.7907 19.0371 31.7028 19.0811C31.6588 19.0811 31.6588 19.125 31.6148 19.169C31.6148 19.125 31.6148 19.125 31.6148 19.0811C31.6588 18.5096 31.7467 17.9822 31.7907 17.4107C31.7907 17.3228 31.8346 17.3228 31.8786 17.2789C32.0544 17.191 32.2302 17.0591 32.406 16.9272C32.494 16.8833 32.5379 16.7514 32.494 16.6635C32.45 16.5756 32.4061 16.5316 32.3621 16.4437C32.3181 16.3558 32.2302 16.3118 32.0984 16.3998C32.0104 16.4437 31.9665 16.4877 31.8786 16.5316C31.8786 16.4877 31.8786 16.4877 31.8786 16.4437C31.9665 16.0481 32.0544 15.5206 32.0984 15.125C32.5379 14.8613 33.0654 14.5096 33.505 14.2459C33.7247 14.114 33.9006 13.9822 34.1203 13.7624C34.428 13.4547 34.7357 13.147 34.9995 12.7514C35.0874 12.6635 35.1313 12.5316 35.1313 12.4437C35.1313 12.3118 35.1313 12.2679 34.9995 12.2239C34.9555 12.18 34.8676 12.18 34.8236 12.18C34.6478 12.18 34.428 12.2239 34.2522 12.2679C33.7247 12.3998 33.1973 12.5316 32.7137 12.8393C32.2742 13.103 31.7467 13.4107 31.2632 13.7184C30.8676 13.5866 30.428 13.3668 30.0324 13.2349L30.0764 13.191C30.1203 13.147 30.2083 13.103 30.2522 13.103C30.3401 13.0151 30.3841 12.9712 30.3401 12.8393C30.2962 12.7954 30.2522 12.7074 30.2522 12.6635C30.1643 12.5316 30.0764 12.4877 29.9445 12.5756C29.7687 12.6635 29.5929 12.7954 29.417 12.8833C29.3731 12.9272 29.3291 12.9272 29.2852 12.8833L27.9225 12.2679C27.8786 12.2239 27.8346 12.2239 27.7907 12.18C27.8346 12.18 27.8346 12.136 27.8786 12.136C28.0104 12.0481 28.0104 11.9602 27.9665 11.8723C27.9225 11.8283 27.8786 11.7404 27.8786 11.6965C27.7907 11.5646 27.7028 11.5646 27.6148 11.6085C27.483 11.6965 27.3511 11.7844 27.2192 11.8723C27.1753 11.9162 27.1313 11.9162 27.0874 11.8723C26.5159 11.6085 25.8126 11.3008 25.2412 11.0371C25.1094 11.125 24.9335 11.2569 24.8017 11.3448C26.2522 12.6195 27.7028 13.8503 29.1533 15.125C28.9775 15.2569 28.8017 15.3888 28.6258 15.4767C28.1863 15.7844 27.7467 16.0921 27.3072 16.3558C26.9115 16.6195 26.5159 16.8833 26.1203 17.191C25.7687 17.4547 25.2412 17.8063 24.8896 18.0701C24.45 17.9382 23.8346 17.6745 23.439 17.5426C23.3071 17.6305 23.1753 17.7184 23.0874 17.7624C23.439 18.114 23.7907 18.4657 24.1423 18.8173C23.483 19.2129 22.8236 19.6085 22.1643 20.0481C21.7687 20.3118 21.3731 20.5756 20.9775 20.8393C18.8236 22.3338 16.7577 24.0042 14.8676 25.8943C14.6918 26.0701 14.5159 26.2459 14.3401 26.4217C13.6808 27.0811 13.0214 27.7844 12.3621 28.5316C11.2192 29.8503 10.1203 31.2129 9.10935 32.6635C8.66979 33.3228 8.23023 33.9822 7.79067 34.6855C6.82363 36.2239 5.94451 37.8063 5.1533 39.5206C5.10935 39.6525 5.02144 39.7844 4.97748 39.9162C4.23023 41.4987 3.61485 43.125 3.04342 44.7074C2.82364 45.4107 2.5599 46.158 2.38408 46.8613C1.98847 48.2679 1.63683 49.6745 1.37309 51.125C1.15331 52.3558 0.977486 53.5866 0.845618 54.8173C0.801662 55.2129 0.7577 55.5646 0.7577 55.9602C0.53792 58.4657 0.537924 60.9712 0.713748 63.4327C0.757704 64.0921 0.845614 64.7514 0.88957 65.4107C1.19726 67.9602 1.68078 70.4217 2.38408 72.8833C2.47199 73.191 2.5599 73.4547 2.64781 73.7624C2.91155 74.6415 3.21924 75.5646 3.52693 76.4437C4.14232 78.0701 4.80166 79.6525 5.59286 81.2349C5.98847 82.0701 6.42803 82.8613 6.91155 83.6964C7.74671 85.147 8.66979 86.5536 9.63683 87.9162C10.5599 89.191 11.5709 90.4217 12.6258 91.6085C13.2852 92.3558 14.0324 93.1031 14.7357 93.8503C16.494 95.5646 18.3841 97.147 20.4061 98.5976C20.5819 98.7294 20.7577 98.8613 20.9335 98.9932C20.9775 99.0371 21.0214 99.0371 21.0654 99.0811C21.1973 99.169 21.3291 99.2569 21.417 99.3448C21.8126 99.6086 22.2082 99.8723 22.6478 100.136C24.3621 101.235 26.1643 102.202 28.0984 103.081C28.2302 103.125 28.3181 103.169 28.45 103.213C28.7137 103.345 29.0214 103.477 29.2852 103.565C31.6588 104.576 34.0764 105.411 36.494 106.026C36.7577 106.114 37.0654 106.158 37.3291 106.202C37.417 106.202 37.461 106.246 37.5489 106.246C40.0984 106.817 42.6918 107.213 45.2412 107.345C46.6039 107.433 47.9665 107.433 49.3731 107.389C50.6039 107.345 51.8346 107.257 53.0654 107.125C54.2522 106.993 55.439 106.817 56.6258 106.598C58.0324 106.334 59.3951 106.026 60.7577 105.631C62.7357 105.059 64.6698 104.4 66.6039 103.609C66.9995 103.433 67.3951 103.257 67.7907 103.081C67.9665 102.993 68.1863 102.905 68.3621 102.817C68.9775 102.51 69.5928 102.246 70.1643 101.894C70.5599 101.674 70.9115 101.499 71.3071 101.279C72.8456 100.4 74.3401 99.4767 75.7907 98.4217C75.8786 98.3778 75.9665 98.2899 76.0544 98.2459C77.2412 97.3668 78.3841 96.4877 79.5269 95.4767C79.2632 95.5646 79.1753 95.6086 79.1313 95.6086Z" fill="white"/>
</g>
<defs>
<clipPath id="clip0_6_499">
<rect width="229.578" height="118.381" fill="white" transform="translate(0.586914 0.0371094)"/>
</clipPath>
</defs>
</svg>
