<?xml version="1.0" encoding="utf-8"?>
<!-- Generator: Adobe Illustrator 23.0.0, SVG Export Plug-In . SVG Version: 6.00 Build 0)  -->
<svg version="1.1" id="Layer_1" xmlns="http://www.w3.org/2000/svg" xmlns:xlink="http://www.w3.org/1999/xlink" x="0px" y="0px"
	 viewBox="0 0 205 67.5" style="enable-background:new 0 0 205 67.5;" xml:space="preserve">
<style type="text/css">
	.st0{fill:#FFFFFF;}
	.st1{fill:#C99565;}
</style>
<path class="st0" d="M57,23.2h16l0.8,3.7h-0.3c-0.6-1.1-1.4-1.9-2.4-2.4c-1-0.6-1.9-0.8-2.8-0.8h-1.7V42c0,0.4,0,0.7,0.1,0.9
	c0,0.3,0.1,0.5,0.2,0.7c0.1,0.2,0.2,0.4,0.4,0.6c0.2,0.2,0.4,0.4,0.6,0.7v0.3h-5.5v-0.3c0.2-0.2,0.4-0.4,0.6-0.7
	c0.2-0.2,0.3-0.4,0.4-0.6c0.1-0.2,0.1-0.5,0.2-0.7c0-0.3,0.1-0.6,0.1-0.9l0-18.3h-1.7c-0.9,0-1.9,0.3-2.8,0.8
	c-1,0.6-1.7,1.4-2.4,2.4h-0.3L57,23.2z M81.6,45.2c0,0,0-0.1-0.1-0.3c0-0.2-0.1-0.4-0.2-0.6c-0.1-0.2-0.1-0.4-0.2-0.6
	c0-0.2-0.1-0.3-0.1-0.3c-0.6,0.6-1.3,1-2.1,1.3c-0.8,0.3-1.6,0.4-2.5,0.4c-1.2,0-2.2-0.3-3-0.8c-0.8-0.6-1.2-1.5-1.2-2.9
	c0-1.1,0.3-2,0.9-2.7c0.6-0.7,1.3-1.2,2.2-1.6c0.9-0.4,1.8-0.7,2.8-0.8c1-0.1,2-0.2,2.8-0.2c0-0.5,0-1,0-1.6c0-0.6-0.1-1.2-0.3-1.7
	c-0.1-0.5-0.4-1-0.8-1.3c-0.4-0.4-0.9-0.6-1.6-0.6c-0.6,0-1,0.1-1.4,0.3c-0.4,0.2-0.6,0.4-0.8,0.8c-0.2,0.3-0.3,0.7-0.4,1.1
	c-0.1,0.4-0.1,0.9-0.1,1.4c0,0.3-0.2,0.6-0.5,0.7c-0.3,0.2-0.6,0.3-0.9,0.3c-0.4,0-0.7-0.1-1-0.3c-0.3-0.2-0.5-0.6-0.5-0.9
	c0-0.7,0.2-1.3,0.6-1.8c0.4-0.5,0.9-0.9,1.5-1.1c0.6-0.3,1.3-0.5,2-0.6c0.7-0.1,1.3-0.2,1.9-0.2c0.6,0,1.3,0.1,1.9,0.2
	s1.2,0.4,1.7,0.7c0.5,0.3,0.9,0.7,1.2,1.2c0.3,0.5,0.5,1.1,0.5,1.9l0.1,7.6c0,0.4,0.2,0.8,0.5,1.2c0.3,0.4,0.7,0.6,1.1,0.7v0.3
	L81.6,45.2z M81.1,36.7c-0.1,0-0.3,0-0.4,0c-0.1,0-0.3,0-0.4,0c-0.6,0-1.2,0.1-1.7,0.3c-0.6,0.2-1.1,0.5-1.5,0.8
	c-0.4,0.4-0.8,0.8-1.1,1.3c-0.2,0.5-0.4,1.1-0.4,1.7c0,1,0.2,1.7,0.6,2.4c0.4,0.6,1.1,0.9,2.2,0.9c0.5,0,1-0.1,1.4-0.4
	c0.5-0.3,0.9-0.5,1.3-0.8V36.7z M87.6,26.5c0-0.6,0.2-1.1,0.5-1.4c0.4-0.4,0.9-0.6,1.5-0.6c0.6,0,1.1,0.2,1.4,0.6
	c0.4,0.4,0.6,0.8,0.6,1.4c0,0.6-0.2,1.1-0.6,1.5c-0.4,0.4-0.8,0.6-1.4,0.6c-0.6,0-1.1-0.2-1.5-0.6C87.8,27.6,87.6,27.1,87.6,26.5z
	 M91.4,30.5V42c0,0.4,0,0.7,0.1,0.9c0,0.3,0.1,0.5,0.2,0.7c0.1,0.2,0.2,0.4,0.4,0.6c0.2,0.2,0.4,0.4,0.6,0.7v0.3h-5.5v-0.3
	c0.2-0.2,0.4-0.4,0.6-0.7c0.2-0.2,0.3-0.4,0.4-0.6c0.1-0.2,0.1-0.5,0.2-0.7c0-0.3,0.1-0.6,0.1-0.9v-7.6c0-0.7-0.1-1.3-0.3-1.7
	c-0.2-0.4-0.6-0.8-1.1-1.2v-0.3L91.4,30.5z M95.9,45.2V26.4c0-0.7-0.1-1.3-0.3-1.7c-0.2-0.4-0.6-0.8-1.1-1.3v-0.3l4.6-0.6v8.7
	c0.5-0.2,1-0.4,1.5-0.5c0.5-0.1,1.1-0.2,1.7-0.2c1.1,0,2.1,0.2,3,0.5c0.9,0.4,1.7,0.9,2.3,1.5c0.6,0.6,1.1,1.4,1.5,2.3
	c0.4,0.9,0.5,1.9,0.5,3s-0.2,2.1-0.5,3c-0.4,0.9-0.9,1.7-1.5,2.3c-0.6,0.6-1.4,1.1-2.3,1.5c-0.9,0.4-1.9,0.5-3,0.5
	c-1.8,0-3.3-0.4-4.5-1.3L95.9,45.2z M102.3,31c-0.7,0-1.3,0.2-1.8,0.5c-0.5,0.3-1,0.8-1.4,1.4v9.8c0.4,0.6,0.9,1.1,1.4,1.5
	c0.5,0.4,1.2,0.5,1.9,0.5c0.6,0,1.2-0.2,1.7-0.5c0.5-0.3,0.9-0.8,1.3-1.4c0.4-0.6,0.6-1.3,0.8-2.2c0.2-0.9,0.3-1.8,0.3-2.8
	c0-1-0.1-2-0.3-2.8c-0.2-0.9-0.5-1.6-0.8-2.2c-0.4-0.6-0.8-1.1-1.3-1.4C103.5,31.1,102.9,31,102.3,31z M120.1,45.2
	c0,0,0-0.1-0.1-0.3c0-0.2-0.1-0.4-0.2-0.6c-0.1-0.2-0.1-0.4-0.2-0.6c0-0.2-0.1-0.3-0.1-0.3c-0.6,0.6-1.3,1-2.1,1.3
	c-0.8,0.3-1.6,0.4-2.5,0.4c-1.2,0-2.2-0.3-3-0.8c-0.8-0.6-1.2-1.5-1.2-2.9c0-1.1,0.3-2,0.9-2.7c0.6-0.7,1.3-1.2,2.2-1.6
	c0.9-0.4,1.8-0.7,2.8-0.8c1-0.1,2-0.2,2.8-0.2c0-0.5,0-1,0-1.6c0-0.6-0.1-1.2-0.3-1.7c-0.1-0.5-0.4-1-0.8-1.3
	c-0.4-0.4-0.9-0.6-1.6-0.6c-0.6,0-1,0.1-1.4,0.3s-0.6,0.4-0.8,0.8c-0.2,0.3-0.3,0.7-0.4,1.1c-0.1,0.4-0.1,0.9-0.1,1.4
	c0,0.3-0.2,0.6-0.5,0.7c-0.3,0.2-0.6,0.3-0.9,0.3c-0.4,0-0.7-0.1-1-0.3c-0.3-0.2-0.5-0.6-0.5-0.9c0-0.7,0.2-1.3,0.6-1.8
	c0.4-0.5,0.9-0.9,1.5-1.1c0.6-0.3,1.3-0.5,2-0.6c0.7-0.1,1.3-0.2,1.9-0.2c0.6,0,1.3,0.1,1.9,0.2s1.2,0.4,1.7,0.7
	c0.5,0.3,0.9,0.7,1.2,1.2c0.3,0.5,0.5,1.1,0.5,1.9l0.1,7.6c0,0.4,0.2,0.8,0.5,1.2c0.3,0.4,0.7,0.6,1.1,0.7v0.3L120.1,45.2z
	 M119.6,36.7c-0.1,0-0.3,0-0.4,0c-0.1,0-0.3,0-0.4,0c-0.6,0-1.2,0.1-1.8,0.3c-0.6,0.2-1.1,0.5-1.5,0.8c-0.4,0.4-0.8,0.8-1.1,1.3
	c-0.3,0.5-0.4,1.1-0.4,1.7c0,1,0.2,1.7,0.6,2.4c0.4,0.6,1.1,0.9,2.2,0.9c0.5,0,1-0.1,1.4-0.4c0.5-0.3,0.9-0.5,1.3-0.8V36.7z
	 M130.5,23.2h16l0.8,3.7H147c-0.6-1.1-1.4-1.9-2.4-2.4c-1-0.6-1.9-0.8-2.8-0.8H140V42c0,0.4,0,0.7,0.1,0.9c0,0.3,0.1,0.5,0.2,0.7
	c0.1,0.2,0.2,0.4,0.4,0.6c0.2,0.2,0.4,0.4,0.6,0.7v0.3h-5.5v-0.3c0.2-0.2,0.4-0.4,0.6-0.7c0.2-0.2,0.3-0.4,0.4-0.6
	c0.1-0.2,0.1-0.5,0.2-0.7c0-0.3,0.1-0.6,0.1-0.9l0-18.3h-1.8c-0.9,0-1.9,0.3-2.8,0.8c-1,0.6-1.8,1.4-2.4,2.4h-0.3L130.5,23.2z
	 M145.6,37.8c0-1.1,0.2-2.1,0.5-3c0.4-0.9,0.8-1.7,1.5-2.3c0.6-0.6,1.4-1.1,2.3-1.5c0.9-0.4,1.9-0.5,3-0.5c1.1,0,2.1,0.2,3,0.5
	c0.9,0.4,1.7,0.9,2.3,1.5c0.6,0.6,1.1,1.4,1.5,2.3c0.4,0.9,0.5,1.9,0.5,3s-0.2,2.1-0.5,3c-0.4,0.9-0.9,1.7-1.5,2.3
	c-0.6,0.6-1.4,1.1-2.3,1.5c-0.9,0.4-1.9,0.5-3,0.5c-1.1,0-2.1-0.2-3-0.5c-0.9-0.4-1.7-0.8-2.3-1.5c-0.6-0.6-1.1-1.4-1.5-2.3
	C145.7,40,145.6,38.9,145.6,37.8z M148.8,37.8c0,1,0.1,2,0.3,2.8c0.2,0.9,0.5,1.6,0.8,2.2c0.4,0.6,0.8,1,1.3,1.4
	c0.5,0.3,1.1,0.5,1.7,0.5c0.6,0,1.2-0.2,1.7-0.5c0.5-0.3,0.9-0.8,1.3-1.4c0.4-0.6,0.6-1.3,0.8-2.2c0.2-0.9,0.3-1.8,0.3-2.8
	c0-1-0.1-2-0.3-2.8c-0.2-0.9-0.5-1.6-0.8-2.2c-0.4-0.6-0.8-1.1-1.3-1.4c-0.5-0.3-1.1-0.5-1.7-0.5c-0.6,0-1.2,0.2-1.7,0.5
	c-0.5,0.3-0.9,0.8-1.3,1.4c-0.4,0.6-0.6,1.3-0.8,2.2C148.9,35.9,148.8,36.8,148.8,37.8z M172.8,34.3c0-0.7-0.1-1.3-0.3-1.7
	c-0.2-0.4-0.6-0.8-1.1-1.2v-0.3l4.6-0.6l0,10.8c0,0.7,0.1,1.3,0.3,1.7c0.2,0.4,0.6,0.8,1.1,1.2v0.3l-4.6,0.6v-3.5
	c-0.3,0.5-0.7,1-1.2,1.5c-0.5,0.5-1,0.9-1.5,1.3c-0.4,0.2-0.8,0.4-1.2,0.5c-0.4,0.1-0.9,0.2-1.4,0.2s-0.9-0.1-1.4-0.2
	c-0.4-0.1-0.8-0.3-1.2-0.5c-0.4-0.2-0.8-0.6-1.1-1.1c-0.3-0.5-0.4-1.1-0.4-1.9l-0.1-7.2c0-0.7-0.1-1.3-0.3-1.7
	c-0.2-0.4-0.6-0.8-1.1-1.2v-0.3l4.6-0.6l0.1,10.4c0,0.7,0.2,1.4,0.6,1.9c0.4,0.5,1,0.7,1.7,0.7c1,0,1.7-0.3,2.4-0.8
	c0.6-0.5,1.2-1.2,1.6-1.9L172.8,34.3z M179.3,31.1l4.6-0.6v3.8c0.4-0.6,0.8-1.2,1.3-1.8c0.5-0.6,1.1-1.1,1.8-1.4
	c0.8-0.4,1.6-0.6,2.4-0.6c0.5,0,1,0.1,1.5,0.2c0.5,0.1,0.9,0.4,1.2,0.8c0.4,0.4,0.5,0.9,0.4,1.3c-0.1,0.4-0.3,0.8-0.6,1
	c-0.3,0.3-0.7,0.4-1.2,0.3c-0.5,0-0.9-0.3-1.3-0.8c-0.1-0.1-0.2-0.2-0.3-0.4c-0.1-0.1-0.2-0.3-0.4-0.4c-0.2-0.1-0.4-0.2-0.6-0.3
	c-0.2-0.1-0.5-0.1-0.8-0.1c-0.3,0-0.7,0.1-1,0.3c-0.3,0.2-0.6,0.4-0.9,0.8c-0.3,0.3-0.5,0.7-0.8,1.1c-0.3,0.4-0.5,0.8-0.7,1.2V42
	c0,0.4,0,0.7,0.1,0.9c0,0.3,0.1,0.5,0.2,0.7c0.1,0.2,0.2,0.4,0.4,0.6c0.2,0.2,0.4,0.4,0.6,0.7v0.3h-5.5v-0.3
	c0.2-0.2,0.4-0.4,0.6-0.7c0.2-0.2,0.3-0.4,0.4-0.6c0.1-0.2,0.1-0.5,0.2-0.7c0-0.3,0.1-0.6,0.1-0.9v-7.6c0-0.7-0.1-1.3-0.3-1.7
	c-0.2-0.4-0.6-0.8-1.1-1.2V31.1z M199.1,30.5c0.8,0,1.6,0.1,2.4,0.2c0.8,0.1,1.6,0.2,2.3,0.2l0.5,3.5H204c-0.6-1.1-1.3-2-2.1-2.6
	c-0.8-0.6-1.7-0.9-2.9-0.9c-0.8,0-1.4,0.2-2,0.6c-0.5,0.4-0.8,1-0.9,1.8c0,0.4,0,0.8,0.2,1.1c0.1,0.3,0.3,0.5,0.6,0.7
	c0.2,0.1,0.5,0.3,0.7,0.3c0.3,0.1,0.5,0.1,0.7,0.2c0.8,0.2,1.5,0.4,2.3,0.6c0.8,0.2,1.5,0.5,2.1,0.9c0.6,0.4,1.2,0.8,1.6,1.4
	c0.4,0.6,0.6,1.3,0.6,2.3c0,0.9-0.2,1.6-0.6,2.1c-0.4,0.6-0.9,1-1.5,1.4c-0.6,0.3-1.3,0.6-2.1,0.7c-0.8,0.1-1.5,0.2-2.3,0.2
	c-0.4,0-0.8-0.1-1.3-0.2c-0.5-0.1-0.9-0.2-1.4-0.3c-0.4-0.1-0.8-0.3-1.2-0.4c-0.3-0.1-0.6-0.2-0.7-0.2h-0.3l-0.4-3.9h0.3
	c0.6,1.4,1.2,2.5,2,3.3c0.8,0.8,1.8,1.2,3,1.2c0.4,0,0.9,0,1.3-0.1c0.4-0.1,0.8-0.3,1.2-0.5c0.4-0.2,0.6-0.5,0.8-0.8
	c0.2-0.4,0.3-0.8,0.3-1.3c0-0.6-0.1-1.1-0.4-1.5c-0.3-0.4-0.6-0.7-1-0.9c-0.4-0.2-0.9-0.4-1.5-0.6c-0.5-0.2-1.1-0.3-1.7-0.5
	c-1.6-0.5-2.8-1-3.4-1.6c-0.6-0.6-0.9-1.4-0.9-2.3c0-0.8,0.2-1.4,0.5-2c0.4-0.5,0.8-1,1.4-1.3c0.6-0.3,1.2-0.6,1.9-0.7
	C197.7,30.6,198.4,30.5,199.1,30.5z"/>
<path class="st0" d="M45.8,45l0.1-0.2v-0.6c-0.4-0.2-0.7-0.3-1.1-0.5V22l1.2-2.3l1-0.4v-0.4c-0.2,0-0.3-0.1-0.3-0.1
	c0-1.1,0-1.6,0-1.6c-1.5-0.4-2.2-0.6-2.2-0.6V13c0.2,0,0.5-0.2,0.6-0.5c0-0.3,0-0.5,0-0.5c-0.7-0.6-1.7-1-2.6-1.1v-0.6
	c1.2-2.7-1-3.4-1.3-4.4c0-0.5-0.2-0.6-0.2-1c0.2,0,0.2-0.3,0-0.3V4.6c0.2-0.1,0.3-0.3,0.3-0.5c0-0.2-0.2-0.4-0.4-0.5
	c0-0.2,0-0.3,0-0.3c0.6-0.4,0-1,0-1.2c0-0.2,0-0.3,0-0.3C40.9,1.7,41,1.6,41,1.4c0-0.1-0.1-0.3-0.2-0.3C40.9,1.1,41,1,41,1
	c0.2-0.2,0.2-0.5,0.1-0.7c0.1,0.2,0,0.4-0.2,0.5c-0.2,0.1-0.4,0.1-0.5,0c0.1,0.1,0.2,0.1,0.3,0.1c0,0,0,0,0.1,0
	c0.2,0,0.3-0.1,0.4-0.2c-0.1,0.2-0.4,0.3-0.6,0.2c-0.2-0.1-0.4-0.3-0.3-0.6c-0.1,0.2-0.1,0.3,0,0.5c0.1,0.2,0.3,0.3,0.5,0.3
	c0,0-0.1,0-0.1,0c-0.1,0.1-0.2,0.2-0.2,0.3c0,0.1,0.1,0.3,0.2,0.3c0,0,0,0.1,0,0.3c0,0.2-0.6,0.8,0,1.2v0.2h0c0,0,0.1,0,0.1,0
	c-0.2,0-0.4,0.2-0.5,0.4c-0.1,0.2,0.1,0.5,0.3,0.6l0-0.1c0,0,0,0.1,0,0.2c0,0,0.1,0,0.1,0c-0.4,0-0.3,0.3-0.2,0.3l0-0.1
	c0.1,0.6-0.2,0.6-0.2,1c0.1,0,0.1,0,0.2,0c-0.2,0-0.3,0.1-0.3,0.1c-0.2,0.4-0.6,0.8-0.9,1.1c-0.4,0.5-0.6,1.1-0.7,1.7
	c0-0.4,0.2-0.8,0.4-1.1c-0.5,0.8-0.5,1.8,0,2.7v0.4c0.5,0,1,0,1.5,0.1c-0.6-0.1-1.1-0.1-1.6,0c-0.1,0-0.2,0-0.2,0
	c-0.8,0.2-1.6,0.5-2.2,0.9c0,0-0.2,0.7,0.4,1c0,0,0-0.1,0.1-0.3c0,0,0,1.3,0,3.8c0,0,0.6-0.2,2-0.3l-4.2,1.1v1.5c0,0,0.7-0.1,2-0.2
	c0,0-0.8,0.2-2.4,0.4v0.4l0.2,0.4l1.6,2l0.3-1.1v12.3c0.7,0.8,1.3,1.7,1.7,2.7c0.7,1.8,0.6,3.6-0.2,5.4v1c0,0,0.6,0.3,0.7,0.4
	c0.7,0.4,1.4,1,1.6,1.8c0.1,0.5,0,0.9,0,1.3c0,0.6,0.1,1,0.3,1.5c0.5,0.1,0.9,0.2,1.3,0.6c0.3,0.3,0.5,0.7,0.5,1.2v12.1
	c0,0.1,0,0.2,0,0.3c0.2,0,0.4,0,0.6,0c0.1,0,0.1,0,0.2,0V48c0-0.6,0.5-1,1-1c0.6,0,1,0.4,1,1v12.8c0.4-0.1,0.8-0.1,1.1-0.2V47
	c0.4-0.1,0.7-0.3,0.9-0.7c0-0.5,0-0.8,0-0.8L45.8,45z M39,15.2c0,0.3-0.3,0.6-0.6,0.6c-0.3,0-0.6-0.3-0.6-0.6v-2.1
	c0-0.3,0.3-0.6,0.6-0.6c0.3,0,0.6,0.3,0.6,0.6V15.2z M41.7,14.7c0,0.6-0.5,1.1-1.1,1.1c-0.6,0-1.1-0.5-1.1-1.1v-1.1
	c0-0.6,0.5-1.1,1.1-1.1c0.6,0,1.1,0.5,1.1,1.1V14.7z M43.4,15.2c0,0.3-0.3,0.6-0.6,0.6c-0.3,0-0.6-0.3-0.6-0.6v-2.1
	c0-0.3,0.3-0.6,0.6-0.6c0.3,0,0.6,0.3,0.6,0.6V15.2z"/>
<path class="st1" d="M24.2,19.8c0.4,0.4,1,0.7,1.6,0.9c-0.1,0.1-0.1,0.1-0.2,0.2c-0.1,0.1-0.2,0.3-0.2,0.4c0,0.1,0,0.3,0,0.4
	c0.1,0.4,0.3,0.8,0.7,0.9c0,0,0-0.1,0-0.2V23c0,0,0.1,0,0.3,0c-0.4,0-0.6,0.1-0.6,0.3c0,0.2,0.1,0.3,0.2,0.4c0-0.1,0-0.2,0.1-0.3
	c0,0.2,0,0.5,0,0.7c0,0.1,0,0.1,0,0.2c-0.2,0.9-0.8,0.9-0.7,2c0.2-0.2,0.3-0.3,0.5-0.5c-0.2,0.4-0.5,0.7-0.8,1.1
	c-0.1,0.2-0.2,0.3-0.4,0.5c-1.2,1.3-3.6,2.7-5.7,4.4c-2.6,2.3-3.6,5.9-2.6,9.3v1.2c1.8-0.3,3.6-0.4,5.4-0.3c-4.5,0.2-7.3,1-8.3,2.3
	c0,0,0,0.5,0,1.6c0.2,0.6,0.7,1.1,1.4,1.3l0.4-1.4v1.4v2.3c0.7,0.9,1.5,1.7,2.3,2.5c0.1,0.1,0.3,0.3,0.4,0.4v-4.6c0-1.1,0.9-2,1.9-2
	c1,0,1.9,0.9,1.9,2v7.7c0.5,0.3,0.9,0.6,1.4,0.9v-5.3v-1.8c0-2,1.5-3.6,3.4-3.6c1.8,0,3.4,1.6,3.4,3.6v1.8v7.7c0,0.2,0,0.5-0.1,0.7
	c0.4,0.1,0.8,0.2,1.2,0.4c0.1,0,0.2,0.1,0.3,0.1V47.8c0-1.1,0.9-2,1.9-2c1,0,1.9,0.9,1.9,2v12.6c0,0.2,0,0.3,0,0.4
	c0.4,0.1,0.8,0.1,1.2,0.2c0.5,0.1,1,0.1,1.5,0.1c0,0,0,0,0,0v-14c0,0,0.7-0.2,0.8-0.2c0.2-0.1,0.5-0.3,0.6-0.5
	c0.2-0.3,0.3-0.6,0.4-1c0-0.3,0.1-0.8,0-1.1c-0.1-0.4-0.7-0.9-1-1.1c-0.2-0.2-0.4-0.3-0.6-0.4c-0.1,0-0.7-0.3-0.7-0.3v-1.7
	c3.4-7.8-7.9-11.3-9.4-14.5c0.2-1.4-0.8-1.1-0.7-2.6c0.4-0.1,0.4-0.6,0-0.7v-0.3c0,0,0,0,0,0c0.5-0.2,0.8-0.7,0.7-1.2
	c0-0.2-0.1-0.4-0.2-0.6c0-0.1-0.1-0.1-0.2-0.2c0.2-0.1,0.4-0.1,0.6-0.2c1.3-0.6,2.1-1.9,2-3.3c-0.3,1.5-1.8,2.6-3.4,2.3
	c-1.6-0.2-2.6-1.7-2.5-3.3c-0.1,1.3,0.7,2.5,1.9,2.9c1,0.3,2,0.2,2.7-0.4c-0.5,0.3-1,0.5-1.6,0.5c-1.5,0-2.8-1.2-2.8-2.8
	c0-1.4,1-2.6,2.4-2.7c-1.5-0.2-2.9,0.6-3.6,2C22.8,17.1,23.1,18.7,24.2,19.8z"/>
<path class="st0" d="M55,59.2c-0.8,0.4-1.7,0.8-2.6,1.1c-0.2,0.1-0.5,0.2-0.7,0.3c-1.5,0.6-3,1-4.6,1.4c-0.3,0.1-0.6,0.1-0.9,0.2
	c-0.5,0.1-1,0.2-1.6,0.3c-0.3,0-0.6,0.1-0.9,0.1c-0.2,0-0.5,0.1-0.7,0.1c-0.4,0-0.9,0.1-1.3,0.1c-0.4,0-0.8,0-1.1,0
	c-1.4,0-2.9,0-4.3-0.2c-0.7-0.1-1.4-0.2-2.1-0.3c-0.2,0-0.3-0.1-0.5-0.1c-0.1,0-0.1,0-0.2,0c-0.4-0.1-0.7-0.2-1.1-0.2
	c-0.2,0-0.4-0.1-0.5-0.1c-0.4-0.1-0.8-0.2-1.2-0.3c-0.4-0.1-0.9-0.3-1.3-0.4c-0.2-0.1-0.3-0.1-0.4-0.2c-0.1,0-0.2-0.1-0.3-0.1
	c-0.8-0.3-1.7-0.6-2.5-1c0,0,0,0,0,0c-0.3-0.2-0.7-0.3-1-0.5c-0.6-0.3-1.2-0.6-1.7-0.9c-0.5-0.3-0.9-0.6-1.4-0.9
	c-0.3-0.2-0.7-0.5-1-0.7c-0.6-0.4-1.1-0.8-1.7-1.2c-0.2-0.2-0.4-0.3-0.6-0.5c-0.1-0.1-0.2-0.2-0.3-0.2c-0.1-0.1-0.2-0.2-0.2-0.2
	c-0.5-0.5-1-0.9-1.5-1.4c-0.4-0.4-0.8-0.8-1.2-1.2c-0.8-0.9-1.5-1.8-2.2-2.6C13.1,49.1,13.1,49,13,49c-0.1-0.1-0.2-0.2-0.2-0.3
	c-1-1.4-1.8-2.9-2.6-4.4c-0.3-0.6-0.6-1.2-0.8-1.8v0l-0.1-0.2c-0.2-0.5-0.4-1-0.6-1.6c-0.2-0.6-0.4-1.1-0.6-1.7
	c-0.5-1.7-0.9-3.4-1.1-5.2c0-0.2-0.1-0.5-0.1-0.7c-0.2-1.8-0.2-3.7-0.2-5.5c0-0.4,0.1-0.8,0.1-1.2C7,25,7.2,23.5,7.6,22
	c0.3-1.1,0.6-2.3,1-3.4C8.8,18,9,17.4,9.3,16.7c0.2-0.4,0.3-0.8,0.5-1.2c0.2-0.3,0.3-0.6,0.4-0.9c0.5-1,1-1.9,1.6-2.8
	c1-1.6,2.1-3,3.3-4.4c0,0,0.1-0.1,0.1-0.1c0.1-0.1,0.2-0.2,0.3-0.4c0.3-0.4,0.7-0.7,1.1-1.1c0.1,0.3,0.1,0.6,0.2,0.9
	c0,0,0.1-0.1,0.2-0.1c0.1-0.3,0.2-0.9,0.3-1.2c0.1,0,0.2-0.1,0.2-0.1c0.3-0.2,0.7-0.3,1-0.5c0.3-0.2,0.6-0.3,1-0.5
	c0.2-0.2,0.5-0.3,0.8-0.4c0.1,0,0.2-0.1,0.2-0.1c0.2,1.4,0.4,2.7,0.6,4.1c0,0,0.1-0.1,0.1-0.1c0,0,0.1-0.1,0.2-0.1
	c0-0.1,0-0.3,0-0.3c0-0.4,0.1-0.8,0.1-1.2c0,0,0-0.1,0.1-0.1C21.8,6.1,21.9,6.1,22,6C22,6,22.1,5.9,22,5.8c0-0.1-0.1-0.1-0.1-0.2
	c0-0.1-0.1-0.1-0.2,0c0,0,0,0-0.1,0.1c0,0,0,0,0-0.1c0-0.4,0.1-0.8,0.1-1.2c0-0.1,0-0.1,0.1-0.1c0.1-0.1,0.2-0.2,0.4-0.2
	c0.1,0,0.1-0.1,0.1-0.2c0-0.1-0.1-0.1-0.1-0.2c0-0.1-0.1-0.1-0.2,0c-0.1,0-0.1,0.1-0.2,0.1c0,0,0,0,0-0.1C22,3.5,22,3.1,22.1,2.9
	c0.3-0.2,0.7-0.4,1-0.6c0.2-0.1,0.3-0.2,0.4-0.3c0.2-0.2,0.4-0.4,0.6-0.7C24.2,1.1,24.2,1,24.2,1c0-0.1,0-0.1-0.1-0.2
	c0,0-0.1,0-0.1,0c-0.1,0-0.3,0-0.4,0.1C23.2,1,22.8,1,22.5,1.3c-0.3,0.2-0.7,0.4-1,0.6c-0.3-0.1-0.6-0.2-0.9-0.3l0,0
	c0,0,0.1-0.1,0.1-0.1c0.1-0.1,0.1-0.1,0.1-0.2c0,0-0.1-0.1-0.1-0.1C20.7,1,20.6,1,20.6,1.1c-0.1,0.1-0.2,0.2-0.4,0.2
	c0,0-0.1,0-0.1,0l-1-0.4c0,0-0.1,0-0.1-0.1c0,0,0,0,0.1,0c0.1-0.1,0.1-0.1,0.1-0.2c0,0-0.1-0.1-0.1-0.1C19,0.4,19,0.4,18.9,0.4
	c-0.1,0.1-0.2,0.1-0.3,0.2c0,0-0.1,0-0.1,0c-0.4-0.2-0.9-0.4-1.3-0.6C17.2,0.1,17,0.2,17,0.2c1,0.9,2,1.8,3,2.6
	C19.9,3,19.8,3,19.6,3.1c-0.3,0.2-0.6,0.4-0.9,0.6c-0.3,0.2-0.6,0.4-0.8,0.6c-0.2,0.2-0.6,0.4-0.9,0.6c-0.3-0.1-0.7-0.3-1-0.4
	c-0.1,0.1-0.2,0.1-0.2,0.2C16,5,16.2,5.2,16.5,5.4C16,5.7,15.6,6,15.1,6.3c-0.3,0.2-0.6,0.4-0.8,0.6c-1.5,1-3,2.2-4.3,3.5
	c-0.1,0.1-0.2,0.2-0.4,0.4c-0.5,0.5-0.9,1-1.4,1.5c-0.8,0.9-1.6,1.9-2.3,2.9c-0.3,0.5-0.6,0.9-0.9,1.4c-0.7,1.1-1.3,2.2-1.8,3.4
	c0,0.1-0.1,0.2-0.1,0.3c-0.5,1.1-1,2.2-1.4,3.4c-0.2,0.5-0.3,1-0.5,1.5c-0.3,1-0.5,2-0.7,3c-0.2,0.9-0.3,1.7-0.4,2.6
	c0,0.3-0.1,0.5-0.1,0.8C0,33.2,0,35,0.1,36.7c0,0.5,0.1,0.9,0.1,1.4c0.2,1.8,0.6,3.5,1,5.2c0.1,0.2,0.1,0.4,0.2,0.6
	c0.2,0.6,0.4,1.3,0.6,1.9C2.5,46.9,3,48,3.5,49.1c0.3,0.6,0.6,1.1,0.9,1.7c0.6,1,1.2,2,1.9,3c0.6,0.9,1.4,1.8,2.1,2.6
	c0.5,0.5,1,1,1.5,1.6c1.2,1.2,2.6,2.3,4,3.3c0.1,0.1,0.2,0.2,0.4,0.3c0,0,0.1,0,0.1,0.1c0.1,0.1,0.2,0.1,0.2,0.2
	c0.3,0.2,0.6,0.4,0.9,0.6c1.2,0.8,2.5,1.4,3.8,2.1c0.1,0,0.2,0.1,0.2,0.1c0.2,0.1,0.4,0.2,0.6,0.2c1.7,0.7,3.4,1.3,5,1.7
	c0.2,0.1,0.4,0.1,0.6,0.1c0.1,0,0.1,0,0.2,0c1.8,0.4,3.6,0.7,5.4,0.8c1,0.1,1.9,0.1,2.9,0c0.9,0,1.7-0.1,2.6-0.2
	c0.8-0.1,1.7-0.2,2.5-0.4c1-0.2,1.9-0.4,2.9-0.7c1.4-0.4,2.7-0.9,4.1-1.4c0.3-0.1,0.6-0.2,0.8-0.4c0.1-0.1,0.3-0.1,0.4-0.2
	c0.4-0.2,0.9-0.4,1.3-0.6c0.3-0.2,0.5-0.3,0.8-0.4c1.1-0.6,2.1-1.3,3.1-2c0.1,0,0.1-0.1,0.2-0.1c0.8-0.6,1.6-1.2,2.4-1.9
	C55.1,59.2,55,59.2,55,59.2z"/>
</svg>
