<svg width="84" height="52" viewBox="0 0 84 52" fill="none" xmlns="http://www.w3.org/2000/svg">
<path d="M82.2962 19.5766C82.8112 19.3324 83.2454 18.9457 83.5474 18.4623C83.8493 17.9788 84.0063 17.419 83.9998 16.849V9.37984C83.9972 6.9937 83.0481 4.70604 81.3609 3.01879C79.6736 1.33153 77.386 0.382492 74.9998 0.379883H71.9998C71.6067 0.386928 71.232 0.548066 70.9564 0.828612C70.6809 1.10916 70.5265 1.48668 70.5265 1.87992C70.5265 2.27316 70.6809 2.65067 70.9565 2.9312C71.2321 3.21173 71.6068 3.37285 71.9999 3.37987H74.9998C76.5906 3.38146 78.1158 4.01411 79.2407 5.13897C80.3656 6.26384 80.9982 7.78904 80.9998 9.37984L81.0496 16.8476C79.3167 17.6654 77.8513 18.9578 76.8233 20.5749C75.7953 22.192 75.2469 24.0674 75.2417 25.9835C75.2365 27.8997 75.7748 29.778 76.794 31.4006C77.8133 33.0232 79.2717 34.3235 81.0001 35.1507L80.9998 42.6199C80.9982 44.2107 80.3656 45.7359 79.2407 46.8608C78.1158 47.9857 76.5906 48.6183 74.9998 48.6199H65.5604C65.4588 47.2622 66.118 44.8075 64.0604 44.722C63.8634 44.7218 63.6683 44.7606 63.4862 44.8359C63.3042 44.9113 63.1388 45.0217 62.9995 45.161C62.8602 45.3004 62.7497 45.4658 62.6743 45.6478C62.599 45.8298 62.5603 46.0249 62.5604 46.222V48.6199H9.00016C7.40939 48.6182 5.88425 47.9855 4.75941 46.8607C3.63456 45.7358 3.00188 44.2107 3.00019 42.6199L2.95112 35.1522C4.68399 34.3343 6.14943 33.0419 7.1774 31.4248C8.20537 29.8077 8.75373 27.9322 8.75884 26.016C8.76395 24.0999 8.22561 22.2215 7.20628 20.599C6.18695 18.9764 4.72843 17.6761 2.99994 16.8491L3.00019 9.37984C3.00188 7.78907 3.63456 6.26394 4.75941 5.13909C5.88425 4.01425 7.40939 3.38156 9.00016 3.37987H62.5604V5.34569C62.566 5.73983 62.7265 6.11595 63.0072 6.39271C63.2879 6.66946 63.6662 6.82461 64.0604 6.82461C64.4546 6.82461 64.8329 6.66946 65.1136 6.39271C65.3943 6.11595 65.5548 5.73983 65.5604 5.34569V1.87988C65.5605 1.68286 65.5218 1.48776 65.4464 1.30572C65.3711 1.12368 65.2606 0.958276 65.1213 0.818966C64.982 0.679656 64.8166 0.569171 64.6346 0.49383C64.4525 0.418489 64.2574 0.379769 64.0604 0.379883H9.00016C6.61402 0.382492 4.32636 1.33153 2.63911 3.01879C0.951853 4.70604 0.00280812 6.9937 0.000199585 9.37984V16.849C-0.00639433 17.4187 0.150525 17.9783 0.452349 18.4615C0.754173 18.9447 1.18824 19.3312 1.70307 19.5751C2.91889 20.1515 3.94623 21.061 4.6657 22.198C5.38517 23.335 5.76724 24.6528 5.76753 25.9983C5.76782 27.3438 5.3863 28.6618 4.66731 29.7991C3.94832 30.9364 2.92138 31.8463 1.7058 32.4232C1.19035 32.667 0.755666 33.0536 0.453345 33.537C0.151023 34.0205 -0.00624626 34.5805 0.000199585 35.1507V42.6199C0.00280812 45.0061 0.951853 47.2937 2.63911 48.981C4.32636 50.6682 6.61402 51.6173 9.00016 51.6199H74.9998C77.386 51.6173 79.6736 50.6682 81.3609 48.981C83.0481 47.2937 83.9972 45.0061 83.9998 42.6199V35.1507C84.0065 34.5811 83.8497 34.0216 83.548 33.5384C83.2463 33.0552 82.8124 32.6687 82.2976 32.4246C81.0815 31.8485 80.0538 30.9391 79.3342 29.8019C78.6145 28.6648 78.2324 27.3468 78.2322 26.0011C78.2321 24.6553 78.6139 23.3372 79.3333 22.1999C80.0527 21.0627 81.0802 20.153 82.2962 19.5766Z" fill="#C99565"/>
<path d="M65.5605 10.7363C65.5529 10.3435 65.3915 9.96941 65.111 9.69436C64.8305 9.41931 64.4533 9.26525 64.0605 9.26526C63.6677 9.26527 63.2905 9.41936 63.01 9.69442C62.7296 9.96949 62.5682 10.3436 62.5605 10.7363V15.9569C62.5682 16.3497 62.7296 16.7238 63.0101 16.9988C63.2906 17.2739 63.6678 17.4279 64.0606 17.4279C64.4534 17.4279 64.8306 17.2738 65.111 16.9988C65.3915 16.7237 65.5529 16.3496 65.5605 15.9568V10.7363Z" fill="#C99565"/>
<path d="M65.5605 22.5663C65.5529 22.1736 65.3915 21.7995 65.111 21.5244C64.8305 21.2494 64.4533 21.0953 64.0605 21.0953C63.6677 21.0953 63.2905 21.2494 63.01 21.5245C62.7296 21.7996 62.5682 22.1737 62.5605 22.5664V27.787C62.5682 28.1798 62.7296 28.5538 63.0101 28.8289C63.2906 29.1039 63.6678 29.258 64.0606 29.258C64.4534 29.258 64.8306 29.1039 65.111 28.8288C65.3915 28.5538 65.5529 28.1797 65.5605 27.7869V22.5663Z" fill="#C99565"/>
<path d="M62.5605 34.3979V39.6171C62.5682 40.0099 62.7296 40.384 63.0101 40.659C63.2906 40.9341 63.6678 41.0881 64.0606 41.0881C64.4534 41.0881 64.8306 40.934 65.111 40.659C65.3915 40.3839 65.5529 40.0098 65.5605 39.617V34.3979C65.5529 34.0052 65.3915 33.6311 65.111 33.356C64.8305 33.081 64.4534 32.9269 64.0605 32.9269C63.6677 32.9269 63.2905 33.081 63.0101 33.356C62.7296 33.6311 62.5682 34.0052 62.5605 34.3979Z" fill="#C99565"/>
<path d="M33.8561 41.2252L43.8194 30.5042H49.1981C55.2001 30.4265 55.3848 21.6861 49.3576 21.5219H43.8194L33.8612 10.8052C33.3925 10.3131 32.788 9.97149 32.1246 9.82377C31.4613 9.67604 30.769 9.72887 30.1357 9.97553C29.5024 10.2222 28.9568 10.6516 28.5681 11.2091C28.1795 11.7666 27.9653 12.427 27.9529 13.1065C27.6998 14.0654 31.272 20.5276 31.627 21.5219H24.8672C24.5009 21.5219 24.1476 21.3868 23.8747 21.1425L20.9304 18.5145C20.6055 18.234 20.2074 18.052 19.7827 17.9899C19.358 17.9277 18.9244 17.988 18.5328 18.1636C18.1412 18.3393 17.8078 18.623 17.5718 18.9815C17.3357 19.3399 17.2069 19.7583 17.2003 20.1875L17.2002 31.8373C17.2065 32.2667 17.3352 32.6855 17.5714 33.0443C17.8076 33.403 18.1413 33.6869 18.5333 33.8625C18.9253 34.038 19.3593 34.098 19.7842 34.0353C20.2091 33.9726 20.6073 33.7898 20.9319 33.5085L23.8747 30.8822C24.1479 30.6385 24.5011 30.504 24.8672 30.5042H31.6273C31.1896 31.6822 27.7373 37.8664 27.9528 38.9182C27.965 39.5972 28.1786 40.2573 28.5665 40.8147C28.9545 41.372 29.4993 41.8016 30.1318 42.0488C30.7643 42.296 31.456 42.3497 32.1191 42.203C32.7822 42.0564 33.3868 41.7161 33.8561 41.2252ZM30.9887 13.2734C30.7904 12.9291 31.3548 12.4802 31.6589 12.8413L39.7248 21.5219H34.9569L30.9887 13.2734ZM24.8672 27.5043C22.9993 27.3757 21.4632 28.9917 20.2003 30.1411V21.8836C21.4773 23.0371 22.9914 24.6466 24.8673 24.5217L49.3578 24.5218C49.5588 24.525 49.757 24.5687 49.9407 24.6503C50.1244 24.7319 50.2897 24.8496 50.4268 24.9966C50.5639 25.1435 50.6699 25.3167 50.7386 25.5055C50.8072 25.6944 50.837 25.8952 50.8263 26.0959C50.8155 26.2966 50.7644 26.493 50.676 26.6735C50.5876 26.854 50.4636 27.0148 50.3116 27.1462C50.1596 27.2777 49.9827 27.3771 49.7913 27.4386C49.6 27.5001 49.3982 27.5224 49.1981 27.5041L24.8672 27.5043ZM30.9989 38.7322L34.9569 30.5042H39.7245L31.6537 39.1892C31.3538 39.5357 30.7691 39.0941 30.9989 38.7322Z" fill="#C99565"/>
</svg>
