<svg width="70" height="70" viewBox="0 0 70 70" fill="none" xmlns="http://www.w3.org/2000/svg">
<path d="M4.8125 45.0406V35H2.65625V45.3088C2.65626 45.4849 2.69941 45.6584 2.78193 45.814L11.2812 61.8387V68.1285H13.4375V61.5705C13.4375 61.3943 13.3943 61.2209 13.3118 61.0653L4.8125 45.0406Z" fill="#C99565"/>
<path d="M20.9264 45.2975L17.1999 41.9436C16.4089 41.2313 15.4247 40.7691 14.3714 40.6153C13.3181 40.4616 12.2429 40.6231 11.2812 41.0796V31.3835C11.2813 30.3954 11.0849 29.4171 10.7036 28.5055C10.3223 27.5938 9.7636 26.7671 9.06003 26.0732C8.35646 25.3794 7.52203 24.8322 6.6052 24.4636C5.68837 24.095 4.70743 23.9123 3.71938 23.926C3.43607 23.93 3.1657 24.0453 2.96675 24.247C2.7678 24.4487 2.65626 24.7207 2.65625 25.004V32.8437H4.8125V26.1728C6.02521 26.4041 7.11934 27.051 7.90648 28.0021C8.69363 28.9532 9.12453 30.149 9.125 31.3835V43.2368C9.12376 43.4479 9.18466 43.6547 9.3001 43.8314L9.30076 43.8324L9.30149 43.8335L9.30241 43.8348L9.303 43.8358L9.30405 43.8373L9.30451 43.8381L9.3061 43.8404L13.6186 50.3091C13.6966 50.4281 13.7974 50.5304 13.9152 50.6102C14.0329 50.6901 14.1653 50.7458 14.3047 50.7742C14.4441 50.8026 14.5877 50.8032 14.7274 50.7758C14.867 50.7485 14.9998 50.6938 15.1181 50.6149C15.2365 50.5359 15.3381 50.4344 15.417 50.316C15.496 50.1977 15.5507 50.0649 15.5781 49.9253C15.6055 49.7857 15.6049 49.642 15.5765 49.5026C15.5482 49.3632 15.4924 49.2308 15.4127 49.1131L11.6041 43.4001C12.2032 42.9326 12.9479 42.691 13.7074 42.7177C14.4669 42.7445 15.1927 43.0378 15.7575 43.5463L19.484 46.9002C20.6025 47.9116 21.4711 49.1686 22.0216 50.5726C22.572 51.9765 22.7892 53.4889 22.6562 54.991L22.0669 61.4729C22.0639 61.5053 22.0625 61.5378 22.0625 61.5704V68.1284H24.2188V61.6193L24.8036 55.1862C24.9663 53.3503 24.7007 51.5017 24.028 49.7859C23.3552 48.07 22.2935 46.5336 20.9264 45.2975Z" fill="#C99565"/>
<path d="M66.2806 23.926C65.2926 23.9123 64.3116 24.095 63.3948 24.4636C62.478 24.8322 61.6435 25.3794 60.94 26.0732C60.2364 26.7671 59.6777 27.5938 59.2964 28.5055C58.9151 29.4171 58.7188 30.3954 58.7188 31.3835V41.0795C57.7571 40.6232 56.6819 40.4617 55.6286 40.6155C54.5753 40.7693 53.5912 41.2314 52.8001 41.9436L49.0736 45.2975C47.7065 46.5336 46.6448 48.07 45.972 49.7859C45.2993 51.5017 45.0337 53.3503 45.1964 55.1862L45.7813 61.6193V68.1284H47.9375V61.5704C47.9375 61.5379 47.936 61.5053 47.9331 61.4729L47.3438 54.991C47.2108 53.4889 47.428 51.9765 47.9784 50.5726C48.5289 49.1686 49.3975 47.9116 50.516 46.9002L54.2425 43.5463C54.8073 43.0379 55.5332 42.7446 56.2926 42.7178C57.0521 42.6911 57.7968 42.9326 58.3959 43.4001L54.5874 49.113C54.5076 49.2308 54.4519 49.3632 54.4235 49.5026C54.3951 49.642 54.3946 49.7857 54.4219 49.9253C54.4493 50.0649 54.504 50.1977 54.583 50.316C54.6619 50.4344 54.7635 50.5359 54.8819 50.6148C55.0002 50.6938 55.133 50.7485 55.2727 50.7758C55.4123 50.8031 55.5559 50.8026 55.6953 50.7742C55.8347 50.7458 55.9671 50.69 56.0848 50.6102C56.2026 50.5304 56.3034 50.428 56.3814 50.3091L60.6939 43.8403L60.6955 43.838L60.696 43.8373L60.697 43.8357L60.6976 43.8348L60.6985 43.8335L60.6992 43.8324L60.6999 43.8313C60.8153 43.6547 60.8762 43.4479 60.875 43.2368V31.3835C60.8755 30.149 61.3064 28.9532 62.0936 28.0021C62.8807 27.051 63.9748 26.4041 65.1875 26.1728V45.0405L56.6882 61.0653C56.6057 61.2209 56.5625 61.3943 56.5625 61.5704V68.1284H58.7188V61.8387L67.2181 45.8139C67.3006 45.6583 67.3438 45.4849 67.3438 45.3087V25.004C67.3438 24.7207 67.2322 24.4487 67.0333 24.247C66.8343 24.0453 66.5639 23.93 66.2806 23.926Z" fill="#C99565"/>
<path d="M53.5102 27.5066L51.3957 27.0837C50.7152 30.4706 49.3359 33.6784 47.3459 36.5022C45.3559 39.326 42.7989 41.7038 39.8381 43.4838L34.9999 46.3868L30.1616 43.4838C27.2009 41.7038 24.6439 39.326 22.6539 36.5022C20.6639 33.6784 19.2846 30.4706 18.6041 27.0837L15.8887 13.5066L34.9999 4.90655L54.1112 13.5066L51.7954 25.0855L53.9098 25.5083L56.394 13.0873C56.4418 12.848 56.4071 12.5995 56.2954 12.3825C56.1837 12.1655 56.0017 11.9928 55.7792 11.8927L35.4423 2.74108C35.3032 2.67848 35.1525 2.64612 34.9999 2.64612C34.8474 2.64612 34.6966 2.67848 34.5575 2.74108L14.2207 11.8927C13.9981 11.9928 13.8161 12.1655 13.7045 12.3825C13.5928 12.5995 13.558 12.848 13.6059 13.0873L16.4897 27.5066C17.2294 31.188 18.7286 34.6747 20.8917 37.7441C23.0547 40.8134 25.8341 43.398 29.0522 45.3327L34.4452 48.5686C34.6128 48.6691 34.8045 48.7222 34.9999 48.7222C35.1954 48.7222 35.3871 48.6691 35.5547 48.5686L40.9476 45.3327C44.1658 43.398 46.9451 40.8134 49.1082 37.7441C51.2713 34.6747 52.7705 31.188 53.5102 27.5066Z" fill="#C99565"/>
<path d="M41.0264 12.3474L41.9112 10.381L35.4424 7.47007C35.3033 7.40748 35.1525 7.37512 35 7.37512C34.8475 7.37512 34.6967 7.40748 34.5576 7.47007L28.0889 10.381L28.9737 12.3473L35 9.6355L41.0264 12.3474Z" fill="#C99565"/>
<path d="M35.0001 41.3576L32.3806 39.7859C31.5776 39.3038 30.8086 38.7671 30.0791 38.1796L28.7263 39.8586C29.5329 40.5083 30.3832 41.1018 31.2712 41.6349L34.4454 43.5393C34.613 43.6399 34.8047 43.693 35.0001 43.693C35.1955 43.693 35.3873 43.6399 35.5548 43.5393L38.7291 41.6348C39.617 41.1017 40.4672 40.5082 41.2738 39.8586L39.921 38.1796C39.1915 38.767 38.4226 39.3037 37.6196 39.7858L35.0001 41.3576Z" fill="#C99565"/>
<path d="M47.1596 25.0367L49.7967 21.0743C49.8331 21.0197 49.8644 20.9619 49.8902 20.9016C50.0332 20.5468 50.0935 20.1642 50.0667 19.7827C50.0399 19.4011 49.9265 19.0307 49.7353 18.6995C49.5441 18.3682 49.2799 18.0848 48.9629 17.8708C48.6459 17.6568 48.2844 17.5178 47.9056 17.4642C47.8283 17.4549 47.7502 17.4541 47.6728 17.4618L43.7786 17.8435C43.1103 17.7849 42.44 17.9329 41.8584 18.2675L39.1364 19.8409L29.8432 17.7757C29.7009 17.7441 29.5537 17.7417 29.4105 17.7685C29.2673 17.7954 29.131 17.851 29.0098 17.932L25.88 20.0257C25.7283 20.1272 25.6049 20.2655 25.5212 20.4277C25.4376 20.59 25.3965 20.7707 25.4018 20.9532C25.4071 21.1356 25.4587 21.3137 25.5516 21.4708C25.6445 21.6278 25.7758 21.7588 25.9331 21.8512L32.0259 25.4329L28.2814 28.4285L24.4936 27.4298C24.2561 27.3672 24.0044 27.3876 23.78 27.4875L21.6238 28.4481C21.4654 28.5186 21.3264 28.6263 21.2185 28.762C21.1107 28.8977 21.0371 29.0574 21.0041 29.2276C20.9711 29.3978 20.9796 29.5734 21.0289 29.7396C21.0782 29.9058 21.1669 30.0577 21.2874 30.1823L26.678 35.7575C26.8436 35.9287 27.0614 36.0403 27.2971 36.0748C27.5329 36.1093 27.7734 36.0647 27.9812 35.948L46.7902 25.3794C46.9387 25.296 47.0653 25.1785 47.1596 25.0367ZM27.65 33.6607L23.9082 29.7909L24.3107 29.6115L28.2563 30.6519C28.4191 30.6949 28.5896 30.6992 28.7543 30.6644C28.919 30.6295 29.0733 30.5566 29.2047 30.4514L34.5953 26.1389C34.7318 26.0297 34.8396 25.889 34.9096 25.7289C34.9796 25.5688 35.0097 25.3941 34.9972 25.2198C34.9847 25.0455 34.93 24.8769 34.8378 24.7284C34.7457 24.5799 34.6188 24.4561 34.4682 24.3675L28.5066 20.863L29.8255 19.9807L39.0785 22.0369C39.3421 22.0955 39.6181 22.053 39.8519 21.9179L42.9369 20.1347C43.1534 20.0124 43.4039 19.9643 43.6502 19.9975C43.7276 20.0067 43.8057 20.0075 43.8832 19.9999L47.7137 19.6244C47.7787 19.6596 47.8322 19.7128 47.8679 19.7776C47.9084 19.8439 47.9275 19.9212 47.9224 19.9988L45.5081 23.6265L27.65 33.6607Z" fill="#C99565"/>
</svg>
