<svg width="78" height="84" viewBox="0 0 78 84" fill="none" xmlns="http://www.w3.org/2000/svg">
<path d="M76.9078 25.8193L51.9863 0.89841C51.1076 0.0197773 49.7983 -0.241057 48.6512 0.234469C47.5034 0.709994 46.7613 1.81998 46.7613 3.06199V16.9484H10.9277C9.23962 16.9484 7.86688 18.3211 7.86688 20.0091V35.9578C7.86688 37.6452 9.23962 39.0186 10.9277 39.0186H15.9265L1.09224 53.8522C-0.101059 55.0455 -0.101059 56.9873 1.09224 58.1806L8.4584 65.5468C8.69872 65.7871 9.01403 65.907 9.3287 65.907C9.64337 65.907 9.95867 65.7871 10.199 65.5468C10.6797 65.0661 10.6797 64.2875 10.199 63.8068L2.83284 56.4407C2.59893 56.2068 2.59893 55.8261 2.83284 55.5922L27.7543 30.6713C28.0094 30.4156 28.2965 30.4951 28.4074 30.5412C28.5189 30.5873 28.7778 30.7335 28.7778 31.0956V46.2118C28.7778 46.8917 29.3283 47.4422 30.0083 47.4422H37.2072C37.8871 47.4422 38.4376 46.8917 38.4376 46.2118C38.4376 45.5324 37.8871 44.9813 37.2072 44.9813H31.2388V39.0186H46.7613V44.9813H42.8712C42.1912 44.9813 41.6407 45.5324 41.6407 46.2118C41.6407 46.8917 42.1912 47.4422 42.8712 47.4422H46.7613V52.9044C46.7613 54.1464 47.5034 55.2563 48.6506 55.7319C49.0319 55.8902 49.4305 55.9664 49.8253 55.9664C50.6199 55.9664 51.3992 55.6556 51.9863 55.0686L59.6126 47.4422H67.0724C67.403 47.4422 67.6722 47.7114 67.6722 48.0421V63.9908C67.6722 64.3214 67.403 64.5906 67.0724 64.5906H30.0083C29.3283 64.5906 28.7778 65.1411 28.7778 65.8211V80.9373C28.7778 81.2994 28.5189 81.4455 28.4074 81.4916C28.2959 81.5378 28.0094 81.6172 27.7543 81.3615L14.2044 67.8116C13.7231 67.331 12.9445 67.331 12.4638 67.8116C11.9832 68.2923 11.9832 69.0716 12.4638 69.5516L26.0137 83.1015C26.6008 83.6885 27.3801 84 28.1754 84C28.5702 84 28.9688 83.9231 29.3495 83.7654C30.4973 83.2899 31.2388 82.1799 31.2388 80.9373V67.0516H67.0724C68.7604 67.0516 70.1338 65.6782 70.1338 63.9908V48.0421C70.1338 46.3547 68.7604 44.9813 67.0724 44.9813H62.0742L66.2963 40.7599C66.7763 40.2786 66.7763 39.4999 66.2963 39.0193C65.8156 38.5386 65.0363 38.5386 64.5557 39.0193L50.2463 53.3286C49.9912 53.5843 49.7041 53.5049 49.5926 53.4587C49.4818 53.4126 49.2228 53.2658 49.2228 52.9044V37.7882C49.2228 37.1082 48.6717 36.5577 47.9924 36.5577H31.2388V31.0956C31.2388 29.8529 30.4973 28.7436 29.3495 28.268C28.2017 27.7919 26.8924 28.0527 26.0137 28.9313L18.3874 36.5577H10.9277C10.597 36.5577 10.3278 36.2885 10.3278 35.9578V20.0091C10.3278 19.6785 10.597 19.4093 10.9277 19.4093H47.9917C48.6717 19.4093 49.2222 18.8588 49.2222 18.1788V3.06199C49.2222 2.70054 49.4811 2.55442 49.5926 2.50827C49.7035 2.46149 49.9906 2.38202 50.2463 2.63837L75.1672 27.5592C75.4011 27.7932 75.4011 28.1738 75.1672 28.4071L68.5605 35.0138C68.0798 35.4945 68.0798 36.2738 68.5605 36.7544C69.0411 37.2344 69.8198 37.2344 70.3011 36.7544L76.9078 30.1477C78.1011 28.9544 78.1011 27.0126 76.9078 25.8193Z" fill="#C99565"/>
</svg>
