<svg width="72" height="84" viewBox="0 0 72 84" fill="none" xmlns="http://www.w3.org/2000/svg">
<path d="M2.12877 81.2903H11.6127V82.6452C11.6127 83.0045 11.7554 83.3491 12.0095 83.6032C12.2636 83.8573 12.6082 84 12.9676 84H23.8063C24.1657 84 24.5103 83.8573 24.7644 83.6032C25.0184 83.3491 25.1612 83.0045 25.1612 82.6452V79.9355H25.275C27.6136 79.9354 29.9083 80.5709 31.9137 81.774C34.3414 83.2308 37.1195 84.0002 39.9507 84H61.7421C62.82 84 63.8539 83.5718 64.6161 82.8095C65.3784 82.0473 65.8066 81.0134 65.8066 79.9355V78.5806C65.8051 78.0622 65.7039 77.5488 65.5085 77.0686C66.3688 76.837 67.1292 76.3291 67.6726 75.6231C68.216 74.9171 68.5125 74.0521 68.5163 73.1612V71.8064C68.5123 71.1062 68.3255 70.4192 67.9743 69.8134C68.554 69.4488 69.032 68.9434 69.3636 68.3443C69.6953 67.7451 69.8699 67.0718 69.8711 66.387V65.0321C69.8671 64.3319 69.6803 63.6449 69.3292 63.0392C69.9089 62.6746 70.3868 62.1692 70.7185 61.57C71.0502 60.9709 71.2247 60.2976 71.226 59.6128V58.2579C71.226 57.1799 70.7978 56.1461 70.0355 55.3838C69.2733 54.6216 68.2394 54.1934 67.1614 54.1934H60.3466C60.2464 53.5849 60.0274 53.0021 59.7019 52.4784C59.3764 51.9546 58.951 51.5001 58.4498 51.1409L57.6775 50.5922V4.06401C57.6797 3.07991 57.3239 2.12859 56.6765 1.38742C56.0291 0.646247 55.1343 0.165796 54.1588 0.035635C53.1833 -0.0945259 52.1938 0.134486 51.3747 0.679977C50.5556 1.22547 49.9629 2.05021 49.7069 3.00045L24.2792 10.3993C23.3754 10.5956 22.5663 11.0961 21.9871 11.8171C21.4079 12.5381 21.0935 13.436 21.0966 14.3608V20.8641C21.088 21.7761 21.3901 22.6638 21.9533 23.3812C22.5165 24.0986 23.3072 24.6028 24.1952 24.8108L49.5484 32.1784V46.0643H45.4839C44.0149 46.0603 42.5597 46.3476 41.2025 46.9097C39.8453 47.4718 38.613 48.2975 37.577 49.3389L32.7795 54.1378C31.9055 55.0165 30.8661 55.7133 29.7213 56.188C28.5764 56.6626 27.3489 56.9056 26.1096 56.9031H25.1612V54.1934C25.1612 53.834 25.0184 53.4894 24.7644 53.2353C24.5103 52.9813 24.1657 52.8385 23.8063 52.8385H12.9676C12.6082 52.8385 12.2636 52.9813 12.0095 53.2353C11.7554 53.4894 11.6127 53.834 11.6127 54.1934V55.5482H2.12877C1.76945 55.5482 1.42483 55.6909 1.17075 55.945C0.916668 56.1991 0.773926 56.5437 0.773926 56.9031V79.9355C0.773926 80.2948 0.916668 80.6394 1.17075 80.8935C1.42483 81.1476 1.76945 81.2903 2.12877 81.2903ZM14.3224 81.2903V77.1905C15.4858 78.0914 16.9155 78.5802 18.3869 78.5802C19.8584 78.5802 21.2881 78.0914 22.4515 77.1905V81.2903H14.3224ZM56.1398 63.6773H65.8066C66.1659 63.6773 66.5105 63.82 66.7646 64.0741C67.0187 64.3282 67.1614 64.6728 67.1614 65.0321V66.387C67.1614 66.7463 67.0187 67.0909 66.7646 67.345C66.5105 67.5991 66.1659 67.7418 65.8066 67.7418H53.613C53.3491 67.7348 53.0933 67.6489 52.8786 67.4953C53.7534 67.1778 54.4879 66.5617 54.9529 65.7556L56.1398 63.6773ZM63.0969 79.9355C63.0969 80.2948 62.9542 80.6394 62.7001 80.8935C62.446 81.1476 62.1014 81.2903 61.7421 81.2903H53.613C53.2536 81.2903 52.909 81.1476 52.6549 80.8935C52.4009 80.6394 52.2581 80.2948 52.2581 79.9355V78.5806C52.2581 78.2213 52.4009 77.8767 52.6549 77.6226C52.909 77.3685 53.2536 77.2258 53.613 77.2258H61.7421C62.1014 77.2258 62.446 77.3685 62.7001 77.6226C62.9542 77.8767 63.0969 78.2213 63.0969 78.5806V79.9355ZM65.8066 73.1612C65.8066 73.5206 65.6638 73.8652 65.4098 74.1192C65.1557 74.3733 64.8111 74.5161 64.4517 74.5161H53.613C53.2536 74.5161 52.909 74.3733 52.6549 74.1192C52.4009 73.8652 52.2581 73.5206 52.2581 73.1612V71.8064C52.2581 71.447 52.4009 71.1024 52.6549 70.8484C52.909 70.5943 53.2536 70.4515 53.613 70.4515H64.4517C64.8111 70.4515 65.1557 70.5943 65.4098 70.8484C65.6638 71.1024 65.8066 71.447 65.8066 71.8064V73.1612ZM59.5824 57.6496C59.7399 57.4134 59.876 57.1635 59.9889 56.9031H67.1614C67.5208 56.9031 67.8654 57.0458 68.1195 57.2999C68.3735 57.554 68.5163 57.8986 68.5163 58.2579V59.6128C68.5163 59.9721 68.3735 60.3167 68.1195 60.5708C67.8654 60.8249 67.5208 60.9676 67.1614 60.9676H57.687L59.5824 57.6496ZM53.613 2.70916C53.9723 2.70916 54.3169 2.8519 54.571 3.10599C54.8251 3.36007 54.9678 3.70468 54.9678 4.06401V48.6575L52.6646 47.0127C52.5359 46.9205 52.3936 46.8474 52.2581 46.7674V4.06401C52.2581 3.70468 52.4009 3.36007 52.6549 3.10599C52.909 2.8519 53.2536 2.70916 53.613 2.70916ZM24.8672 22.181C24.5665 22.1157 24.2973 21.9494 24.1043 21.7098C23.9113 21.4702 23.8061 21.1718 23.8063 20.8641V14.3608C23.8099 14.0383 23.9264 13.7272 24.1355 13.4817C24.3447 13.2361 24.6333 13.0716 24.9512 13.0168L49.5484 5.87002V29.3563L24.8672 22.181ZM26.1096 59.6128C27.7058 59.617 29.287 59.3046 30.7616 58.6937C32.2363 58.0828 33.5751 57.1854 34.7007 56.0536L39.4995 51.2561C40.2834 50.4673 41.2159 49.8417 42.2431 49.4157C43.2703 48.9897 44.3718 48.7715 45.4839 48.774H49.7029C50.1981 48.7734 50.681 48.9284 51.0835 49.217L56.8646 53.3452C57.2956 53.6542 57.5866 54.1215 57.6737 54.6447C57.7608 55.1678 57.637 55.7042 57.3293 56.1362C57.3024 56.1732 57.2776 56.2117 57.2548 56.2514L52.5941 64.4116C52.5047 64.5711 52.3813 64.7089 52.2326 64.8152C52.0839 64.9215 51.9136 64.9937 51.7338 65.0267C51.5549 65.0609 51.3707 65.056 51.1939 65.0123C51.0171 64.9686 50.8518 64.887 50.7095 64.7734L50.574 64.6623C49.6749 63.9499 49.0777 62.9245 48.9018 61.7909C48.726 60.6573 48.9845 59.4991 49.6256 58.5478L52.0278 54.9453L49.7733 53.4414L47.3807 57.0453C47.0814 57.5032 46.8342 57.9931 46.6436 58.5058L44.8661 61.0462C44.0035 62.2779 42.8566 63.2834 41.5225 63.9773C40.1885 64.6712 38.7068 65.033 37.2031 65.0321H34.6451V67.7418H37.2031C38.9827 67.7376 40.7394 67.3395 42.347 66.5761C43.9547 65.8127 45.3734 64.7029 46.5014 63.3264C46.9397 64.6854 47.768 65.8854 48.8832 66.7772L49.0187 66.8883C49.2184 67.0432 49.432 67.1793 49.6568 67.2947C49.8145 67.9663 50.141 68.5865 50.6052 69.0967C49.9287 69.8373 49.552 70.8032 49.5484 71.8064V73.1612C49.552 74.1644 49.9287 75.1303 50.6052 75.8709C49.9287 76.6116 49.552 77.5775 49.5484 78.5806V79.9355C49.5529 80.3981 49.6372 80.8564 49.7977 81.2903H39.9507C37.6121 81.2903 35.3174 80.6548 33.3119 79.4518C30.8843 77.995 28.1062 77.2255 25.275 77.2258H25.1612V59.6128H26.1096ZM14.3224 55.5482H22.4515V71.8064C22.4515 72.8844 22.0233 73.9182 21.261 74.6804C20.4988 75.4427 19.4649 75.8709 18.3869 75.8709C17.309 75.8709 16.2751 75.4427 15.5129 74.6804C14.7506 73.9182 14.3224 72.8844 14.3224 71.8064V55.5482ZM3.48362 58.2579H11.6127V78.5806H3.48362V58.2579Z" fill="#C99565"/>
</svg>
