<svg width="66" height="84" viewBox="0 0 66 84" fill="none" xmlns="http://www.w3.org/2000/svg">
<path d="M25.1061 51.0006C25.1113 51.0009 25.1163 51.0024 25.1214 51.0026C25.1319 51.0029 25.1424 51.0068 25.1529 51.0068C25.1532 51.0068 25.1537 51.0067 25.154 51.0067C25.1543 51.0067 25.1548 51.0068 25.1551 51.0068C25.1619 51.0068 25.1684 51.0042 25.1752 51.0042C25.2027 51.0044 25.2293 51.0083 25.2569 51.0083H25.2572H25.2574H25.2575C33.6137 51.0083 40.4118 44.2102 40.4118 35.8537C40.4118 27.4972 33.6137 20.6991 25.2575 20.6991C25.2418 20.6991 25.2265 20.7014 25.2108 20.7015C25.1919 20.7006 25.1729 20.7033 25.1538 20.7033C25.1172 20.7035 25.0812 20.7053 25.0449 20.7089C25.0241 20.7109 25.0031 20.7099 24.9822 20.713C16.7538 20.862 10.1029 27.59 10.1029 35.8537C10.1029 44.159 16.8201 50.9181 25.1061 51.0006ZM13.4695 41.0348H16.9126C17.7124 43.646 19.1089 46.031 21.0177 48.0066C17.6417 46.8249 14.9035 44.2844 13.4695 41.0348ZM38.1415 35.8535C38.1415 36.8558 38.015 37.8274 37.7975 38.7645H33.921C34.08 37.8047 34.1702 36.8243 34.1702 35.8255C34.1702 34.8473 34.082 33.8859 33.9266 32.9434H37.7978C38.0152 33.8804 38.1415 34.8516 38.1415 35.8535ZM31.8999 35.8818C31.8999 36.8624 31.8059 37.8262 31.6271 38.7647H26.3922V32.9436H31.6222C31.8048 33.8981 31.8999 34.8805 31.8999 35.8818ZM19.3109 41.0348H24.122V47.7663C21.898 45.9895 20.2518 43.6639 19.3109 41.0348ZM26.3922 47.5914V41.0346H31.0032C30.0931 43.5743 28.5148 45.8346 26.3922 47.5914ZM26.3922 30.6733V24.116C28.5104 25.8697 30.0864 28.1273 30.9974 30.6733H26.3922ZM24.122 23.941V30.6733H19.3047C20.2444 28.0502 21.8929 25.721 24.122 23.941ZM24.122 32.9434V38.7645H18.6857C18.5031 37.8097 18.4079 36.8271 18.4079 35.8255C18.4079 34.8452 18.5019 33.8815 18.6806 32.9434H24.122ZM16.3816 38.7645H12.7171C12.4995 37.8274 12.373 36.8558 12.373 35.8535C12.373 34.8514 12.4994 33.8802 12.7169 32.9434H16.387C16.2282 33.9028 16.1379 34.8831 16.1379 35.8816C16.1379 36.8599 16.2264 37.8218 16.3816 38.7645ZM29.164 48.1287C31.1305 46.1322 32.5713 43.7071 33.3891 41.0346H37.0451C35.5636 44.392 32.6945 47.0022 29.164 48.1287ZM37.0454 30.6733H33.3955C32.579 28.0066 31.1364 25.579 29.1655 23.579C32.6956 24.7056 35.5643 27.316 37.0454 30.6733ZM21.0188 23.7003C19.1142 25.6728 17.7195 28.056 16.9185 30.6733H13.4691C14.9032 27.4229 17.6421 24.8819 21.0188 23.7003ZM65.2173 14.9023C64.4394 13.3947 63.1263 12.2825 61.5196 11.7696L25.604 0.301992C23.9982 -0.212345 22.2829 -0.0660009 20.7755 0.712804C19.2683 1.4903 18.1557 2.80345 17.6429 4.40996L15.2592 11.8746H6.4064C2.91318 11.8746 0.0712891 14.7169 0.0712891 18.2101V77.6654C0.0712891 81.1586 2.91318 84 6.4064 84H44.1081C47.6014 84 50.4433 81.1586 50.4433 77.6654V67.2879L65.6277 19.7309C66.1406 18.1251 65.9951 16.4098 65.2173 14.9023ZM48.173 77.6654C48.173 79.9068 46.3494 81.7299 44.1081 81.7299H6.4064C4.16498 81.7299 2.34159 79.9068 2.34159 77.6654V18.2101C2.34159 15.9687 4.16514 14.1449 6.4064 14.1449H44.1081C46.3496 14.1449 48.173 15.9688 48.173 18.2101V77.6654ZM63.4654 19.0407L50.4433 59.8254V18.2101C50.4433 14.7169 47.6014 11.8746 44.1081 11.8746H17.6417L19.8051 5.10033C20.1335 4.07166 20.8478 3.22985 21.8163 2.72963C22.7844 2.23006 23.884 2.13621 24.9138 2.46434L60.8294 13.9321C61.8581 14.2609 62.7002 14.9749 63.1998 15.9437C63.6994 16.9117 63.7938 18.0121 63.4654 19.0407ZM40.5687 59.7839C40.5687 60.4106 40.0606 60.919 39.4335 60.919H11.0805C10.4535 60.919 9.9454 60.4106 9.9454 59.7839C9.9454 59.1572 10.4535 58.6487 11.0805 58.6487H39.4337C40.0607 58.6487 40.5687 59.1572 40.5687 59.7839ZM40.5687 67.7967C40.5687 68.4234 40.0606 68.9318 39.4335 68.9318H11.0805C10.4535 68.9318 9.9454 68.4234 9.9454 67.7967C9.9454 67.17 10.4535 66.6615 11.0805 66.6615H39.4337C40.0607 66.6617 40.5687 67.1701 40.5687 67.7967ZM34.1379 75.8097C34.1379 76.4364 33.6298 76.9448 33.0028 76.9448H17.5115C16.8844 76.9448 16.3763 76.4364 16.3763 75.8097C16.3763 75.183 16.8844 74.6745 17.5115 74.6745H33.0028C33.63 74.6745 34.1379 75.183 34.1379 75.8097Z" fill="#C99565"/>
</svg>
