<svg width="72" height="72" viewBox="0 0 72 72" fill="none" xmlns="http://www.w3.org/2000/svg">
<path d="M42 4.80029H30C29.34 4.80029 28.8 5.34029 28.8 6.00029C28.8 6.66029 29.34 7.20029 30 7.20029H42C42.66 7.20029 43.2 6.66029 43.2 6.00029C43.2 5.34029 42.66 4.80029 42 4.80029Z" fill="#C99565"/>
<path d="M38.4001 16.8003H33.6001C32.9401 16.8003 32.4001 17.3403 32.4001 18.0003V27.6003C32.4001 28.2603 32.9401 28.8003 33.6001 28.8003H38.4001C39.0601 28.8003 39.6001 28.2603 39.6001 27.6003V18.0003C39.6001 17.3403 39.0601 16.8003 38.4001 16.8003ZM37.2001 26.4003H34.8001V19.2003H37.2001V26.4003Z" fill="#C99565"/>
<path d="M43.2 18.0003V27.6003C43.2 28.2603 43.74 28.8003 44.4 28.8003H49.2C49.86 28.8003 50.4 28.2603 50.4 27.6003V18.0003C50.4 17.3403 49.86 16.8003 49.2 16.8003H44.4C43.74 16.8003 43.2 17.3403 43.2 18.0003ZM45.6 19.2003H48V26.4003H45.6V19.2003Z" fill="#C99565"/>
<path d="M60.6001 45.6003H65.4001C66.0601 45.6003 66.6001 45.0603 66.6001 44.4003V34.8003C66.6001 34.1403 66.0601 33.6003 65.4001 33.6003H60.6001C59.9401 33.6003 59.4001 34.1403 59.4001 34.8003V44.4003C59.4001 45.0603 59.9401 45.6003 60.6001 45.6003ZM61.8001 36.0003H64.2001V43.2003H61.8001V36.0003Z" fill="#C99565"/>
<path d="M60.6001 62.4H65.4001C66.0601 62.4 66.6001 61.86 66.6001 61.2V51.6C66.6001 50.94 66.0601 50.4 65.4001 50.4H60.6001C59.9401 50.4 59.4001 50.94 59.4001 51.6V61.2C59.4001 61.86 59.9401 62.4 60.6001 62.4ZM61.8001 52.8H64.2001V60H61.8001V52.8Z" fill="#C99565"/>
<path d="M27.6001 16.8003H22.8001C22.1401 16.8003 21.6001 17.3403 21.6001 18.0003V27.6003C21.6001 28.2603 22.1401 28.8003 22.8001 28.8003H27.6001C28.2601 28.8003 28.8001 28.2603 28.8001 27.6003V18.0003C28.8001 17.3403 28.2601 16.8003 27.6001 16.8003ZM26.4001 26.4003H24.0001V19.2003H26.4001V26.4003Z" fill="#C99565"/>
<path d="M38.4001 33.6003H33.6001C32.9401 33.6003 32.4001 34.1403 32.4001 34.8003V44.4003C32.4001 45.0603 32.9401 45.6003 33.6001 45.6003H38.4001C39.0601 45.6003 39.6001 45.0603 39.6001 44.4003V34.8003C39.6001 34.1403 39.0601 33.6003 38.4001 33.6003ZM37.2001 43.2003H34.8001V36.0003H37.2001V43.2003Z" fill="#C99565"/>
<path d="M49.2 33.6003H44.4C43.74 33.6003 43.2 34.1403 43.2 34.8003V44.4003C43.2 45.0603 43.74 45.6003 44.4 45.6003H49.2C49.86 45.6003 50.4 45.0603 50.4 44.4003V34.8003C50.4 34.1403 49.86 33.6003 49.2 33.6003ZM48 43.2003H45.6V36.0003H48V43.2003Z" fill="#C99565"/>
<path d="M27.6001 33.6003H22.8001C22.1401 33.6003 21.6001 34.1403 21.6001 34.8003V44.4003C21.6001 45.0603 22.1401 45.6003 22.8001 45.6003H27.6001C28.2601 45.6003 28.8001 45.0603 28.8001 44.4003V34.8003C28.8001 34.1403 28.2601 33.6003 27.6001 33.6003ZM26.4001 43.2003H24.0001V36.0003H26.4001V43.2003Z" fill="#C99565"/>
<path d="M70.8 21.6H56.4V9.6H57.6C58.26 9.6 58.8 9.06 58.8 8.4V3.6C58.8 2.94 58.26 2.4 57.6 2.4H48V1.2C48 0.54 47.46 0 46.8 0H25.2C24.54 0 24 0.54 24 1.2V2.4H14.4C13.74 2.4 13.2 2.94 13.2 3.6V8.4C13.2 9.06 13.74 9.6 14.4 9.6H15.6V21.6H1.2C0.54 21.6 0 22.14 0 22.8V70.8C0 71.46 0.54 72 1.2 72H70.8C71.46 72 72 71.46 72 70.8V22.8C72 22.14 71.46 21.6 70.8 21.6ZM15.6 69.6H2.4V28.8H15.6V69.6ZM15.6 26.4H2.4V24H15.6V26.4ZM26.4 2.4H45.6V9.6H26.4V2.4ZM15.6 7.2V4.8H24V7.2H15.6ZM34.8 69.6H28.8V57.6H34.8V69.6ZM43.2 69.6H37.2V57.6H43.2V69.6ZM43.2 55.2H28.8V52.8H43.2V55.2ZM54 22.8V69.6H45.6V51.6C45.6 50.94 45.06 50.4 44.4 50.4H27.6C26.94 50.4 26.4 50.94 26.4 51.6V69.6H18V9.6H24V10.8C24 11.46 24.54 12 25.2 12H46.8C47.46 12 48 11.46 48 10.8V9.6H54V22.8ZM48 7.2V4.8H56.4V7.2H48ZM69.6 69.6H56.4V28.8H69.6V69.6ZM69.6 26.4H56.4V24H69.6V26.4Z" fill="#C99565"/>
<path d="M6.60015 45.6003H11.4001C12.0601 45.6003 12.6001 45.0603 12.6001 44.4003V34.8003C12.6001 34.1403 12.0601 33.6003 11.4001 33.6003H6.60015C5.94015 33.6003 5.40015 34.1403 5.40015 34.8003V44.4003C5.40015 45.0603 5.94015 45.6003 6.60015 45.6003ZM7.80015 36.0003H10.2001V43.2003H7.80015V36.0003Z" fill="#C99565"/>
<path d="M6.60015 62.4H11.4001C12.0601 62.4 12.6001 61.86 12.6001 61.2V51.6C12.6001 50.94 12.0601 50.4 11.4001 50.4H6.60015C5.94015 50.4 5.40015 50.94 5.40015 51.6V61.2C5.40015 61.86 5.94015 62.4 6.60015 62.4ZM7.80015 52.8H10.2001V60H7.80015V52.8Z" fill="#C99565"/>
</svg>
