<svg width="121" height="120" viewBox="0 0 121 120" fill="none" xmlns="http://www.w3.org/2000/svg">
<g clip-path="url(#clip0_2028_5)">
<g clip-path="url(#clip1_2028_5)">
<path d="M35.7551 49.1668C35.7551 62.7366 46.7948 73.7762 60.3645 73.7762C73.9343 73.7762 84.974 62.7366 84.974 49.1668C84.974 35.597 73.9343 24.5574 60.3645 24.5574C46.7948 24.5574 35.7551 35.597 35.7551 49.1668ZM60.3645 27.8386C72.1251 27.8386 81.6927 37.4062 81.6927 49.1668C81.6927 60.9274 72.1251 70.4949 60.3645 70.4949C48.6039 70.4949 39.0364 60.9274 39.0364 49.1668C39.0364 37.4062 48.6039 27.8386 60.3645 27.8386Z" fill="#FAF4F0"/>
<path d="M45.1707 46.2421L51.53 52.5079L50.0669 61.3141C49.965 61.9274 50.2182 62.5452 50.7212 62.9105C51.2237 63.2758 51.8895 63.3251 52.4413 63.0393L60.3644 58.9249L68.2868 63.0393C68.8342 63.3232 69.5 63.279 70.0069 62.9105C70.51 62.5452 70.7632 61.9274 70.6613 61.3141L69.1982 52.5079L75.5575 46.2421C76.0004 45.8063 76.1587 45.1577 75.9664 44.5662C75.7741 43.9753 75.2646 43.544 74.65 43.4511L65.8246 42.1226L61.8314 34.1367C61.5539 33.5811 60.9854 33.2299 60.3644 33.2299C59.7428 33.2299 59.175 33.5811 58.8968 34.1367L54.9036 42.1226L46.0781 43.4511C45.4635 43.5434 44.954 43.9753 44.7618 44.5662C44.5695 45.1577 44.7285 45.8063 45.1707 46.2421ZM56.2346 45.2404C56.7627 45.1609 57.219 44.8296 57.4581 44.3522L60.3644 38.5388L63.2708 44.3522C63.5098 44.8296 63.9661 45.1609 64.4942 45.2404L70.9176 46.2075L66.2886 50.7673C65.9086 51.1422 65.7343 51.6786 65.8214 52.2054L66.8865 58.6147L61.12 55.6206C60.8835 55.4975 60.624 55.436 60.3644 55.436C60.1049 55.436 59.8453 55.4975 59.6082 55.6206L53.8416 58.6147L54.9068 52.2054C54.9946 51.6786 54.8202 51.1422 54.4396 50.7673L49.8112 46.2075L56.2346 45.2404Z" fill="#FAF4F0"/>
<path d="M62.0051 19.6355C62.0051 20.5417 61.2707 21.2761 60.3645 21.2761C59.4583 21.2761 58.7239 20.5417 58.7239 19.6355C58.7239 18.7293 59.4583 17.9949 60.3645 17.9949C61.2707 17.9949 62.0051 18.7293 62.0051 19.6355Z" fill="#FAF4F0"/>
<path d="M52.6325 18.962C38.8313 22.4848 29.1926 34.9055 29.1926 49.1668C29.1926 58.0243 32.9167 66.3703 39.4542 72.2811L29.5701 89.7006C29.2522 90.2613 29.292 90.956 29.6714 91.4764C30.0508 91.9975 30.6993 92.248 31.3306 92.1167L42.5554 89.7858L46.5006 100.903C46.7147 101.508 47.2626 101.932 47.9022 101.989C48.5418 102.046 49.1551 101.723 49.4723 101.165L60.3645 82.0159L71.2561 101.165C71.5497 101.681 72.0957 101.994 72.6814 101.994C72.7295 101.994 72.7782 101.992 72.8263 101.989C73.4659 101.932 74.0138 101.507 74.2285 100.903L78.173 89.7858L89.3979 92.1167C90.0285 92.2474 90.6777 91.9968 91.0571 91.4764C91.4371 90.956 91.4762 90.2613 91.1584 89.7006L81.2742 72.2811C87.8117 66.3703 91.5358 58.0243 91.5358 49.1668C91.5358 34.9055 81.8971 22.4848 68.0966 18.962C67.218 18.7377 66.3253 19.2677 66.101 20.1457C65.8767 21.0236 66.4067 21.917 67.2847 22.1413C79.6317 25.2931 88.2552 36.4065 88.2552 49.1668C88.2552 64.697 75.6423 77.0575 60.3645 77.0575C45.076 77.0575 32.4739 64.6868 32.4739 49.1668C32.4739 36.4065 41.0968 25.2931 53.4438 22.1413C54.3218 21.917 54.8518 21.0236 54.6281 20.1457C54.4038 19.2677 53.5111 18.7377 52.6325 18.962ZM48.3937 96.4259L45.1695 87.3402C44.8952 86.5674 44.0929 86.1155 43.2898 86.2822L34.2132 88.167L42.0357 74.3806C46.5967 77.6964 51.9973 79.7165 57.6133 80.2163L48.3937 96.4259ZM77.4386 86.2822C76.6362 86.1155 75.8332 86.5674 75.5589 87.3402L72.3354 96.4259L63.1152 80.2163C68.7318 79.7165 74.1317 77.6964 78.6934 74.3806L86.5159 88.167L77.4386 86.2822Z" fill="#FAF4F0"/>
</g>
</g>
<defs>
<clipPath id="clip0_2028_5">
<rect x="0.199951" y="-0.00488281" width="120" height="120" rx="4" fill="white"/>
</clipPath>
<clipPath id="clip1_2028_5">
<rect width="84" height="84" fill="white" transform="translate(18.2 17.9951)"/>
</clipPath>
</defs>
</svg>
