<svg width="121" height="120" viewBox="0 0 121 120" fill="none" xmlns="http://www.w3.org/2000/svg">
<g clip-path="url(#clip0_2028_122)">
<g clip-path="url(#clip1_2028_122)">
<path d="M50.1677 42.4891C50.3764 42.7579 50.4494 43.1149 50.3627 43.4442L48.8275 49.2785C48.4818 50.5927 48.9011 51.966 49.922 52.8626C50.5871 53.4467 51.4196 53.7516 52.2671 53.7516C52.7208 53.7516 53.1787 53.6643 53.6174 53.4856L60.3497 50.7447C60.6172 50.6358 60.9121 50.6359 61.1793 50.7446L61.5811 50.9083C62.2112 51.1651 62.9299 50.8625 63.1863 50.2325C63.4429 49.6026 63.1405 48.8839 62.5105 48.6274L62.1082 48.4635C61.2417 48.1108 60.2871 48.1108 59.4209 48.4635L52.6886 51.2044C52.1198 51.4356 51.7011 51.1469 51.5477 51.0121C51.3938 50.8771 51.0534 50.4991 51.2096 49.9053L52.7448 44.0711C53.0254 43.0051 52.7893 41.8487 52.1128 40.978L48.1983 35.9387C47.971 35.6464 47.9063 35.2766 48.0206 34.9242C48.1347 34.5718 48.4043 34.3105 48.76 34.207L54.2518 32.6102C55.0852 32.3679 55.8003 31.831 56.2655 31.0983L59.8357 25.4747C60.1281 25.0138 60.5828 24.9642 60.7646 24.9642C60.9464 24.9642 61.4009 25.0139 61.6934 25.4747L65.2636 31.0983C65.7288 31.831 66.4439 32.3679 67.2773 32.6102L72.7689 34.2069C73.1247 34.3105 73.3944 34.5719 73.5085 34.9242C73.6228 35.2766 73.5581 35.6462 73.3308 35.9388L69.4163 40.9778C68.7401 41.8485 68.5038 43.0047 68.7843 44.071L70.3195 49.9053C70.4757 50.4991 70.1353 50.8771 69.9816 51.0119C69.8277 51.1469 69.4089 51.4356 68.8403 51.2044L67.3729 50.6069C66.7425 50.3506 66.0242 50.6533 65.7679 51.2832C65.5114 51.9133 65.8142 52.6319 66.4441 52.8882L67.9115 53.4856C69.17 53.9979 70.586 53.7592 71.6071 52.8626C72.628 51.9658 73.0474 50.5925 72.7016 49.2785L71.1663 43.4443C71.0798 43.1147 71.1527 42.7577 71.3614 42.4889L75.2759 37.4499C76.0009 36.5167 76.2162 35.2884 75.8515 34.1643C75.4868 33.04 74.5917 32.1718 73.4566 31.8416L67.9652 30.2449C67.7079 30.1702 67.487 30.0043 67.3435 29.7782L63.7733 24.1548C63.1161 23.1191 61.9915 22.501 60.7651 22.501H60.765C59.5384 22.501 58.4138 23.1192 57.7564 24.1546L54.1863 29.7782C54.0427 30.0043 53.8219 30.1702 53.5646 30.2449L48.0726 31.8419C46.9378 32.1719 46.0426 33.0401 45.6779 34.1645C45.3132 35.2885 45.5285 36.5168 46.2535 37.4499L50.1677 42.4891Z" fill="#FAF4F0"/>
<path d="M74.8743 42.8844C74.6254 43.6518 74.7723 44.4901 75.2673 45.1269L77.2738 47.7098L76.487 50.6996C76.2509 51.5967 76.5373 52.5342 77.2342 53.1462C77.6881 53.5449 78.2566 53.753 78.835 53.753C79.1447 53.753 79.4572 53.6935 79.7567 53.5715L83.212 52.1649L86.6672 53.5715C87.5256 53.921 88.4926 53.7586 89.1895 53.1464C89.8865 52.5342 90.1728 51.5967 89.9369 50.6998L89.1501 47.7098L91.1565 45.1269C91.6516 44.4899 91.7984 43.6516 91.5496 42.8842C91.3008 42.1169 90.6898 41.5242 89.9149 41.2988L87.098 40.4797L85.2657 37.5935C84.817 36.8867 84.0494 36.4648 83.212 36.4648C82.3749 36.4648 81.6074 36.8867 81.1584 37.5936L79.3263 40.4797L76.5092 41.2989C75.7341 41.5244 75.1229 42.117 74.8743 42.8844ZM80.0248 42.8417C80.5938 42.6764 81.0819 42.3098 81.3993 41.8098L83.2119 38.9545L85.0243 41.8098C85.3419 42.3098 85.8297 42.6763 86.3989 42.8419L89.1835 43.6516L87.1957 46.2107C86.7337 46.805 86.5725 47.5945 86.7641 48.322L87.5389 51.2671L84.129 49.8789C83.5377 49.638 82.8862 49.638 82.2946 49.8789L78.8845 51.267L79.6595 48.3218C79.8509 47.5942 79.6897 46.8051 79.2281 46.211L77.2401 43.6516L80.0248 42.8417Z" fill="#FAF4F0"/>
<path d="M32.2512 47.7098L31.4645 50.6998C31.2284 51.5969 31.5149 52.5344 32.2118 53.1464C32.6659 53.5451 33.234 53.753 33.8126 53.753C34.1221 53.753 34.4348 53.6934 34.7341 53.5715L38.1893 52.1649L41.6447 53.5715C42.5035 53.9215 43.4702 53.7586 44.1672 53.1462C44.8641 52.534 45.1503 51.5965 44.9143 50.6998L44.1276 47.7098L46.1339 45.1269C46.629 44.4899 46.7758 43.6516 46.5271 42.8842C46.2783 42.1169 45.6672 41.5242 44.8923 41.2988L42.0754 40.4797L40.2431 37.5935C39.7945 36.8867 39.0268 36.4648 38.1897 36.4648C37.3523 36.4648 36.5848 36.8867 36.1358 37.5936L34.3037 40.4797L31.4867 41.2989C30.7119 41.5242 30.1009 42.1169 29.8521 42.8842C29.6031 43.6516 29.7501 44.4899 30.2451 45.1267L32.2512 47.7098ZM35.0025 42.8415C35.5715 42.6762 36.0595 42.3097 36.3769 41.8096L38.1895 38.9543L40.0019 41.8096C40.3195 42.3097 40.8074 42.6762 41.3765 42.8417L44.1611 43.6514L42.1731 46.2109C41.7115 46.805 41.5503 47.5942 41.7417 48.3218L42.5165 51.267L39.1066 49.8787C38.8109 49.7583 38.5002 49.6981 38.1893 49.6981C37.8786 49.6981 37.5679 49.7582 37.2722 49.8787L33.8622 51.267L34.6371 48.3221C34.8287 47.5942 34.6675 46.8048 34.2057 46.2109L32.2177 43.6514L35.0025 42.8415Z" fill="#FAF4F0"/>
<path d="M95.2456 45.2681H94.6497C93.9694 45.2681 93.4181 45.8193 93.4181 46.4997C93.4181 47.18 93.9694 47.7313 94.6497 47.7313H95.2456C97.9428 47.7313 100.137 49.9256 100.137 52.623V84.1326C100.137 86.8299 97.9428 89.0243 95.2456 89.0243H82.6605C81.9802 89.0243 81.429 89.5756 81.429 90.2559C81.429 90.9362 81.9802 91.4875 82.6605 91.4875H95.2456C99.301 91.4875 102.6 88.188 102.6 84.1326V52.623C102.6 48.5676 99.301 45.2681 95.2456 45.2681Z" fill="#FAF4F0"/>
<path d="M77.4122 89.0242H66.9607C66.2635 89.0242 65.6015 89.3261 65.1445 89.8528L60.6935 94.9826C60.6845 94.993 60.6567 95.025 60.6006 95.025C60.5444 95.025 60.5165 94.9931 60.5075 94.9824L55.7061 89.4486C55.4721 89.179 55.1328 89.0242 54.7758 89.0242H25.9555C23.2581 89.0242 21.0638 86.8298 21.0638 84.1324V52.6228C21.0638 49.9256 23.2581 47.7313 25.9553 47.7313H26.751C27.4313 47.7313 27.9825 47.18 27.9825 46.4997C27.9825 45.8193 27.4313 45.2681 26.751 45.2681H25.9553C21.8999 45.2679 18.6006 48.5673 18.6006 52.6228V84.1326C18.6006 88.188 21.9001 91.4875 25.9555 91.4875H54.2137L58.6468 96.5968C59.1384 97.1633 59.8506 97.4885 60.6008 97.4883C61.3507 97.4883 62.0627 97.1633 62.5542 96.5968L66.9875 91.4875H77.412C78.0924 91.4875 78.6436 90.9362 78.6436 90.2559C78.6436 89.5756 78.0924 89.0242 77.4122 89.0242Z" fill="#FAF4F0"/>
<path d="M93.3047 59.1512H35.3288C34.6484 59.1512 34.0972 59.7025 34.0972 60.3828C34.0972 61.0632 34.6484 61.6144 35.3288 61.6144H93.3047C93.985 61.6144 94.5363 61.0632 94.5363 60.3828C94.5363 59.7025 93.9849 59.1512 93.3047 59.1512Z" fill="#FAF4F0"/>
<path d="M93.3046 66.6472H28.2174C27.5371 66.6472 26.9858 67.1985 26.9858 67.8788C26.9858 68.5591 27.5371 69.1104 28.2174 69.1104H93.3044C93.9847 69.1104 94.536 68.5591 94.536 67.8788C94.536 67.1985 93.9847 66.6472 93.3046 66.6472Z" fill="#FAF4F0"/>
<path d="M93.3046 74.1428H28.2174C27.5371 74.1428 26.9858 74.6941 26.9858 75.3744C26.9858 76.0547 27.5371 76.606 28.2174 76.606H93.3044C93.9847 76.606 94.536 76.0547 94.536 75.3744C94.536 74.6941 93.9847 74.1428 93.3046 74.1428Z" fill="#FAF4F0"/>
<path d="M93.3046 81.6384H28.2174C27.5371 81.6384 26.9858 82.1897 26.9858 82.87C26.9858 83.5504 27.5371 84.1016 28.2174 84.1016H93.3044C93.9847 84.1016 94.536 83.5504 94.536 82.87C94.536 82.1897 93.9847 81.6384 93.3046 81.6384Z" fill="#FAF4F0"/>
</g>
</g>
<defs>
<clipPath id="clip0_2028_122">
<rect x="0.600098" y="-0.00488281" width="120" height="120" rx="4" fill="white"/>
</clipPath>
<clipPath id="clip1_2028_122">
<rect width="84" height="84" fill="white" transform="translate(18.6001 17.9951)"/>
</clipPath>
</defs>
</svg>
