<svg width="120" height="120" viewBox="0 0 120 120" fill="none" xmlns="http://www.w3.org/2000/svg">
<g clip-path="url(#clip0_2028_421)">
<path d="M94.7618 54.2283C94.7618 35.0634 79.1698 19.4712 60.0046 19.4712C40.8395 19.4712 25.2477 35.0634 25.2477 54.2283C25.2477 57.9998 25.8475 61.695 27.0281 65.2325L20.3325 67.0265C19.9434 67.1309 19.6374 67.4313 19.526 67.8183C19.4146 68.2055 19.5143 68.6225 19.7886 68.9177L26.0294 75.6324L22.8656 76.4801C22.5713 76.5589 22.3206 76.7515 22.1682 77.0153C22.016 77.2789 21.9746 77.5926 22.0535 77.8868L23.6389 83.8032C23.7214 84.1108 23.9278 84.3704 24.209 84.52L26.0678 85.5085L24.982 87.7194C24.7835 88.1238 24.8396 88.607 25.1258 88.9549C25.3472 89.2243 25.6745 89.3741 26.0128 89.3741C26.1119 89.3741 26.2117 89.3613 26.3101 89.3351L30.9337 88.0961L32.6812 89.0253C33.0035 89.1966 33.3479 89.2831 33.6985 89.2831C33.8888 89.2831 34.0809 89.2576 34.2721 89.2063L42.1661 87.0912L38.174 99.0048C38.0398 99.4059 38.1366 99.8484 38.4263 100.156C38.6463 100.391 38.9505 100.518 39.263 100.518C39.3621 100.518 39.462 100.505 39.5603 100.479L47.4489 98.3652C47.7408 98.287 47.9902 98.0968 48.1427 97.8361L49.9277 94.7872L58.3376 92.5336C58.9502 92.3694 59.3138 91.7397 59.1497 91.1271L58.5678 88.9551C59.0473 88.9746 59.5275 88.9855 60.0051 88.9855C79.1698 88.9855 94.7618 73.3934 94.7618 54.2283ZM80.6019 79.2981C80.3019 78.7865 80.4181 78.4018 80.6916 77.6958C81.9178 74.5309 80.9246 71.6598 80.1264 69.3526C79.1816 66.6216 79.0946 65.8415 80.2234 65.1455C84.9075 62.2579 84.9784 58.2369 85.0302 55.3008C85.0625 53.469 85.0881 52.0223 85.9949 51.1356C86.9568 50.1952 88.9818 49.7619 92.1638 49.8159C92.3609 51.2591 92.4649 52.7316 92.4649 54.2282C92.4649 64.3141 87.841 73.3398 80.6019 79.2981ZM60.0046 21.7682C63.38 21.7682 66.6365 22.2867 69.6992 23.2471C70.976 27.5518 71.1066 30.6696 70.0797 32.5133C69.1313 34.2165 67.2908 34.6896 65.5109 35.1472C65.0973 35.2533 64.7067 35.3539 64.3329 35.4694C63.4171 35.7528 62.3079 36.2177 61.8553 37.3077C61.3568 38.508 61.9158 39.821 62.3796 40.7042C63.0846 42.0464 64.9318 43.3485 66.8874 44.7275C67.8814 45.4282 68.9091 46.1528 69.6791 46.8202C70.153 47.2311 70.4167 47.6612 70.3509 47.9163C70.2804 48.1903 69.8026 48.5532 68.8945 48.7465C68.6474 48.799 67.7887 48.8408 66.9581 48.8814C64.7597 48.9885 61.4372 49.1506 58.9448 49.8408C56.6894 50.4654 55.4402 51.4325 55.1259 52.7977C54.7894 54.26 55.6299 55.8563 57.6958 57.6772C59.4885 59.258 63.627 63.6729 62.414 66.0039C61.8774 66.0686 61.3452 66.1696 60.8212 66.3099L56.8686 67.3689C55.5679 66.7648 54.5932 65.6372 53.9319 64.8711C53.1819 64.0017 52.2983 62.2897 51.3628 60.477C49.5046 56.8766 47.3986 52.7957 44.5975 51.7039C44.3609 51.6117 44.1061 51.5448 43.8113 51.4676C42.0293 51.0006 38.7121 50.1312 38.2936 41.5781C38.2166 40.0044 36.1891 35.8792 34.689 33.9363C40.6433 26.5229 49.7784 21.7682 60.0046 21.7682ZM68.5851 69.4322C68.653 69.4679 68.719 69.506 68.7857 69.5431L64.4883 70.6946L63.824 68.2155C65.9061 68.2204 67.6135 68.9193 68.5851 69.4322ZM33.2619 35.8525C34.3433 37.49 35.9509 40.691 35.9998 41.6902C36.5005 51.9259 41.2157 53.1616 43.2291 53.6894C43.4456 53.7461 43.6504 53.7998 43.7636 53.8438C45.7558 54.6203 47.7331 58.4518 49.322 61.5304C50.3648 63.5512 51.2657 65.2965 52.1931 66.3716C52.6171 66.8629 53.1914 67.5264 53.9269 68.1572L40.6708 71.7092L29.5463 64.9264C29.4719 64.8811 29.393 64.8456 29.3118 64.8186C28.1393 61.4212 27.5444 57.863 27.5444 54.2283C27.5445 47.412 29.6581 41.0808 33.2619 35.8525ZM22.7697 68.7515L28.7706 67.1435L37.6058 72.5305L28.5396 74.9598L22.7697 68.7515ZM33.7115 84.9736L28.1583 86.4617L30.2852 82.1303L38.2924 79.9848L33.7115 84.9736ZM35.4058 86.5245L42.654 78.6305C42.9994 78.2543 43.0548 77.6952 42.7902 77.2586C42.5256 76.8219 42.0042 76.6127 41.5108 76.7444L29.1871 80.0467C28.867 80.1325 28.5996 80.3523 28.4534 80.6498L27.0806 83.4456L25.7282 82.7265L24.5694 78.4016L61.4159 68.5285C61.4517 68.5188 61.4871 68.5108 61.5229 68.5018L62.567 72.3983C62.7044 72.9114 63.1686 73.2497 63.6757 73.2497C63.774 73.2497 63.874 73.2369 63.9735 73.2104L71.0903 71.3035C71.7233 71.9732 72.17 72.6832 72.3493 73.3526C72.8082 75.0651 71.3171 76.9023 68.9547 77.5352L68.1982 77.738L63.3038 79.0493L58.3666 80.3722L61.3588 75.2611C61.5942 74.8592 61.5634 74.3549 61.2809 73.9846C60.9984 73.6141 60.5196 73.4517 60.0704 73.5715L45.9729 77.3487C45.6008 77.4483 45.3035 77.728 45.1811 78.093L43.0414 84.4783L35.4058 86.5245ZM46.3984 96.2685L41.0311 97.7069L47.163 79.408L57.9637 76.5141L46.3984 96.2685ZM51.5785 91.9668L53.6129 88.492L55.9009 87.8789L56.6335 90.6125L51.5785 91.9668ZM57.8224 86.1751C57.7437 85.8807 57.5511 85.6301 57.2873 85.4776C57.0234 85.3252 56.7096 85.2842 56.4158 85.363L55.264 85.6716L56.7152 83.1927L69.549 79.754C73.1554 78.7873 75.3601 75.7146 74.568 72.7582C74.0356 70.7714 72.1539 68.7187 69.6572 67.4009C68.1223 66.5908 66.4866 66.1106 64.8456 65.967C65.1068 64.6694 64.8243 62.9108 63.2979 60.5853C61.7693 58.2564 59.6284 56.3191 59.2147 55.9543C57.7077 54.6258 57.2709 53.7187 57.3644 53.3125C57.4418 52.9762 58.0585 52.4691 59.5579 52.054C61.8042 51.4319 64.9731 51.2775 67.07 51.1753C68.3016 51.1152 68.9633 51.0798 69.3724 50.9928C71.0918 50.6272 72.2593 49.7146 72.5751 48.4896C72.7482 47.8182 72.7974 46.4833 71.1837 45.0846C70.3268 44.3419 69.2514 43.5836 68.2112 42.8503C66.6408 41.743 64.8609 40.4881 64.4135 39.6359C63.8501 38.5635 63.9621 38.2237 63.9767 38.1884C63.9997 38.1333 64.142 37.9325 65.012 37.6636C65.3326 37.5645 65.6971 37.4707 66.083 37.3716C68.014 36.8753 70.6584 36.1954 72.0865 33.6308C73.2914 31.4673 73.3751 28.3683 72.3411 24.2057C82.1324 28.2439 89.5313 36.937 91.7647 47.5137C88.0934 47.4988 85.7892 48.1247 84.3891 49.4935C82.808 51.0393 82.7703 53.1851 82.7335 55.2603C82.682 58.1922 82.6331 60.9618 79.018 63.1902C76.1713 64.9452 77.1195 67.6856 77.9557 70.1035C78.701 72.2581 79.4718 74.4861 78.5498 76.8662C78.1288 77.9532 77.7898 79.2146 78.7783 80.6949C73.475 84.4677 66.9942 86.6884 60.0046 86.6884C59.319 86.6884 58.6285 86.6659 57.9424 86.623L57.8224 86.1751ZM56.7934 72.2133C56.6294 71.6007 56.9929 70.9711 57.6055 70.8068L60.2443 70.0997C60.8563 69.9362 61.4868 70.2991 61.6508 70.9118C61.8149 71.5244 61.4513 72.1541 60.8387 72.3184L58.1999 73.0255C58.1005 73.052 58.0003 73.0648 57.902 73.0648C57.3949 73.065 56.9309 72.7265 56.7934 72.2133ZM49.7506 74.1007C49.5865 73.4881 49.9501 72.8583 50.5625 72.6941L53.2013 71.9868C53.8147 71.823 54.4436 72.1863 54.608 72.7987C54.772 73.4113 54.4085 74.0412 53.796 74.2054L51.1572 74.9127C51.0576 74.9392 50.9576 74.952 50.8593 74.952C50.3522 74.952 49.8882 74.6137 49.7506 74.1007ZM46.7533 76.0928L44.1144 76.7999C44.0149 76.8265 43.9149 76.8393 43.8166 76.8393C43.3095 76.8393 42.8453 76.501 42.7078 75.9878C42.5438 75.3752 42.9073 74.7455 43.52 74.5813L46.1589 73.8742C46.771 73.7106 47.4012 74.0735 47.5654 74.6863C47.7295 75.2989 47.3659 75.9285 46.7533 76.0928ZM99.3594 78.1255C99.2325 77.708 98.8797 77.3984 98.4494 77.3269C98.0186 77.2547 97.5849 77.4337 97.3295 77.7875C94.009 82.387 91.5051 82.6325 88.8544 82.8925C88.615 82.916 88.3776 82.9391 88.1417 82.9654C85.3667 83.2738 82.6772 84.8316 81.1234 87.031C80.0285 88.5809 79.6273 90.2968 79.9938 91.8626C80.2101 92.7874 80.7756 93.9918 82.1732 95.0878C81.3277 95.2843 80.4483 95.4579 79.535 95.6082C78.9092 95.7112 78.4854 96.302 78.5882 96.9279C78.6807 97.4906 79.1678 97.89 79.7199 97.89C79.7819 97.89 79.8447 97.885 79.9079 97.8745C81.3636 97.635 82.7419 97.3379 84.0431 96.9847C85.2445 99.3012 87.1726 100.518 89.6433 100.518C90.1651 100.518 90.7109 100.464 91.279 100.355C94.3303 99.7668 96.691 98.1198 98.2955 95.459C101.204 90.6353 100.926 83.2776 99.3594 78.1255ZM85.011 94.1352C83.4483 93.4025 82.4866 92.4359 82.2302 91.3393C82.0154 90.4217 82.2884 89.3623 82.9993 88.3563C84.1678 86.7025 86.286 85.4824 88.3956 85.2481C88.6216 85.223 88.8493 85.2007 89.0786 85.1782C91.3368 84.9569 94.0469 84.6908 97.1126 81.6104C96.9029 83.3219 96.301 85.5659 94.7396 87.7581C92.6918 90.6336 89.4908 92.8032 85.1899 94.2409C85.1338 94.2008 85.0744 94.1649 85.011 94.1352ZM96.3287 94.2732C95.0746 96.3529 93.2294 97.6401 90.8446 98.0996C88.7444 98.5045 87.2636 97.9274 86.2799 96.294C90.893 94.6889 94.3662 92.2642 96.6414 89.0467C97.3165 88.092 97.8366 87.1335 98.2377 86.2026C98.2284 89.1329 97.6771 92.037 96.3287 94.2732Z" fill="#FAF4F0"/>
</g>
<defs>
<clipPath id="clip0_2028_421">
<rect y="-0.00488281" width="120" height="120" rx="4" fill="white"/>
</clipPath>
</defs>
</svg>
