<svg width="121" height="120" viewBox="0 0 121 120" fill="none" xmlns="http://www.w3.org/2000/svg">
<g clip-path="url(#clip0_2028_144)">
<path d="M97.9001 31.4951H22.9001C21.7071 31.4964 20.5632 31.9709 19.7196 32.8146C18.876 33.6582 18.4014 34.802 18.4001 35.9951V83.9951C18.4014 85.1882 18.876 86.332 19.7196 87.1757C20.5632 88.0193 21.7071 88.4938 22.9001 88.4951H97.9001C99.0932 88.4938 100.237 88.0193 101.081 87.1757C101.924 86.332 102.399 85.1882 102.4 83.9951V35.9951C102.399 34.802 101.924 33.6582 101.081 32.8146C100.237 31.9709 99.0932 31.4964 97.9001 31.4951ZM99.4001 83.9951C99.3997 84.3928 99.2416 84.7741 98.9604 85.0553C98.6791 85.3366 98.2979 85.4947 97.9001 85.4951H22.9001C22.5024 85.4947 22.1211 85.3366 21.8399 85.0553C21.5587 84.7741 21.4005 84.3928 21.4001 83.9951V35.9951C21.4005 35.5974 21.5587 35.2161 21.8399 34.9349C22.1211 34.6537 22.5024 34.4955 22.9001 34.4951H97.9001C98.2979 34.4955 98.6791 34.6537 98.9604 34.9349C99.2416 35.2161 99.3997 35.5974 99.4001 35.9951V83.9951Z" fill="#FAF4F0"/>
<path d="M57.9512 61.8261L54.2766 60.5971C54.0265 60.5124 53.7584 60.4956 53.4997 60.5486C53.241 60.6016 53.0011 60.7224 52.8045 60.8987C50.2793 63.1138 47.0349 64.3351 43.676 64.3351C40.317 64.3352 37.0726 63.1139 34.5474 60.8989C34.3503 60.7226 34.11 60.6018 33.851 60.5488C33.5919 60.4958 33.3235 60.5125 33.073 60.5971L29.416 61.8261C27.9308 62.3173 26.6381 63.264 25.7215 64.5317C24.805 65.7995 24.3112 67.3238 24.3103 68.8881V75.0243C24.3103 77.4882 26.2285 80.2436 28.7957 80.2436H58.5701C59.7551 80.2422 60.8911 79.771 61.7291 78.9331C62.5671 78.0953 63.0385 76.9593 63.0401 75.7743V68.8881C63.0417 67.3255 62.5509 65.8021 61.6374 64.5344C60.7238 63.2667 59.434 62.319 57.9512 61.8261ZM60.0401 75.7744C60.0396 76.164 59.8845 76.5375 59.6089 76.813C59.3333 77.0884 58.9597 77.2433 58.5701 77.2436H28.7957C28.1431 77.2436 27.3103 75.9985 27.3103 75.0244V68.8881C27.3118 67.9529 27.6081 67.042 28.157 66.2848C28.706 65.5277 29.4798 64.9629 30.3682 64.6709L33.229 63.7099C36.2049 66.0584 39.8853 67.3356 43.6762 67.3353C47.4671 67.3351 51.1473 66.0573 54.1228 63.7084L57.0005 64.6708C57.886 64.9653 58.6562 65.5312 59.2019 66.2882C59.7475 67.0452 60.0408 67.9549 60.0401 68.8881V75.7744Z" fill="#FAF4F0"/>
<path d="M43.6809 61.3546C45.8179 61.3546 47.9069 60.7209 49.6837 59.5337C51.4605 58.3465 52.8454 56.659 53.6632 54.6847C54.4809 52.7104 54.6949 50.5379 54.278 48.442C53.8611 46.3461 52.832 44.4209 51.321 42.9099C49.8099 41.3988 47.8847 40.3698 45.7888 39.9529C43.6929 39.536 41.5204 39.7499 39.5461 40.5677C37.5718 41.3855 35.8844 42.7704 34.6971 44.5472C33.5099 46.324 32.8762 48.413 32.8762 50.55C32.8795 53.4145 34.0189 56.1608 36.0445 58.1864C38.0701 60.2119 40.8163 61.3513 43.6809 61.3546ZM43.6809 42.7453C45.2245 42.7453 46.7335 43.203 48.017 44.0606C49.3004 44.9182 50.3008 46.1371 50.8915 47.5632C51.4822 48.9893 51.6368 50.5586 51.3356 52.0726C51.0345 53.5865 50.2912 54.9772 49.1997 56.0687C48.1082 57.1602 46.7175 57.9035 45.2035 58.2047C43.6896 58.5058 42.1203 58.3513 40.6942 57.7605C39.2681 57.1698 38.0491 56.1695 37.1915 54.886C36.334 53.6025 35.8762 52.0936 35.8762 50.55C35.8785 48.4807 36.7015 46.4969 38.1647 45.0337C39.6278 43.5705 41.6117 42.7475 43.6809 42.7453Z" fill="#FAF4F0"/>
<path d="M94.9006 68.9952H67.9006C67.5028 68.9952 67.1213 69.1533 66.84 69.4346C66.5587 69.7159 66.4006 70.0974 66.4006 70.4952C66.4006 70.8931 66.5587 71.2746 66.84 71.5559C67.1213 71.8372 67.5028 71.9952 67.9006 71.9952H94.9006C95.2985 71.9952 95.68 71.8372 95.9613 71.5559C96.2426 71.2746 96.4006 70.8931 96.4006 70.4952C96.4006 70.0974 96.2426 69.7159 95.9613 69.4346C95.68 69.1533 95.2985 68.9952 94.9006 68.9952Z" fill="#FAF4F0"/>
<path d="M67.9006 64.4951H81.4006C81.7985 64.4951 82.18 64.3371 82.4613 64.0558C82.7426 63.7745 82.9006 63.3929 82.9006 62.9951C82.9006 62.5973 82.7426 62.2158 82.4613 61.9345C82.18 61.6532 81.7985 61.4951 81.4006 61.4951H67.9006C67.5028 61.4951 67.1213 61.6532 66.84 61.9345C66.5587 62.2158 66.4006 62.5973 66.4006 62.9951C66.4006 63.3929 66.5587 63.7745 66.84 64.0558C67.1213 64.3371 67.5028 64.4951 67.9006 64.4951Z" fill="#FAF4F0"/>
<path d="M94.9006 76.4952H67.9006C67.5028 76.4952 67.1213 76.6533 66.84 76.9346C66.5587 77.2159 66.4006 77.5974 66.4006 77.9952C66.4006 78.3931 66.5587 78.7746 66.84 79.0559C67.1213 79.3372 67.5028 79.4952 67.9006 79.4952H94.9006C95.2985 79.4952 95.68 79.3372 95.9613 79.0559C96.2426 78.7746 96.4006 78.3931 96.4006 77.9952C96.4006 77.5974 96.2426 77.2159 95.9613 76.9346C95.68 76.6533 95.2985 76.4952 94.9006 76.4952Z" fill="#FAF4F0"/>
<path d="M73.6404 55.1671L92.5823 47.5105C92.951 47.3613 93.2453 47.0717 93.4005 46.7056C93.5557 46.3394 93.5591 45.9265 93.4099 45.5578C93.2608 45.1891 92.9712 44.8948 92.605 44.7396C92.2388 44.5844 91.826 44.581 91.4573 44.7302L84.5148 47.5368L77.597 42.549C77.2737 42.3262 76.876 42.2389 76.4892 42.3058C76.1023 42.3727 75.7571 42.5886 75.5275 42.9071C75.298 43.2256 75.2023 43.6213 75.2611 44.0095C75.32 44.3977 75.5285 44.7473 75.8422 44.9835L81.2267 48.8659L72.6187 52.3459L70.25 50.6115C69.9287 50.3846 69.5312 50.293 69.143 50.3564C68.7548 50.4198 68.407 50.6332 68.1746 50.9505C67.9422 51.2678 67.8437 51.6637 67.9004 52.053C67.9571 52.4422 68.1644 52.7936 68.4777 53.0315C69.8795 53.9282 71.7971 56.1279 73.6404 55.1671Z" fill="#FAF4F0"/>
</g>
<defs>
<clipPath id="clip0_2028_144">
<rect x="0.400146" y="-0.00488281" width="120" height="120" rx="4" fill="white"/>
</clipPath>
</defs>
</svg>
