<svg width="121" height="120" viewBox="0 0 121 120" fill="none" xmlns="http://www.w3.org/2000/svg">
<g clip-path="url(#clip0_2028_286)">
<path d="M94.0753 62.5674C93.323 62.2621 92.4658 62.6235 92.1602 63.3754C91.8543 64.1274 92.2161 64.9848 92.9681 65.2905L97.9323 67.3089C98.1138 67.3826 98.3012 67.4175 98.4854 67.4175C99.0657 67.4175 99.6156 67.0716 99.8474 66.5009C100.153 65.7489 99.7916 64.8915 99.0396 64.5858L94.0753 62.5674Z" fill="#FAF4F0"/>
<path d="M89.1109 60.5493C88.3589 60.2436 87.5015 60.6053 87.1958 61.3573C86.89 62.1093 87.2518 62.9667 88.004 63.2724L88.8314 63.6087C89.0127 63.6824 89.2 63.7173 89.3842 63.7173C89.9645 63.7173 90.5144 63.3714 90.7465 62.8007C91.0522 62.0487 90.6904 61.1913 89.9383 60.8856L89.1109 60.5493Z" fill="#FAF4F0"/>
<path d="M51.2456 55.9806C51.43 55.9806 51.6173 55.9457 51.7986 55.872L56.7629 53.8537C57.5149 53.5479 57.8766 52.6904 57.5709 51.9386C57.265 51.1864 56.407 50.8247 55.6558 51.1306L50.6915 53.1489C49.9396 53.4547 49.5778 54.3123 49.8835 55.064C50.1154 55.6347 50.6653 55.9806 51.2456 55.9806Z" fill="#FAF4F0"/>
<path d="M23.1147 67.4177C23.2991 67.4177 23.4865 67.3828 23.6677 67.3091L28.632 65.2907C29.384 64.985 29.7458 64.1274 29.44 63.3756C29.1341 62.6235 28.2763 62.2619 27.525 62.5676L22.5607 64.586C21.8087 64.8917 21.4469 65.7493 21.7527 66.5011C21.9847 67.0718 22.5344 67.4177 23.1147 67.4177Z" fill="#FAF4F0"/>
<path d="M46.2814 57.9985C46.4657 57.9985 46.6532 57.9636 46.8345 57.8899L47.6619 57.5536C48.4139 57.2479 48.7756 56.3905 48.4699 55.6385C48.1642 54.8865 47.3064 54.5246 46.5548 54.8305L45.7274 55.1668C44.9755 55.4725 44.6137 56.3299 44.9194 57.0819C45.1514 57.6526 45.7012 57.9985 46.2814 57.9985Z" fill="#FAF4F0"/>
<path d="M32.2158 63.7172C32.4 63.7172 32.5875 63.6824 32.7688 63.6087L33.5962 63.2724C34.3482 62.9667 34.71 62.1093 34.4042 61.3573C34.0985 60.6053 33.2409 60.2436 32.4892 60.5493L31.6617 60.8856C30.9098 61.1913 30.548 62.0487 30.8537 62.8007C31.0858 63.3713 31.6355 63.7172 32.2158 63.7172Z" fill="#FAF4F0"/>
<path d="M37.1801 61.699C37.3645 61.699 37.5519 61.6642 37.7332 61.5905L42.6975 59.5721C43.4494 59.2664 43.8112 58.4088 43.5055 57.657C43.1996 56.9051 42.3418 56.5435 41.5904 56.849L36.6261 58.8674C35.8741 59.1731 35.5124 60.0307 35.8181 60.7825C36.0501 61.3531 36.5998 61.699 37.1801 61.699Z" fill="#FAF4F0"/>
<path d="M109.5 99.0555H104.546V85.1172C104.546 84.3055 103.888 83.6474 103.076 83.6474C102.265 83.6474 101.607 84.3055 101.607 85.1172V91.3265H62.2698V47.1079L68.7984 49.7622V52.2907L65.9444 51.1303C65.1916 50.8246 64.335 51.1864 64.0293 51.9383C63.7235 52.6903 64.0851 53.5477 64.8371 53.8534L68.7984 55.4639V76.4309C68.7984 77.0288 69.1607 77.5672 69.7146 77.7926L72.9821 79.1211C73.3511 79.2712 73.7652 79.2649 74.1295 79.104C74.4938 78.9431 74.7774 78.6411 74.915 78.2672L76.8612 72.9809L78.3185 80.568C78.4124 81.0568 78.7473 81.465 79.2083 81.6523L83.3665 83.343C83.545 83.4155 83.7328 83.4512 83.9199 83.4512C84.2084 83.4512 84.4947 83.3663 84.7407 83.2007C85.1464 82.9275 85.39 82.4705 85.39 81.9814V56.5079L101.607 63.1015V78.258C101.607 79.0697 102.265 79.7278 103.077 79.7278C103.889 79.7278 104.547 79.0697 104.547 78.258V36.6539C104.547 36.056 104.184 35.5176 103.63 35.2922L61.3536 18.1033C60.9983 17.9591 60.6012 17.9591 60.2463 18.1033L48.7025 22.7967C47.9505 23.1025 47.5888 23.9601 47.8945 24.7118C48.2002 25.4638 49.0578 25.8252 49.8096 25.5198L59.3301 21.6493V32.925L19.9933 48.9187V37.643L43.4433 28.1085C44.1952 27.8028 44.557 26.9452 44.2513 26.1934C43.9454 25.4413 43.0876 25.0799 42.3362 25.3854L17.97 35.2922C17.416 35.5174 17.0538 36.0558 17.0538 36.6539V99.0555H12.0997C11.288 99.0555 10.6299 99.7136 10.6299 100.525C10.6299 101.337 11.288 101.995 12.0997 101.995H109.5C110.312 101.995 110.97 101.337 110.97 100.525C110.97 99.7136 110.312 99.0555 109.5 99.0555ZM82.4501 79.7974L81.0548 79.2299L78.751 67.2363C78.6266 66.588 78.0853 66.1021 77.4272 66.0485C76.7727 65.9953 76.1563 66.3861 75.9284 67.0056L72.6815 75.8253L71.7382 75.4416V50.9574L82.4503 55.3128V79.7974H82.4501ZM62.2698 21.6493L101.607 37.643V48.9185L62.2698 32.925V21.6493ZM62.2698 36.0983L101.607 52.092V59.9281L62.2698 43.9344V36.0983ZM59.3301 91.3265H39.0465C38.2348 91.3265 37.5767 91.9846 37.5767 92.7963C37.5767 93.6081 38.2348 94.2662 39.0465 94.2662H59.3301V99.0555H19.9933V94.2662H32.1873C32.9991 94.2662 33.6572 93.6081 33.6572 92.7963C33.6572 91.9846 32.9991 91.3265 32.1873 91.3265H19.9933V63.1015L59.3301 47.1079V91.3265ZM59.3301 43.9344L19.9933 59.9281V52.092L59.3301 36.0983V43.9344ZM101.607 99.0555H62.2698V94.2662H101.607V99.0555Z" fill="#FAF4F0"/>
</g>
<defs>
<clipPath id="clip0_2028_286">
<rect x="0.800049" y="-0.00488281" width="120" height="120" rx="4" fill="white"/>
</clipPath>
</defs>
</svg>
