<svg width="24" height="22" viewBox="0 0 24 22" fill="none" xmlns="http://www.w3.org/2000/svg">
<path d="M20.632 1.21599H17.816V0.815991C17.816 0.603818 17.7317 0.400335 17.5817 0.250306C17.4317 0.100277 17.2282 0.0159912 17.016 0.0159912C16.8038 0.0159912 16.6003 0.100277 16.4503 0.250306C16.3003 0.400335 16.216 0.603818 16.216 0.815991V1.21599H7.784V0.815991C7.784 0.603818 7.69971 0.400335 7.54969 0.250306C7.39966 0.100277 7.19617 0.0159912 6.984 0.0159912C6.77183 0.0159912 6.56834 0.100277 6.41831 0.250306C6.26829 0.400335 6.184 0.603818 6.184 0.815991V1.21599H3.368C2.4754 1.2181 1.61996 1.57362 0.988798 2.20479C0.357633 2.83595 0.00211267 3.69139 0 4.58399V18.616C0.00211267 19.5086 0.357633 20.364 0.988798 20.9952C1.61996 21.6264 2.4754 21.9819 3.368 21.984H20.632C21.5246 21.9819 22.38 21.6264 23.0112 20.9952C23.6424 20.364 23.9979 19.5086 24 18.616V4.58399C23.9979 3.69139 23.6424 2.83595 23.0112 2.20479C22.38 1.57362 21.5246 1.2181 20.632 1.21599ZM3.368 2.81599H6.184V3.21599C6.184 3.42816 6.26829 3.63165 6.41831 3.78168C6.56834 3.93171 6.77183 4.01599 6.984 4.01599C7.19617 4.01599 7.39966 3.93171 7.54969 3.78168C7.69971 3.63165 7.784 3.42816 7.784 3.21599V2.81599H16.216V3.21599C16.216 3.42816 16.3003 3.63165 16.4503 3.78168C16.6003 3.93171 16.8038 4.01599 17.016 4.01599C17.2282 4.01599 17.4317 3.93171 17.5817 3.78168C17.7317 3.63165 17.816 3.42816 17.816 3.21599V2.81599H20.632C21.1009 2.81599 21.5506 3.00226 21.8822 3.33383C22.2137 3.66539 22.4 4.11509 22.4 4.58399V6.47999H1.6V4.58399C1.6 4.11509 1.78627 3.66539 2.11784 3.33383C2.4494 3.00226 2.8991 2.81599 3.368 2.81599ZM20.632 20.416H3.368C3.13311 20.416 2.90056 20.3693 2.68394 20.2784C2.46733 20.1876 2.27098 20.0545 2.10638 19.8869C1.94178 19.7193 1.81223 19.5206 1.72528 19.3024C1.63834 19.0842 1.59575 18.8508 1.6 18.616V8.07999H22.4V18.616C22.4043 18.8508 22.3617 19.0842 22.2747 19.3024C22.1878 19.5206 22.0582 19.7193 21.8936 19.8869C21.729 20.0545 21.5327 20.1876 21.3161 20.2784C21.0994 20.3693 20.8669 20.416 20.632 20.416Z" fill="#CCD5D7"/>
</svg>
