<?xml version="1.0" encoding="utf-8"?>
<!-- Generator: Adobe Illustrator 23.0.0, SVG Export Plug-In . SVG Version: 6.00 Build 0)  -->
<svg version="1.1" id="Layer_1" xmlns="http://www.w3.org/2000/svg" xmlns:xlink="http://www.w3.org/1999/xlink" x="0px" y="0px"
	 viewBox="0 0 16.4 19.9" style="enable-background:new 0 0 16.4 19.9;" xml:space="preserve">
<style type="text/css">
	.st0{fill:none;}
	.st1{fill:#00AEEF;}
</style>
<g>
	<path class="st0" d="M15,5.1C14.9,3.9,14,3,13,3h-0.8v0.8c0,0.4-0.3,0.8-0.7,0.8c-0.4,0-0.7-0.3-0.7-0.8V3H5.6v0.8
		c0,0.4-0.3,0.8-0.7,0.8S4.3,4.2,4.3,3.8V3H3.4c-1,0-1.9,0.9-2,2.1c0,0.3,0,0.6,0,0.9H15C15,5.7,15,5.4,15,5.1z"/>
	<path class="st0" d="M1.4,7.5c-0.1,2.9-0.1,5.7,0.1,8.6c0.1,1.1,0.9,2,1.8,2.1c3.2,0.2,6.5,0.2,9.8,0c1-0.1,1.8-1,1.8-2.1
		c0.2-2.8,0.2-5.7,0.1-8.6H1.4z M4.9,15.8c-0.5,0-1-0.5-1-1.1s0.4-1.1,1-1.1s1,0.5,1,1.1S5.5,15.8,4.9,15.8z M4.9,12
		c-0.5,0-1-0.5-1-1.1s0.4-1.1,1-1.1s1,0.5,1,1.1S5.5,12,4.9,12z M8.2,15.8c-0.5,0-1-0.5-1-1.1s0.4-1.1,1-1.1s1,0.5,1,1.1
		S8.7,15.8,8.2,15.8z M8.2,12c-0.5,0-1-0.5-1-1.1s0.4-1.1,1-1.1s1,0.5,1,1.1S8.7,12,8.2,12z M11.5,15.8c-0.5,0-1-0.5-1-1.1
		s0.4-1.1,1-1.1c0.5,0,1,0.5,1,1.1S12,15.8,11.5,15.8z M11.5,12c-0.5,0-1-0.5-1-1.1s0.4-1.1,1-1.1c0.5,0,1,0.5,1,1.1S12,12,11.5,12z
		"/>
	<path class="st1" d="M16.3,5c-0.1-2-1.5-3.5-3.3-3.5h-0.8V0.8c0-0.4-0.3-0.8-0.7-0.8c-0.4,0-0.7,0.3-0.7,0.8v0.8H5.6V0.8
		C5.6,0.3,5.3,0,4.9,0S4.3,0.3,4.3,0.8v0.8H3.4C1.7,1.5,0.2,3,0.1,5c-0.2,3.7-0.2,7.5,0,11.2c0.1,1.9,1.4,3.4,3.1,3.5
		c1.7,0.1,3.3,0.2,5,0.2c1.7,0,3.3-0.1,5-0.2c1.6-0.1,3-1.6,3.1-3.5C16.5,12.5,16.5,8.7,16.3,5z M1.5,5.1C1.5,3.9,2.4,3,3.4,3h0.8
		v0.8c0,0.4,0.3,0.8,0.7,0.8s0.7-0.3,0.7-0.8V3h5.2v0.8c0,0.4,0.3,0.8,0.7,0.8c0.4,0,0.7-0.3,0.7-0.8V3H13c1,0,1.9,0.9,2,2.1
		c0,0.3,0,0.6,0,0.9H1.4C1.4,5.7,1.4,5.4,1.5,5.1z M14.9,16.1c-0.1,1.1-0.9,2-1.8,2.1c-3.2,0.2-6.5,0.2-9.8,0c-1-0.1-1.8-1-1.8-2.1
		c-0.2-2.9-0.2-5.7-0.1-8.6H15C15.1,10.4,15.1,13.2,14.9,16.1z"/>
	<ellipse class="st1" cx="4.9" cy="10.9" rx="1" ry="1.1"/>
	<ellipse class="st1" cx="8.2" cy="10.9" rx="1" ry="1.1"/>
	<ellipse class="st1" cx="4.9" cy="14.6" rx="1" ry="1.1"/>
	<path class="st1" d="M11.5,9.8c-0.5,0-1,0.5-1,1.1s0.4,1.1,1,1.1c0.5,0,1-0.5,1-1.1S12,9.8,11.5,9.8z"/>
	<path class="st1" d="M11.5,13.5c-0.5,0-1,0.5-1,1.1s0.4,1.1,1,1.1c0.5,0,1-0.5,1-1.1S12,13.5,11.5,13.5z"/>
	<ellipse class="st1" cx="8.2" cy="14.6" rx="1" ry="1.1"/>
</g>
</svg>
