<svg width="25" height="18" viewBox="0 0 25 18" fill="none" xmlns="http://www.w3.org/2000/svg">
<path d="M22.0557 0.790039H2.27441C1.10896 0.790039 0.165039 1.73982 0.165039 2.89941V15.5557C0.165039 16.7221 1.1159 17.665 2.27441 17.665H22.0557C23.2114 17.665 24.165 16.7261 24.165 15.5557V2.89941C24.165 1.74188 23.2249 0.790039 22.0557 0.790039ZM21.7603 2.19629C21.3293 2.62496 13.9127 10.0025 13.6566 10.2572C13.2582 10.6557 12.7285 10.8751 12.165 10.8751C11.6016 10.8751 11.0719 10.6556 10.6722 10.2559C10.4999 10.0846 3.16518 2.78851 2.56982 2.19629H21.7603ZM1.57129 15.2694V3.18652L7.64807 9.23129L1.57129 15.2694ZM2.57071 16.2588L8.6451 10.223L9.67912 11.2516C10.3431 11.9156 11.226 12.2813 12.165 12.2813C13.1041 12.2813 13.9869 11.9156 14.6496 11.2529L15.685 10.223L21.7594 16.2588H2.57071ZM22.7588 15.2694L16.682 9.23129L22.7588 3.18652V15.2694Z" fill="#000000"/>
</svg>
