<svg width="42" height="43" viewBox="0 0 42 43" fill="none" xmlns="http://www.w3.org/2000/svg">
<path d="M21.0397 0.352539C9.52948 0.352539 0.165039 9.71698 0.165039 21.2272C0.165039 32.7367 9.52948 42.1019 21.0397 42.1019C32.5492 42.1019 41.9144 32.7367 41.9144 21.2272C41.9144 9.71698 32.5508 0.352539 21.0397 0.352539ZM26.2311 21.9621H22.8349V34.0669H17.8025C17.8025 34.0669 17.8025 27.4528 17.8025 21.9621H15.4103V17.6839H17.8025V14.9167C17.8025 12.9349 18.7442 9.83806 22.8812 9.83806L26.6103 9.85235V14.0053C26.6103 14.0053 24.3442 14.0053 23.9036 14.0053C23.463 14.0053 22.8366 14.2256 22.8366 15.1707V17.6848H26.6708L26.2311 21.9621Z" fill="white"/>
</svg>
