<svg viewBox="0 0 11 7" fill="none" xmlns="http://www.w3.org/2000/svg">
<path d="M5.17605 4.59179L8.83305 0.934787C8.8996 0.8617 8.98015 0.802708 9.06991 0.761305C9.15968 0.719901 9.25683 0.696927 9.35563 0.693743C9.45443 0.690559 9.55287 0.707228 9.64511 0.742766C9.73735 0.778303 9.82153 0.831986 9.89266 0.900636C9.96378 0.969285 10.0204 1.05151 10.0592 1.14243C10.098 1.23336 10.1181 1.33114 10.1184 1.42999C10.1188 1.52885 10.0992 1.62676 10.061 1.71793C10.0228 1.8091 9.96673 1.89168 9.89605 1.96079L9.87805 1.97879L5.69905 6.15879C5.56046 6.29734 5.37252 6.37518 5.17655 6.37518C4.98058 6.37518 4.79263 6.29734 4.65405 6.15879L0.475048 1.97979C0.40525 1.91235 0.349418 1.83183 0.31074 1.74282C0.272061 1.65381 0.251293 1.55805 0.249621 1.46102C0.24795 1.36398 0.265408 1.26756 0.300998 1.17727C0.336588 1.08698 0.389614 1.00458 0.457048 0.934787C0.524482 0.86499 0.605003 0.809158 0.694014 0.770479C0.783025 0.7318 0.878783 0.711032 0.97582 0.709361C1.07286 0.707689 1.16927 0.725147 1.25956 0.760737C1.34985 0.796328 1.43225 0.849353 1.50205 0.916787L1.52005 0.934787L5.17605 4.59179Z" fill="#C99565" stroke="#C99565" stroke-width="0.5"/>
</svg>
