<svg viewBox="0 0 7 11" fill="none" xmlns="http://www.w3.org/2000/svg">
<path d="M4.24145 5.54221L0.584445 1.88521C0.511358 1.81866 0.452366 1.73811 0.410963 1.64835C0.369559 1.55859 0.346585 1.46143 0.343401 1.36263C0.340216 1.26383 0.356886 1.16539 0.392424 1.07315C0.427961 0.980907 0.481643 0.896732 0.550293 0.825606C0.618943 0.75448 0.701165 0.697851 0.792091 0.65907C0.883018 0.620289 0.980801 0.600143 1.07965 0.599827C1.1785 0.59951 1.27641 0.619029 1.36759 0.657227C1.45876 0.695426 1.54134 0.751529 1.61044 0.822213L1.62844 0.840214L5.80845 5.01921C5.947 5.1578 6.02484 5.34574 6.02484 5.54171C6.02484 5.73768 5.947 5.92563 5.80845 6.06421L1.62945 10.2432C1.56201 10.313 1.48149 10.3688 1.39248 10.4075C1.30347 10.4462 1.20771 10.467 1.11067 10.4686C1.01364 10.4703 0.91722 10.4529 0.826929 10.4173C0.736639 10.3817 0.654243 10.3286 0.584445 10.2612C0.514648 10.1938 0.458816 10.1133 0.420137 10.0242C0.381458 9.93524 0.36069 9.83948 0.359019 9.74244C0.357347 9.6454 0.374805 9.54899 0.410395 9.4587C0.445986 9.36841 0.499012 9.28601 0.566445 9.21621L0.584445 9.19821L4.24145 5.54221Z" fill="#C99565" stroke="#C99565" stroke-width="0.5"/>
</svg>
