<svg width="43" height="43" viewBox="0 0 43 43" fill="none" xmlns="http://www.w3.org/2000/svg">
<g clip-path="url(#clip0_55_464)">
<path d="M25.7848 21.2275C25.7848 23.4342 23.996 25.223 21.7892 25.223C19.5825 25.223 17.7937 23.4342 17.7937 21.2275C17.7937 19.0208 19.5825 17.2319 21.7892 17.2319C23.996 17.2319 25.7848 19.0208 25.7848 21.2275Z" fill="#000000"/>
<path d="M31.1334 14.1578C30.9413 13.6374 30.6349 13.1663 30.2368 12.7796C29.8501 12.3814 29.3793 12.075 28.8585 11.883C28.4361 11.7189 27.8017 11.5237 26.633 11.4705C25.3688 11.4128 24.9897 11.4004 21.7892 11.4004C18.5884 11.4004 18.2093 11.4125 16.9454 11.4701C15.7768 11.5237 15.142 11.7189 14.7199 11.883C14.1991 12.075 13.728 12.3814 13.3417 12.7796C12.9435 13.1663 12.6371 13.6371 12.4447 14.1578C12.2807 14.5802 12.0854 15.215 12.0322 16.3837C11.9746 17.6476 11.9622 18.0266 11.9622 21.2275C11.9622 24.428 11.9746 24.807 12.0322 26.0712C12.0854 27.2399 12.2807 27.8744 12.4447 28.2967C12.6371 28.8175 12.9432 29.2883 13.3414 29.675C13.728 30.0731 14.1988 30.3796 14.7196 30.5716C15.142 30.736 15.7768 30.9312 16.9454 30.9844C18.2093 31.0421 18.5881 31.0542 21.7889 31.0542C24.9901 31.0542 25.3691 31.0421 26.6327 30.9844C27.8013 30.9312 28.4361 30.736 28.8585 30.5716C29.9039 30.1684 30.7302 29.3421 31.1334 28.2967C31.2974 27.8744 31.4927 27.2399 31.5462 26.0712C31.6039 24.807 31.616 24.428 31.616 21.2275C31.616 18.0266 31.6039 17.6476 31.5462 16.3837C31.493 15.215 31.2978 14.5802 31.1334 14.1578ZM21.7892 27.3823C18.3896 27.3823 15.6338 24.6267 15.6338 21.2271C15.6338 17.8275 18.3896 15.072 21.7892 15.072C25.1885 15.072 27.9444 17.8275 27.9444 21.2271C27.9444 24.6267 25.1885 27.3823 21.7892 27.3823ZM28.1877 16.2671C27.3933 16.2671 26.7493 15.623 26.7493 14.8286C26.7493 14.0343 27.3933 13.3902 28.1877 13.3902C28.9821 13.3902 29.6262 14.0343 29.6262 14.8286C29.6258 15.623 28.9821 16.2671 28.1877 16.2671Z" fill="#000000"/>
<path d="M21.7892 0.352539C10.2622 0.352539 0.914551 9.70022 0.914551 21.2272C0.914551 32.7543 10.2622 42.1019 21.7892 42.1019C33.3163 42.1019 42.6639 32.7543 42.6639 21.2272C42.6639 9.70022 33.3163 0.352539 21.7892 0.352539ZM33.7036 26.1691C33.6456 27.4451 33.4427 28.3163 33.1465 29.0788C32.5238 30.689 31.251 31.9618 29.6408 32.5845C28.8786 32.8807 28.0071 33.0833 26.7314 33.1416C25.4532 33.1999 25.0449 33.2139 21.7896 33.2139C18.5339 33.2139 18.1259 33.1999 16.8474 33.1416C15.5717 33.0833 14.7002 32.8807 13.938 32.5845C13.1379 32.2835 12.4135 31.8117 11.8147 31.2018C11.2051 30.6033 10.7333 29.8786 10.4323 29.0788C10.1361 28.3166 9.9332 27.4451 9.87523 26.1694C9.8163 24.8909 9.80261 24.4825 9.80261 21.2272C9.80261 17.9719 9.8163 17.5636 9.87491 16.2854C9.93288 15.0094 10.1355 14.1382 10.4317 13.3757C10.7327 12.5758 11.2047 11.8512 11.8147 11.2527C12.4132 10.6427 13.1379 10.171 13.9377 9.87C14.7002 9.57377 15.5714 9.37119 16.8474 9.3129C18.1256 9.25461 18.5339 9.24059 21.7892 9.24059C25.0445 9.24059 25.4529 9.25461 26.7311 9.31322C28.0071 9.37119 28.8783 9.57377 29.6408 9.86968C30.4406 10.1707 31.1653 10.6427 31.7641 11.2527C32.3738 11.8515 32.8458 12.5758 33.1465 13.3757C33.443 14.1382 33.6456 15.0094 33.7039 16.2854C33.7622 17.5636 33.7759 17.9719 33.7759 21.2272C33.7759 24.4825 33.7622 24.8909 33.7036 26.1691Z" fill="#000000"/>
</g>
<defs>
<clipPath id="clip0_55_464">
<rect width="41.7494" height="41.7494" fill="#000000" transform="translate(0.914551 0.352539)"/>
</clipPath>
</defs>
</svg>
