<svg width="24" height="24" viewBox="0 0 24 24" fill="none" xmlns="http://www.w3.org/2000/svg">
<path d="M18.9677 14.8662C18.4763 14.3545 17.8837 14.081 17.2556 14.081C16.6326 14.081 16.0349 14.3495 15.5232 14.861L13.9225 16.4567C13.7909 16.3858 13.6591 16.3199 13.5325 16.254C13.3502 16.1629 13.1779 16.0768 13.031 15.9856C11.5317 15.0332 10.1691 13.7923 8.86228 12.1866C8.22912 11.3862 7.80362 10.7125 7.49463 10.0287C7.91 9.64881 8.29496 9.25371 8.6698 8.87382C8.81163 8.73198 8.95346 8.58508 9.09529 8.44325C10.159 7.37953 10.159 6.00175 9.09529 4.93802L7.71244 3.55518C7.55542 3.39816 7.39333 3.23606 7.24137 3.07396C6.93745 2.75991 6.61833 2.43573 6.28908 2.13181C5.79774 1.64553 5.21016 1.38721 4.59218 1.38721C3.9742 1.38721 3.3765 1.64553 2.86996 2.13181C2.8649 2.13687 2.8649 2.13687 2.85982 2.14195L1.13761 3.87937C0.489239 4.52773 0.119467 5.31793 0.0384214 6.23475C-0.0831474 7.71385 0.352473 9.09163 0.686787 9.99326C1.50738 12.2069 2.7332 14.2583 4.5618 16.4567C6.78042 19.1058 9.44986 21.1979 12.4992 22.6718C13.6643 23.224 15.2194 23.8775 16.9567 23.9888C17.0632 23.9939 17.1745 23.999 17.2758 23.999C18.4459 23.999 19.4286 23.5786 20.1985 22.7428C20.2037 22.7327 20.2138 22.7276 20.2188 22.7174C20.4822 22.3984 20.7862 22.1096 21.1052 21.8006C21.323 21.5929 21.546 21.3751 21.7638 21.1472C22.2653 20.6255 22.5287 20.0176 22.5287 19.3945C22.5287 18.7664 22.2601 18.1637 21.7486 17.6572L18.9677 14.8662ZM20.7811 20.2C20.776 20.2 20.776 20.205 20.7811 20.2C20.5835 20.4127 20.3809 20.6052 20.1631 20.818C19.8338 21.132 19.4995 21.4613 19.1855 21.831C18.6739 22.3781 18.0712 22.6364 17.281 22.6364C17.2049 22.6364 17.1239 22.6364 17.0479 22.6314C15.5435 22.5352 14.1455 21.9475 13.0969 21.446C10.2299 20.0581 7.71244 18.0877 5.62045 15.5905C3.89317 13.5086 2.73826 11.5838 1.9734 9.51711C1.50231 8.25584 1.33009 7.27316 1.40607 6.34619C1.45672 5.75355 1.68466 5.26221 2.10508 4.84178L3.83238 3.11449C4.08058 2.88148 4.34398 2.75485 4.60232 2.75485C4.92144 2.75485 5.17976 2.94734 5.34186 3.10942C5.34692 3.11449 5.35198 3.11956 5.35705 3.12463C5.66604 3.41335 5.95983 3.71221 6.26882 4.03132C6.42584 4.19342 6.58794 4.3555 6.75003 4.52266L8.13288 5.90551C8.6698 6.44243 8.6698 6.93884 8.13288 7.47577C7.98597 7.62267 7.84414 7.76956 7.69725 7.91139C7.27176 8.34702 6.86653 8.75224 6.42584 9.14734C6.41571 9.15747 6.40558 9.16254 6.40052 9.17266C5.9649 9.60829 6.04594 10.0338 6.13712 10.3225C6.14218 10.3377 6.14725 10.3529 6.15231 10.3681C6.51195 11.2393 7.0185 12.0599 7.78843 13.0375L7.79349 13.0426C9.19153 14.7648 10.6656 16.1071 12.2915 17.1354C12.4992 17.2672 12.712 17.3735 12.9145 17.4748C13.0969 17.566 13.2691 17.6521 13.416 17.7433C13.4363 17.7534 13.4566 17.7686 13.4768 17.7787C13.649 17.8649 13.8112 17.9053 13.9783 17.9053C14.3987 17.9053 14.6621 17.6419 14.7482 17.5559L16.4806 15.8234C16.6528 15.6512 16.9264 15.4436 17.2454 15.4436C17.5595 15.4436 17.8178 15.6412 17.9749 15.8134C17.98 15.8184 17.98 15.8184 17.985 15.8234L20.776 18.6145C21.2977 19.1312 21.2977 19.6631 20.7811 20.2Z" fill="#000000"/>
<path d="M12.9701 5.71152C14.2972 5.93439 15.5027 6.5625 16.4652 7.52492C17.4276 8.48733 18.0507 9.6929 18.2785 11.02C18.3343 11.3543 18.6231 11.5873 18.9522 11.5873C18.9928 11.5873 19.0283 11.5823 19.0687 11.5772C19.4436 11.5164 19.6918 11.1619 19.6311 10.787C19.3575 9.18129 18.5977 7.7174 17.4377 6.55743C16.2778 5.39747 14.8139 4.63766 13.2082 4.36413C12.8333 4.30335 12.4837 4.55155 12.418 4.92132C12.3521 5.2911 12.5952 5.65074 12.9701 5.71152Z" fill="#000000"/>
<path d="M23.9723 10.5872C23.5215 7.94303 22.2754 5.53698 20.3607 3.62227C18.446 1.70756 16.04 0.461487 13.3958 0.0106694C13.026 -0.0551803 12.6765 0.198088 12.6107 0.56786C12.5499 0.942696 12.7982 1.29221 13.1729 1.35805C15.5334 1.75822 17.6861 2.87767 19.3983 4.58469C21.1103 6.29678 22.2248 8.44957 22.625 10.81C22.6806 11.1443 22.9694 11.3773 23.2986 11.3773C23.3391 11.3773 23.3746 11.3723 23.4152 11.3672C23.7849 11.3115 24.0382 10.9569 23.9723 10.5872Z" fill="#000000"/>
</svg>
