<svg width="43" height="43" viewBox="0 0 43 43" fill="none" xmlns="http://www.w3.org/2000/svg">
<path d="M21.5385 0.352539C10.0115 0.352539 0.663818 9.70024 0.663818 21.2272C0.663818 32.7542 10.0115 42.1019 21.5385 42.1019C33.0655 42.1019 42.4132 32.7542 42.4132 21.2272C42.4132 9.70024 33.0655 0.352539 21.5385 0.352539ZM32.0109 16.3244V19.1509C30.6781 19.1513 29.3832 18.8902 28.1618 18.3749C27.3765 18.0434 26.6448 17.6162 25.9756 17.0999L25.9957 25.7999C25.9873 27.7589 25.2122 29.5995 23.8095 30.986C22.6679 32.1145 21.2213 32.8322 19.6534 33.0645C19.285 33.119 18.9101 33.147 18.5309 33.147C16.8526 33.147 15.2591 32.6033 13.9557 31.6002C13.7104 31.4113 13.4758 31.2066 13.2525 30.986C11.7322 29.4834 10.9483 27.447 11.0803 25.3047C11.181 23.6739 11.8339 22.1187 12.9223 20.8997C14.3624 19.2866 16.3769 18.3913 18.5309 18.3913C18.9101 18.3913 19.285 18.4198 19.6534 18.4743V19.5193V22.4265C19.3041 22.3113 18.9311 22.2479 18.5426 22.2479C16.5747 22.2479 14.9826 23.8535 15.012 25.8229C15.0307 27.0829 15.719 28.1844 16.7342 28.7915C17.2113 29.0769 17.7601 29.2537 18.3458 29.2859C18.8047 29.311 19.2454 29.2471 19.6534 29.1124C21.0595 28.6479 22.0738 27.3273 22.0738 25.7697L22.0784 19.9438V9.30746H25.9709C25.9746 9.69315 26.0138 10.0695 26.0865 10.4341C26.3803 11.9101 27.2123 13.1906 28.3702 14.0636C29.3798 14.8251 30.637 15.2766 31.9997 15.2766C32.0006 15.2766 32.0118 15.2766 32.0108 15.2757V16.3244H32.0109Z" fill="white"/>
</svg>
